<svg xmlns="http://www.w3.org/2000/svg" viewBox="0 0 271.46 271.46"><defs><style>.cls-1{fill:#323539;}.cls-2{fill:none;}</style></defs><title>资源 35</title><g id="图层_2" data-name="图层 2"><g id="图层_1-2" data-name="图层 1"><path class="cls-1" d="M184.41,101.73H103.09l1.07,4.31h56.38v18.72Q172.78,113.49,184.41,101.73Z"/><path class="cls-1" d="M35.81,94.7c9.08,0,17.36-8.09,17.36-17.53,0-6.21-3.2-13-12-18.62,12.28-10,24.83-23.21,35.77-37,6.94,0,9.88-1.89,11-5.39L42.48,1.35c-2.94,17.81-6.67,38-10.41,52.61A103.75,103.75,0,0,0,8.84,48L7,49.65C15.24,59.09,21.65,75,22.72,88.24,26.73,92.81,31.27,94.7,35.81,94.7Z"/><path class="cls-1" d="M227.26,33.19c6.68-1.35,10.68-3.78,12.55-6.2L201.36,0,186.67,19.44H118.85l1.34,4.31h69.67v36.7H121.76l1.34,4.31h66.78V96.12c13.05-13.55,25.52-27.68,37.38-42.56Z"/><path class="cls-1" d="M83.11,159.46,81,160.53v-31l4.54-1.62a64.93,64.93,0,0,1,1.07,12.41,42.18,42.18,0,0,1-.27,5.94c4.27,5.94,9.61,8.37,14.95,8.37a19,19,0,0,0,18.67-19.7h.27a53.79,53.79,0,0,1,3.74,19.7c0,.62,0,1.25-.06,1.87q11.38-9.28,22.32-18.83c-6.23-5-15.63-9.56-29.17-13-5.07-8.37-16.55-17.27-37.65-24.28L77,101.7A63.33,63.33,0,0,1,83.9,119.5l-32.58.81c21.36-21,42.72-45.6,56.07-63.68a20,20,0,0,0,4,.27c4,0,6.11-1.35,7.18-3.78L75.05,35.61a834.28,834.28,0,0,1-35.78,84.73H6.43l11,34.79c2.94-.27,6.15-2.43,8-5.94,7.47-2.43,14.41-4.86,20.82-7V165.6l-28.31-5.67c-.8,28.36-5.07,58.58-11.75,76.11l2.6,1.5A8.77,8.77,0,0,0,12,236.41c15.22-13.35,26.56-34.67,34.22-60v39.27c6.31-5,12.66-10.32,19.7-15.29q7.59-5.4,15-10.85V161.34c3,6.35,5.14,14.89,6.21,23.66q9.13-6.78,18-13.66C99.76,167.18,92.55,163.14,83.11,159.46Z"/><rect class="cls-2" width="271.46" height="271.46"/></g></g></svg>