<svg xmlns="http://www.w3.org/2000/svg" viewBox="0 0 271.46 271.46"><defs><style>.cls-1{fill:#323539;}.cls-2{fill:none;}</style></defs><title>资源 36</title><g id="图层_2" data-name="图层 2"><g id="图层_1-2" data-name="图层 1"><path class="cls-1" d="M123,179.16c4.27,5.94,9.61,8.37,14.68,8.37,9.89,0,19.22-8.63,19.22-18.88,0-5.86-2.92-12.36-10.33-18.29q-10.94,9.56-22.32,18.83A57.73,57.73,0,0,1,123,179.16Z"/><path class="cls-1" d="M219.36,179.44a338.25,338.25,0,0,0,34.71-23.2,20.85,20.85,0,0,0,3.74.54c2.94,0,4.54-1.08,5.61-3l-39-21.31c-1.87,8.63-6.14,24.28-10.68,37.77C211.65,166.5,198,137.9,198,118.74h53.93c7.21,0,11.19-.81,13.35-3.78L239.92,86.09l-12.27,23.75V66.27c-11.86,14.88-24.33,29-37.38,42.56v5.61H184.8q-11.63,11.79-23.87,23v56c-15.22,7.28-30.44,14.3-42.72,19.7a16.47,16.47,0,0,0,1.07-6.46c0-6.84-3.73-14.94-13.74-22.66q-8.88,6.88-18,13.66a97.3,97.3,0,0,1,.73,11.68,57,57,0,0,1-.27,6.74c3.48,5.13,7.75,7.82,12.29,8.09l25.9,30.22c2.67-1.6,4.55-4.84,5.08-8.62,13.62-19.43,23.23-34.8,29.64-45.87v32.11c0,2.7-.53,4-1.87,4H139v3.24c16.56,2.15,18.43,10.52,18.43,32.1C192.93,269,198,254.72,198,232.6V154.88h.27c5.34,49.39,14.69,77.45,36,102.26,4-18.61,15.22-32.92,29.38-37.23l.8-2.7C247.94,209.66,231.92,198.33,219.36,179.44Z"/><path class="cls-1" d="M46.61,228.43v42.48H53c17.62,0,28.31-7.55,28.31-9.44V202.29q-7.43,5.44-15,10.85C59.27,218.11,52.91,223.41,46.61,228.43Z"/><rect class="cls-2" width="271.46" height="271.46"/></g></g></svg>