<svg xmlns="http://www.w3.org/2000/svg" viewBox="0 0 1627.6 597.13"><defs><style>.cls-1{fill:none;}.cls-2{fill:#ead996;}</style></defs><title>资源 1</title><g id="图层_2" data-name="图层 2"><g id="图层_1-2" data-name="图层 1"><rect class="cls-1" width="1627.6" height="597.13"/><path class="cls-2" d="M440.87,249.54c-2.34-2.06-1.75-4.24,1.31-4.84L455.92,242a12.11,12.11,0,0,0,7.81-6.3l5.56-12.86c1.24-2.86,3.49-3,5-.25l6.83,12.23a12.11,12.11,0,0,0,8.41,5.48l13.95,1.31c3.1.29,3.91,2.4,1.79,4.69l-9.52,10.27a12.11,12.11,0,0,0-2.61,9.69l3.06,13.67c.68,3-1.08,4.46-3.91,3.15l-12.71-5.88a12.11,12.11,0,0,0-10,.51l-12.05,7.14c-2.68,1.59-4.57.36-4.2-2.74L455,268.18a12.11,12.11,0,0,0-3.58-9.38Z"/><path class="cls-2" d="M196.52,419.5c-3.1-.36-3.85-2.49-1.68-4.73l8-8.22a12.11,12.11,0,0,0,2.83-9.63l-2.25-11.24c-.61-3.06,1.18-4.44,4-3.06l10.29,5a12.11,12.11,0,0,0,10-.28l10-5.61c2.72-1.53,4.58-.25,4.14,2.84L240.2,396a12.11,12.11,0,0,0,3.37,9.45l8.43,7.77c2.29,2.11,1.66,4.28-1.42,4.81l-11.29,2a12.11,12.11,0,0,0-8,6.12l-4.78,10.41c-1.3,2.83-3.56,2.9-5,.14l-5.36-10.13a12.11,12.11,0,0,0-8.28-5.67Z"/><path class="cls-2" d="M1060.82,497.15c-3,.76-4.49-1-3.25-3.82l5.68-13.15a12.11,12.11,0,0,0-.77-10L1054.86,458c-1.66-2.64-.47-4.56,2.63-4.27l14.26,1.33a12.11,12.11,0,0,0,9.28-3.82l9.19-11c2-2.39,4.19-1.86,4.88,1.18l3.14,14a12.11,12.11,0,0,0,6.5,7.64l13.29,5.34c2.89,1.16,3.07,3.41.38,5l-12.32,7.3a12.11,12.11,0,0,0-5.26,8.55l-1,14.29c-.21,3.11-2.3,4-4.64,1.91L1084.47,496a12.11,12.11,0,0,0-9.75-2.36Z"/><path class="cls-2" d="M669.91,471.95c-2.52,1.83-4.52.78-4.44-2.33l.56-22.35a12.11,12.11,0,0,0-4.45-9l-18.1-13.14c-2.52-1.83-2.14-4.06.85-4.95l21.43-6.37a12.11,12.11,0,0,0,7.18-7l6.9-21.27c1-3,3.2-3.29,5-.72l12.68,18.42a12.11,12.11,0,0,0,8.89,4.67h22.36c3.12,0,4.12,2,2.22,4.5l-13.59,17.75a12.11,12.11,0,0,0-1.69,9.89l6.92,21.26c1,3-.65,4.54-3.59,3.5l-21.09-7.44A12.11,12.11,0,0,0,688,458.8Z"/><path class="cls-2" d="M851.63,175.06c-3,.67-4.46-1.09-3.14-3.92L861.13,144a12.11,12.11,0,0,0-.48-10L845.5,108.24c-1.58-2.69-.34-4.58,2.75-4.19l29.68,3.65a12.11,12.11,0,0,0,9.39-3.55l19.83-22.38c2.07-2.33,4.25-1.74,4.84,1.32l5.7,29.35a12.11,12.11,0,0,0,6.28,7.83l27.41,11.95c2.86,1.25,3,3.5.24,5l-26.16,14.49a12.11,12.11,0,0,0-5.51,8.39l-2.89,29.76c-.3,3.1-2.41,3.9-4.69,1.78l-21.86-20.4a12.11,12.11,0,0,0-9.68-2.65Z"/><path class="cls-2" d="M1520,326.86c-3.08.51-4.4-1.32-2.93-4.07l2.12-4a12.11,12.11,0,0,0,0-10l-2.09-4c-1.44-2.77-.1-4.59,3-4l4.45.78a12.11,12.11,0,0,0,9.56-3.06l3.17-3.23c2.19-2.22,4.33-1.52,4.77,1.57l.63,4.48a12.11,12.11,0,0,0,5.87,8.14l4,2c2.79,1.39,2.78,3.65,0,5l-4.06,2a12.11,12.11,0,0,0-5.93,8.09l-.67,4.47c-.46,3.08-2.61,3.77-4.78,1.53l-3.14-3.25a12.11,12.11,0,0,0-9.53-3.14Z"/><path class="cls-2" d="M1384.49,515.79c-2.31,2.09-4.41,1.27-4.67-1.84l-.45-5.44A12.11,12.11,0,0,0,1374,500l-4.74-2.71c-2.71-1.55-2.57-3.8.31-5l5-2.11a12.11,12.11,0,0,0,6.39-7.74l1.12-5.34c.64-3.05,2.82-3.62,4.86-1.25l3.56,4.14a12.11,12.11,0,0,0,9.34,3.68l5.43-.59c3.1-.34,4.31,1.57,2.69,4.23l-2.83,4.67a12.11,12.11,0,0,0-.62,10l2.24,5c1.28,2.84-.16,4.59-3.19,3.87l-5.31-1.25a12.11,12.11,0,0,0-9.72,2.51Z"/><path class="cls-2" d="M1244,243.21c-2.58,1.75-4.54.64-4.36-2.48l.83-14.3a12.11,12.11,0,0,0-4.15-9.14L1225,208.5c-2.46-1.91-2-4.13,1-4.92l13.86-3.63a12.11,12.11,0,0,0,7.41-6.77l4.86-13.47c1.06-2.93,3.3-3.19,5-.56l7.74,12.06a12.11,12.11,0,0,0,8.73,5l14.32.46c3.12.1,4.05,2.16,2.07,4.57l-9.08,11.08a12.11,12.11,0,0,0-2,9.83l4,13.76c.87,3-.8,4.52-3.7,3.38L1265.83,234a12.11,12.11,0,0,0-10,1.12Z"/><path class="cls-2" d="M90,215.4c-2.23,2.18-4.36,1.44-4.74-1.66l-.55-4.49A12.11,12.11,0,0,0,79,201l-4-2.09c-2.77-1.44-2.72-3.7.11-5L79.2,192a12.11,12.11,0,0,0,6.08-8l.75-4.46c.52-3.08,2.68-3.73,4.81-1.45l3.08,3.31a12.11,12.11,0,0,0,9.47,3.31l4.47-.67c3.08-.46,4.37,1.4,2.86,4.12l-2.19,4a12.11,12.11,0,0,0-.22,10l2,4c1.39,2.79,0,4.59-3,4l-4.44-.86a12.11,12.11,0,0,0-9.61,2.89Z"/></g></g></svg>