<svg xmlns="http://www.w3.org/2000/svg" viewBox="0 0 1281.33 350.2"><defs><style>.cls-1{fill:none;}.cls-2{fill:#323539;stroke:#323539;}.cls-2,.cls-3{stroke-miterlimit:10;stroke-width:4px;}.cls-3{fill:#b86268;stroke:#b86268;}</style></defs><title>资源 22</title><g id="图层_2" data-name="图层 2"><g id="图层_1-2" data-name="图层 1"><rect class="cls-1" width="1281.33" height="350.2"/><path class="cls-2" d="M182.15,268.5h-2.69a88.74,88.74,0,0,1-46.87-13.18,96.87,96.87,0,0,1-34.29-35,91.72,91.72,0,0,1-12.57-46.5Q85.73,135,113.8,107t67.13-27.95a96.84,96.84,0,0,1,49.55,13.67v9q-22.95-15.62-49.55-15.62-35.88,0-61.51,25.75T93.78,173.67q0,36,25.63,61.88t61.51,25.87q26.6,0,49.55-15.62v9A90.48,90.48,0,0,1,182.15,268.5Z"/><path class="cls-2" d="M313.71,265.82h-8.06V192.59L250,82.75h8.79L310.29,184l50.53-101.3h7.32L313.71,192.59Z"/><path class="cls-2" d="M391.33,82.75h10.5q23.67,0,41.62,17.45t17.94,41q0,23.56-18.31,40.89t-39.3,17.33h-1.71l63,66.39h-10.5l-55.41-58.09v58.09h-7.81Zm7.81,109.6h4.39q19.77,0,34.91-15.13t15.13-35.88q0-20.74-15.62-36.13T402.31,89.83h-3.17Z"/><path class="cls-2" d="M491.89,82.75h8.06V265.82h-8.06Z"/><path class="cls-2" d="M596.24,92.51a40.8,40.8,0,0,0-21.6-5.86,29.71,29.71,0,0,0-20.38,7.44q-8.42,7.45-8.42,20.38v1.22q0,15.38,17.09,28.07a174.89,174.89,0,0,0,16.48,10.62q9.15,5.25,18.31,11.23a135.56,135.56,0,0,1,16.6,12.69,53.46,53.46,0,0,1,12.2,16.48,48.36,48.36,0,0,1,4.76,21.48v2.44q0,23.19-15.74,36.86t-38.93,13.67q-30.51,0-47.35-25.14V230.91a54.93,54.93,0,0,0,18.67,22.58q12.32,8.67,30.63,8.67a46.7,46.7,0,0,0,31.73-11.72q13.42-11.72,13.42-31.24v-1.46a41.25,41.25,0,0,0-6.35-22.33,55.32,55.32,0,0,0-15.87-16.6q-9.52-6.47-20.75-13.55T560,152.07a54.88,54.88,0,0,1-15.87-15.38,35.11,35.11,0,0,1-6.35-20.26v-1.71q0-17.08,11-26.12t27.09-9q22.45,0,35.64,16.6v12.45A42.17,42.17,0,0,0,596.24,92.51Z"/><path class="cls-2" d="M658,267.52q-8.42,0-8.42-7.57t8.42-7.57q8.42,0,8.42,7.57T658,267.52Z"/><path class="cls-3" d="M881,82.75V265.82h-8.06V92.27l-86.41,177-85.92-177V265.82h-7.32V82.75H705l82.26,168.91,82.5-168.91Z"/><path class="cls-3" d="M938,240.43q-27.71-28.56-27.7-66.76t28.07-66.15q28.07-27.95,67.37-27.95t67.12,27.83q27.83,27.83,27.83,66.27t-27.58,66.88Q1045.48,269,1007.16,269h-3.66Q965.66,269,938,240.43Zm154.63-66.27q0-36-25.51-61.76t-61.51-25.75q-36,0-61.63,25.75t-25.63,61.76q0,36,25.63,61.88t61.51,25.87q35.88,0,61.51-25.87T1092.59,174.16Z"/><path class="cls-3" d="M1129.94,82.75h65.66v7.08H1138v99.59h48.09v7.08H1138v62.24h57.61v7.08h-65.66Z"/></g></g></svg>