<?xml version="1.0" encoding="utf-8"?>
<!-- Generator: Adobe Illustrator 21.1.0, SVG Export Plug-In . SVG Version: 6.00 Build 0)  -->
<svg version="1.1" id="图层_1" xmlns="http://www.w3.org/2000/svg" xmlns:xlink="http://www.w3.org/1999/xlink" x="0px" y="0px"
	 viewBox="0 0 512 447.5" style="enable-background:new 0 0 512 447.5;" xml:space="preserve">
<style type="text/css">
	.st0{fill:#FFFFFF;}
</style>
<title>claw-left</title>
<g>
	<path class="st0" d="M114.1,326c-23.5,36.7-12.8,85.5,23.9,109c7.7,4.9,16.1,8.5,25,10.5c5.8,1.3,11.7,2,17.7,2
		c10.9,0,21.7-2.3,31.7-6.7c39.3-17.2,84.1-17.4,123.5-0.5l1,0.5c39.9,17.5,86.5-0.6,104-40.5c10.6-24.2,8.5-52.1-5.8-74.3
		l-55.5-86.6c-37.2-58-114.3-74.8-172.2-37.7c-15.1,9.7-28,22.6-37.7,37.7L114.1,326z"/>
	<path class="st0" d="M440.8,243.1c27.2,0,54.2-18.9,65.8-48.9c14.5-37.7-0.8-78.6-33.9-91.4c-16.5-6.4-34.7-4.9-51.3,4.1
		c-15.8,8.6-28.3,23.1-35.1,40.9s-7.3,37-1.4,53.9c6.3,17.8,18.8,31.1,35.3,37.5C426.7,241.8,433.7,243.1,440.8,243.1z"/>
	<path class="st0" d="M387.6,85.7c0-47.3-33.7-85.7-75.2-85.7s-75.2,38.4-75.2,85.7s33.7,85.7,75.2,85.7S387.6,132.9,387.6,85.7z"/>
	<path class="st0" d="M223.3,96.1c-6.5-19.5-19.1-35.7-35.7-45.7c-17.3-10.5-36.7-13-54.7-7S101,63,93.4,81.8
		c-7.2,17.9-7.7,38.5-1.2,58c11.2,33.8,40.7,55.8,71,55.8c6.6,0,13.1-1.1,19.4-3.1l0,0C218.6,180.4,236.9,137.2,223.3,96.1z"/>
	<path class="st0" d="M15.8,279.6c15.3,20.6,38.1,31.8,60.1,31.8c12.7,0.1,25.1-3.9,35.3-11.4c28.6-21.1,32.3-64.7,8.3-97.1
		s-66.7-41.6-95.3-20.5l0,0C-4.4,203.6-8.2,247.1,15.8,279.6z"/>
</g>
</svg>
