<svg xmlns="http://www.w3.org/2000/svg" viewBox="0 0 234.54 75.67">
  <defs>
    <style>
      .cls-1 {
        fill: #41424B;
        stroke: #41424B;
        stroke-miterlimit: 10;
      }
    </style>
  </defs>
  <title>progolue-title-part1_1</title>
  <g id="图层_2" data-name="图层 2">
    <g id="图层_1-2" data-name="图层 1">
      <g>
        <path class="cls-1" d="M29.73,61.25h-.81a26.9,26.9,0,0,1-14.21-4A29.36,29.36,0,0,1,4.31,46.64,27.8,27.8,0,0,1,.5,32.54,27.57,27.57,0,0,1,9,12.3,27.83,27.83,0,0,1,29.36,3.83,29.35,29.35,0,0,1,44.38,8v2.74A26.18,26.18,0,0,0,29.36,6a25.38,25.38,0,0,0-18.65,7.81A25.6,25.6,0,0,0,2.94,32.5a25.72,25.72,0,0,0,7.77,18.76,25.31,25.31,0,0,0,18.65,7.84,26.18,26.18,0,0,0,15-4.74v2.74A27.43,27.43,0,0,1,29.73,61.25Z"/>
        <path class="cls-1" d="M87.45,27.14h2.37V59.4A15.67,15.67,0,0,1,74,75.17,15,15,0,0,1,61.33,69l.15-3.7A16.16,16.16,0,0,0,66.92,71a13.14,13.14,0,0,0,16.54-1.85,12.91,12.91,0,0,0,4-9.51V54q-3.63,7.25-12.65,7.25a14.38,14.38,0,0,1-10.51-4.33,14.12,14.12,0,0,1-4.37-10.4V27.14h2.37V46.53A12.21,12.21,0,0,0,66,55.41a12.25,12.25,0,0,0,17.69,0,12.21,12.21,0,0,0,3.74-8.88Z"/>
        <path class="cls-1" d="M117.64,28.4a9.56,9.56,0,0,0-6.92,3,9.38,9.38,0,0,0-3,6.88v22.2h-2.37V27.14h2.37v5A10.44,10.44,0,0,1,111.87,28a12.32,12.32,0,0,1,6.29-1.63,11,11,0,0,1,6.66,2.37v3A10,10,0,0,0,117.64,28.4Z"/>
        <path class="cls-1" d="M140.66,19.07q-2.15,0-2.15-2t2.15-2q2.14,0,2.15,2T140.66,19.07Zm1.18,8.14V60.44h-2.37V27.21Z"/>
        <path class="cls-1" d="M166.33,28.32a5.1,5.1,0,0,0-3.4,1.26,3.92,3.92,0,0,0-1.48,3.11,4.6,4.6,0,0,0,1.67,3.4,20.11,20.11,0,0,0,4,2.85q2.33,1.3,4.7,2.78a14.36,14.36,0,0,1,4,3.77,8.72,8.72,0,0,1,1.67,5.25,9.8,9.8,0,0,1-3.29,7.44,11.24,11.24,0,0,1-8,3.07A12,12,0,0,1,160.75,60,8.48,8.48,0,0,1,157,56.52V53q2.81,6.22,9,6.22a9.31,9.31,0,0,0,6.47-2.37,7,7,0,0,0,2.63-5.29,7.43,7.43,0,0,0-1.67-4.92,15.49,15.49,0,0,0-4-3.4l-4.7-2.77a15.42,15.42,0,0,1-4-3.33,6.86,6.86,0,0,1-1.67-4.59,5.64,5.64,0,0,1,2.11-4.44,8.05,8.05,0,0,1,5.44-1.81,7.45,7.45,0,0,1,5.7,2.59v3A7,7,0,0,0,166.33,28.32Z"/>
        <path class="cls-1" d="M193.71,9V.5h2.66V9a9.43,9.43,0,0,1-1.92,6,9.9,9.9,0,0,1-5.11,3.44V15.82A7,7,0,0,0,193.71,9Z"/>
        <path class="cls-1" d="M222.87,28.32a5.1,5.1,0,0,0-3.4,1.26A3.92,3.92,0,0,0,218,32.69a4.6,4.6,0,0,0,1.67,3.4,20.17,20.17,0,0,0,4,2.85q2.33,1.3,4.7,2.78a14.36,14.36,0,0,1,4,3.77A8.73,8.73,0,0,1,234,50.75a9.8,9.8,0,0,1-3.29,7.44,11.25,11.25,0,0,1-8,3.07A12,12,0,0,1,217.28,60a8.47,8.47,0,0,1-3.74-3.44V53q2.81,6.22,9,6.22A9.31,9.31,0,0,0,229,56.81a7,7,0,0,0,2.63-5.29A7.43,7.43,0,0,0,230,46.6a15.52,15.52,0,0,0-4-3.4l-4.7-2.77a15.46,15.46,0,0,1-4-3.33,6.87,6.87,0,0,1-1.67-4.59,5.64,5.64,0,0,1,2.11-4.44,8.05,8.05,0,0,1,5.44-1.81,7.45,7.45,0,0,1,5.7,2.59v3A7,7,0,0,0,222.87,28.32Z"/>
      </g>
    </g>
  </g>
</svg>
