<svg xmlns="http://www.w3.org/2000/svg" viewBox="0 0 73.19 24.04">
  <defs>
    <style>
      .cls-1 {
        fill: #F0EEEA;
        stroke: #F0EEEA;
        stroke-miterlimit: 10;
        stroke-width: 0.5px;
      }
    </style>
  </defs>
  <title>progolue-skip</title>
  <g id="图层_2" data-name="图层 2">
    <g id="图层_1-2" data-name="图层 1">
      <g>
        <path class="cls-1" d="M6.87,23.79a17.08,17.08,0,0,1-4-.37,11.33,11.33,0,0,1-2.6-1L1,20.36a12.09,12.09,0,0,0,2.38.82,13.58,13.58,0,0,0,3.2.34,10.09,10.09,0,0,0,2.26-.24,5.41,5.41,0,0,0,1.79-.73,3.53,3.53,0,0,0,1.17-1.28,3.87,3.87,0,0,0,.42-1.87,3.37,3.37,0,0,0-.44-1.8,4,4,0,0,0-1.21-1.22,8.17,8.17,0,0,0-1.75-.87q-1-.36-2.08-.7T4.52,12a9.43,9.43,0,0,1-2.08-1.21A5.71,5.71,0,0,1,.9,9,5.53,5.53,0,0,1,.3,6.27a6.61,6.61,0,0,1,.43-2.4A4.76,4.76,0,0,1,2.07,2,6.59,6.59,0,0,1,4.42.71,11.29,11.29,0,0,1,7.85.25,13.71,13.71,0,0,1,11,.57a10.81,10.81,0,0,1,2.52.9l-.68,2.11a10.52,10.52,0,0,0-2.28-.77,12.14,12.14,0,0,0-2.65-.29A5.86,5.86,0,0,0,4,3.57,3.38,3.38,0,0,0,2.79,6.24,3.19,3.19,0,0,0,3.19,7.9,3.86,3.86,0,0,0,4.3,9.08a7.83,7.83,0,0,0,1.63.87q.93.38,2,.71,1.22.41,2.43.9a9,9,0,0,1,2.18,1.26,6,6,0,0,1,1.57,1.87,5.73,5.73,0,0,1,.59,2.74,6.4,6.4,0,0,1-.58,2.82,5.37,5.37,0,0,1-1.62,2A7.2,7.2,0,0,1,10,23.4,12.06,12.06,0,0,1,6.87,23.79Z"/>
        <path class="cls-1" d="M25.17,23.49H22.59V.56h2.58Zm4.32-12.21L39.73,23.49H36.57L26.94,12V10.73L36.3.56h3.06Z"/>
        <path class="cls-1" d="M49,23.49H46.4V.56H49Z"/>
        <path class="cls-1" d="M72.94,7.63a7.43,7.43,0,0,1-.54,2.88,6.72,6.72,0,0,1-1.55,2.28,7.08,7.08,0,0,1-2.43,1.51,8.94,8.94,0,0,1-3.2.54H60.62v8.64H58V.56h7.38a8.78,8.78,0,0,1,3.18.54A6.7,6.7,0,0,1,71,2.6a6.53,6.53,0,0,1,1.46,2.25A7.54,7.54,0,0,1,72.94,7.63Zm-2.59,0A4.64,4.64,0,0,0,69.09,4.2a5,5,0,0,0-3.67-1.26h-4.8v9.53h4.59A5.26,5.26,0,0,0,69,11.17,4.65,4.65,0,0,0,70.35,7.63Z"/>
      </g>
    </g>
  </g>
</svg>
