<svg xmlns="http://www.w3.org/2000/svg" viewBox="0 0 500 100"><defs><style>.cls-1{fill:#333;}.cls-2{fill:none;stroke:#fff;stroke-linecap:round;stroke-linejoin:round;stroke-width:0.5px;}</style></defs><title>title</title><g id="图层_2" data-name="图层 2"><g id="图层_1-2" data-name="图层 1"><polygon class="cls-1" points="25 0 0 100 475 100 500 0 25 0"/><path class="cls-2" d="M80.71,61.56c.32.55,23.79-14.7,24.21-14S77.24,63.41,77.61,64.05,103.37,48.44,103.69,49,80.1,62.27,80.4,62.79s23.61-14.48,24-13.84-22.37,14.35-22,15,21.51-13.13,21.82-12.6c.2.34-13.89,9.8-13.68,10.17s12.21-7.52,12.42-7.17S90.31,62.8,90.49,63.1s16.26-9.94,16.5-9.53S89,63.68,89.27,64.18,106.76,53.55,107,53.95,94.83,62.7,95,63s12.7-7.74,12.87-7.43S97.77,61.66,97.95,62s8.67-5.4,8.84-5.1-9.71,7-9.59,7.18,8.32-5.2,8.49-4.9S95.87,65.45,96,65.68s11.45-6.91,11.58-6.68-9.11,5.48-9,5.74,6.52-4.13,6.68-3.85-10.94,7.59-10.8,7.83,11.73-7.09,11.87-6.85-10.21,5.74-10.06,6,13.34-8.12,13.52-7.81-10,6.73-9.88,6.94,9.63-5.9,9.77-5.64-14.8,8.19-14.57,8.59,14.87-8.92,15-8.67c.24.42-15,8.69-14.83,9s15.06-9.05,15.22-8.78-13,7.51-12.83,7.82,10.75-6.63,10.93-6.31S95,71,95.25,71.41s15-9,15.16-8.75-9.86,6.9-9.7,7.19,9.27-5.76,9.45-5.45-14.61,9-14.41,9.39,11.55-7,11.7-6.76-10.52,7.57-10.36,7.84,10-6.23,10.22-5.9c.1.18-6.68,4.45-6.57,4.65s7.17-4.49,7.32-4.23-5.7,3.72-5.61,3.88,7.1-4.4,7.23-4.17-8.32,6.21-8.19,6.44,11.29-6.8,11.41-6.59-6.18,4.18-6.09,4.34,3.66-2.32,3.75-2.17-2.3,2.74-2.26,2.81,3.79-2.3,3.84-2.22-2.12,1.59-2.08,1.66,4-2.39,4-2.31-1.29,1.86-1.26,1.91.6-.41.63-.36-2.21,2.23-2.18,2.29l3.42-2"/><path class="cls-2" d="M86.35,35.05c.13.22,9-5.47,9.14-5.28s-8.91,5.07-8.79,5.29S97.1,28.72,97.25,29s-12.21,6.84-12,7.14,10.58-6.41,10.71-6.18S85.87,37.25,86,37.48s10.41-6.27,10.52-6.07-11.34,6.83-11.16,7.12,12.89-7.73,13-7.51S86.89,37.7,87,38s11.05-6.72,11.2-6.47-12.59,9-12.36,9.44c.13.22,9.78-5.94,9.91-5.72s-7.87,5.85-7.73,6.09,12.27-7.44,12.42-7.17-9.15,5.06-9,5.33,4.2-2.7,4.32-2.5-5.39,3.47-5.32,3.6,10.35-6.35,10.51-6.07-10,6.52-9.83,6.73,8.36-5.19,8.52-4.92S87.89,43.4,88.06,43.71,97.8,37.82,97.91,38s-6.2,4.07-6.12,4.21,9.21-5.65,9.36-5.4-12.43,7.66-12.25,8,12.12-7.27,12.24-7.07c.21.36-12.67,8.21-12.51,8.48s9.23-5.62,9.36-5.4-4.9,4-4.81,4.2S101.82,39.68,102,40s-13.19,8.9-13,9.26,10.44-6.41,10.61-6.12-7.93,6.24-7.81,6.45,9.57-5.89,9.73-5.62S93,49.79,93.1,50s6.12-3.91,6.28-3.63S91.89,52,92,52.19s9.29-5.65,9.42-5.44S93.59,51.82,93.68,52s6.4-4,6.53-3.77"/><path class="cls-2" d="M81,23.54l.42-.24c0,.05-1.3,2.68-1.26,2.75s4.37-2.65,4.42-2.55S80,26,80.08,26.13s1.14-.79,1.2-.69-4.42,3.75-4.35,3.87,7.57-4.62,7.68-4.43-9.08,6.29-8.94,6.55,11.24-6.84,11.39-6.58-11.5,7.79-11.33,8.08,14.91-9.08,15.12-8.73S78.2,33.05,78.37,33.34s14.61-9.09,14.9-8.6S73.9,36.43,74.16,36.87,96.95,23,97.25,23.54c.42.72-25.43,15.92-25.12,16.45S94.47,26.38,94.77,26.91,75.17,39.24,75.47,39.77s20.77-12.6,21-12.14S71.6,42.23,72,42.93,96.84,27.79,97.19,28.4,72.64,42.57,73,43.14c.16.28,13.12-8.06,13.32-7.69S73.11,44.68,73.3,45s12.26-7.64,12.5-7.22S69.48,48.29,69.73,48.72s16.52-10,16.71-9.65c.28.49-16.83,10.52-16.62,10.87s14.59-8.83,14.76-8.52-12.3,7.14-12.15,7.39S85.78,40.64,86,41,67.56,51.65,67.88,52.21c.23.4,16.76-10.14,17-9.79s-15.44,9.6-15.23,10,14.08-8.63,14.3-8.26S68,54.56,68.21,54.91,81.65,46.57,81.9,47s-12.38,8.33-12.2,8.64S85,46.32,85.18,46.71,66.09,59.23,66.4,59.76c.2.34,17.91-10.75,18.09-10.44s-16.4,9-16.18,9.37S82.71,49.83,83,50.24,67.1,60.06,67.37,60.53c.18.31,16.21-9.78,16.39-9.46S66.34,62.41,66.62,62.9s19.56-12,19.85-11.46c.4.69-23.91,14.63-23.57,15.22s21.45-13.25,21.82-12.6c.26.45-21.33,13.73-21,14.32.45.78,24.88-15.18,25.23-14.57s-25.21,14-24.83,14.7,27-16.36,27.36-15.79-28.39,16.43-28,17.15c.51.88,38.68-23.46,39.16-22.61S60.89,70.47,61.41,71.38s41.27-25,41.79-24.13C103.84,48.35,61.44,71,62,71.91c.7,1.21,38.13-23.18,38.63-22.3S61.55,70.79,62.19,71.9c.49.85,42.38-26,43.05-24.86s-44.46,25.09-43.92,26c.26.45,18.52-11.29,18.78-10.84s-20.47,12-20.17,12.55,19.75-12,20-11.55S63.65,73.52,63.86,73.87s15.27-9.3,15.48-8.94S68,72.71,68.19,73.06s8.12-5.08,8.29-4.78-10.92,6.73-10.74,7,11.69-7.08,11.83-6.83-6.2,5.26-6.08,5.47,5-3,5-2.91S71.91,74,72,74.1s3.65-2.27,3.72-2.15,0,1.36.06,1.38,1-.65,1.06-.61-2.44,1.49-2.4,1.55,1-.62,1-.59S77.12,73,77.15,73s.22-.14.23-.13-4.84,2.7-4.76,2.84,4.82-2.79,4.82-2.79"/><path class="cls-2" d="M139.67,46.64c.17.3,13.37-8.24,13.59-7.85s-9.12,6.18-9,6.39S154.84,38.61,155,39s-9.44,5.58-9.27,5.87,12.15-7.34,12.29-7.1S141.91,47,142.12,47.36s14.34-8.62,14.49-8.36-8.67,6.27-8.54,6.5,9.23-5.75,9.41-5.43-11.05,6.52-10.9,6.77,13.38-8,13.51-7.8-15,8.85-14.73,9.24,12.81-7.75,13-7.48S147.82,46.94,148,47.17s12-7.19,12.09-7-9.36,6.16-9.2,6.44,6.65-4.17,6.8-3.92-7.86,4.71-7.73,4.93,10-6.15,10.19-5.88-7.89,5.12-7.77,5.32,7.77-4.81,7.91-4.57-10,5.95-9.85,6.15,7-4.35,7.17-4.14-9.51,5.34-9.35,5.61,12.63-7.67,12.8-7.39-10.7,7.55-10.54,7.83,7.84-4.9,8-4.62-5.69,4.34-5.62,4.46c.16.28,8.58-5.3,8.73-5s-12,7.76-11.86,8.08S164.21,44.7,164.38,45s-15.1,9.58-14.84,10c.15.25,13.36-8,13.48-7.78s-11.24,7.3-11.07,7.59,11.09-6.71,11.22-6.48-12.39,6.8-12.2,7.14,12.51-7.59,12.67-7.31-11.47,7.74-11.26,8.1,8.38-5.19,8.53-4.93-10.13,6-10,6.25,10.48-6.44,10.65-6.15-10.24,6-10.09,6.3,9.69-6,9.89-5.71-11,6.58-10.81,6.88,13.49-8.1,13.62-7.87S150.4,60.89,150.58,61.2s13.15-8,13.34-7.7-15.81,9.27-15.6,9.63,14-8.49,14.18-8.19S147.73,63.06,148,63.46s15.47-9.32,15.64-9-17.54,10.89-17.3,11.3,15.25-9.27,15.45-8.92"/><path class="cls-2" d="M136.06,69.93c.11.19,8.14-5,8.28-4.78s-12.25,7.39-12.08,7.68,11.65-7,11.77-6.8-9.45,5.53-9.33,5.74,10.53-6.44,10.69-6.17-11.1,8.25-10.91,8.57c.38.65,28.63-17.5,29-16.77.32.55-23.18,14.86-22.83,15.45S161,60.4,161.35,60.93s-22,13.62-21.74,14.15,24.6-15.09,25-14.43-26.87,14.9-26.44,15.64c.34.58,25.87-15.8,26.25-15.15S142.82,75,143.14,75.57s20.36-12.47,20.67-11.93S146.61,73.53,146.9,74s15-9.32,15.32-8.85c.17.3-13.66,9.15-13.49,9.44s10.4-6.48,10.61-6.12S149.1,75,149.24,75.28s10.37-6.26,10.49-6.06-6.33,4-6.23,4.16,2.84-1.88,2.94-1.7-5.31,3.4-5.24,3.51,3.85-2.3,3.89-2.24"/><path class="cls-2" d="M135.22,40.2c0,.06,2.3-1.4,2.33-1.34s-3.14,1.88-3.09,2,6.24-3.79,6.32-3.65"/><path class="cls-2" d="M124.25,23.52l.37-.22s-.47,2.23-.44,2.28,3.58-2.17,3.63-2.09-3.75,2.06-3.69,2.16.34-.3.39-.22-3,3-2.91,3,6.17-3.76,6.25-3.61S120.91,30,121,30.19s9.17-5.57,9.29-5.37-8.62,6.22-8.49,6.44,12.13-7.38,12.3-7.1-8.88,6.79-8.76,7,8.17-5.13,8.35-4.82-12.22,7.78-12.05,8.06,14.77-8.93,14.94-8.63c.27.47-16.29,10.89-16.09,11.24s12.89-7.82,13.06-7.54-9.08,6.61-8.94,6.87,10-6.1,10.16-5.87-13.33,8.35-13.1,8.73,13.26-8,13.43-7.75S122.83,38.92,123,39.21s10.4-6.39,10.57-6.1-9.45,7.19-9.3,7.44,9.38-5.86,9.57-5.53-12.59,8.47-12.4,8.81,13.49-8.14,13.64-7.88-13.14,8.49-13,8.77,11.46-6.93,11.59-6.69-8.92,5.28-8.81,5.46,10.2-6.24,10.35-6-14.8,8.73-14.54,9.17,13.54-8.18,13.7-7.91-11.6,7.5-11.44,7.77,10.76-6.6,10.93-6.31-11.71,8.13-11.56,8.4c.3.52,18.12-11.23,18.45-10.65s-16.47,10.56-16.23,11S147.68,34.78,148,35.38s-26.21,16.37-25.78,17.1,29.18-17.57,29.49-17S123.79,50.75,124.17,51.4s25.66-15.79,26.09-15.06S123.35,52.12,123.8,52.9c.33.57,29.08-17.57,29.42-17s-29.76,18-29.29,18.85,31-19,31.51-18.19c.58,1-35,20.67-34.49,21.53.21.36,12.58-7.78,12.8-7.39s-11.17,8.22-11,8.54,9.79-6,9.94-5.74-9.52,5.53-9.37,5.78,11-6.66,11.12-6.42S123,60.08,123.18,60.38s11-6.69,11.15-6.44S121,61.52,121.21,61.81s13.38-8.07,13.53-7.81S122,61.81,122.2,62.1s9.46-5.79,9.61-5.55-9.5,5.23-9.35,5.5,13.74-8.37,13.93-8-14.62,8.7-14.44,9,13.85-8.42,14-8.1S120.88,64,121.1,64.41s15-9.06,15.14-8.74-12.9,8.43-12.73,8.72S136.14,56.7,136.3,57s-11.6,7.91-11.39,8.27,9.4-5.87,9.59-5.54S120.76,68,121,68.37s14.94-9.08,15.14-8.74-13.06,9-12.83,9.36,13-7.87,13.15-7.59S122.85,69.29,123,69.58s12.65-7.83,12.88-7.43S124.11,70,124.26,70.28,137.8,62,138,62.34s-14.17,7.89-14,8.23,12.55-7.72,12.75-7.36-12.18,6.92-12,7.23,13.92-8.52,14.13-8.16-19.31,12-19,12.57,19.94-12,20.13-11.62-16.81,10.21-16.57,10.63,12.86-8,13.12-7.57-12.17,7.68-12,7.94c.25.44,12.72-7.83,12.93-7.46.11.18-6.75,5.93-6.65,6.1s2.82-1.82,2.91-1.68-4.74,4.17-4.67,4.28S135,72,135,72.08s-1.25,2.13-1.22,2.19l.25-.14"/><path class="cls-2" d="M189.21,46.17c.17.3,12.41-7.52,12.56-7.25s-11.65,6.56-11.49,6.85,13.2-8.07,13.4-7.74S189,46.24,189.17,46.6s13.15-8,13.32-7.69-10,7.28-9.85,7.5,11.29-6.81,11.42-6.59S192.57,46.73,192.74,47s13.38-8,13.51-7.8-11.7,6.8-11.54,7.08,11.47-7,11.63-6.71-11.62,8.52-11.4,8.89,9.74-5.91,9.87-5.7-7.19,5.48-7.06,5.71,12.16-7.37,12.31-7.11-9,5-8.82,5.23,4.09-2.63,4.2-2.43-5.17,3.35-5.1,3.47,10.27-6.3,10.43-6-9.7,6.38-9.58,6.59,8.32-5.16,8.47-4.89-11.68,7-11.5,7.3S207.88,44.77,208,45s-6.08,4-6,4.14,9.22-5.65,9.36-5.41-12.46,7.68-12.28,8,12.33-7.4,12.45-7.19c.21.36-12.91,8.35-12.76,8.62s9.55-5.81,9.67-5.59-5.36,4.29-5.26,4.46,9.15-5.67,9.32-5.38S198.44,56,198.67,56.4s11.31-6.95,11.49-6.63-9.36,7-9.22,7.27,10.8-6.64,11-6.33-10.21,6.79-10.08,7,7.65-4.85,7.84-4.52-9.84,6.92-9.69,7.19,11.26-6.85,11.41-6.59-10.76,7.54-10.63,7.78,9.14-5.65,9.3-5.37-8.74,5.7-8.61,5.92c.23.4,12.54-7.75,12.76-7.37S195.74,65.35,196,65.87c.17.3,16.17-9.88,16.41-9.47"/><path class="cls-2" d="M182.41,38.83c0,.07,2.69-1.63,2.73-1.58s-7.57,6.1-7.44,6.32,13.54-8.23,13.72-7.92-14,7.64-13.82,8,10.35-6.38,10.52-6.08-14.48,9.23-14.26,9.6,17.67-10.79,17.92-10.35-19.67,12-19.36,12.56S193.69,36.44,194,37s-21.6,13.3-21.3,13.83S197,35.94,197.37,36.54s-21.92,14-21.64,14.43,22.66-14,23.07-13.32-27.22,16-26.87,16.61S202.58,35.59,203,36.32c.53.93-32.76,20-32.37,20.64.21.37,16.07-9.77,16.28-9.4s-12.29,8.35-12.09,8.69,11.08-6.74,11.23-6.48-14.33,8.89-14.09,9.3,13.85-8.41,14-8.1S173.15,58.74,173.33,59s10.68-6.57,10.85-6.27-9.4,7.16-9.26,7.41,9.1-5.69,9.29-5.36-12,8.13-11.78,8.45,12.82-7.73,13-7.49-12.15,7.94-12,8.2,10.58-6.4,10.71-6.18-7.89,4.72-7.8,4.88,9.23-5.65,9.37-5.41-13.53,8-13.29,8.45,12.37-7.47,12.51-7.22-10,6.61-9.85,6.85,9.44-5.79,9.58-5.53-9.68,7-9.56,7.24,8.44-5.25,8.61-5-5.7,4.68-5.61,4.84,9.93-6.06,10.08-5.82-11.42,8.36-11.22,8.69,12.32-7.36,12.43-7.17-10.62,5.83-10.48,6.08,8.82-5.44,9-5.18-8.67,5.94-8.52,6.21,10.54-6.35,10.65-6.15-9.42,7-9.26,7.29,10.68-6.51,10.83-6.25S178.83,73.14,179,73.46s9.64-6,9.81-5.66-6.21,5.53-6.1,5.72c.21.37,10.74-6.59,10.91-6.3s-10.13,5.86-10,6.13c.45.79,28.27-17.11,28.61-16.52s-28.19,16.32-27.78,17S212,57.21,212.31,57.82s-29.86,16.66-29.48,17.31,29.53-17.89,29.89-17.26-28.42,16.4-28,17c.46.8,24.79-15.09,25.13-14.51S184.65,74.09,185.06,74.8c.32.56,28.88-17.71,29.33-16.93s-29.37,16.8-29,17.42,28.13-17.21,28.55-16.48S185.23,75.32,185.64,76s27.82-17,28.21-16.29S189.5,74.48,189.8,75s23.27-14.19,23.6-13.63-19.94,12.4-19.59,13,16.26-10.09,16.56-9.56S191,76.1,191.32,76.66s19.69-12,20-11.53-13.65,9.29-13.41,9.7c.13.23,10.83-6.56,11-6.33s-10.08,6-10,6.17,8.16-5.05,8.31-4.8-3.6,2.71-3.56,2.79,2.14-1.32,2.18-1.26"/><path class="cls-2" d="M251.24,69c.15.26,10.93-6.76,11.12-6.42s-15.71,9.28-15.49,9.65,13.89-8.38,14-8.11S248.89,71,249,71.3s12.28-7.51,12.46-7.2S246.81,74.3,247.06,74.72s13.42-8.16,13.59-7.85-6.89,6-6.78,6.18,4.77-3,4.88-2.82-5,4.29-4.9,4.42,8.45-5.12,8.56-4.94-9.94,5.74-9.78,6,9.6-5.76,9.7-5.6-4,4.3-3.93,4.43S262.75,72,262.79,72s-2.78,2.12-2.73,2.21.9-.56.92-.53-.18.52-.18.53l.23-.13"/><path class="cls-2" d="M248,38.26l.19-.11.13.14s1.94-1.14,1.95-1.12-3.52,2.11-3.47,2.19,2.4-1.42,2.42-1.4-2,2.87-1.94,2.94,5.1-3.05,5.15-3-6,3.93-5.91,4.09,8.67-5.16,8.74-5-7.23,4.36-7.13,4.54,7.52-4.55,7.61-4.4-9.45,7.35-9.27,7.66,10-6.08,10.15-5.86-8.52,6.2-8.37,6.46,14.71-8.93,14.9-8.6-11.7,6.43-11.5,6.78,6.62-4.17,6.77-3.91-8,4.9-7.9,5.09c.2.34,12.68-7.79,12.88-7.44s-12.62,8-12.47,8.26,10.54-6.53,10.73-6.19-14.25,8.4-14,8.77,11.83-7.15,12-6.91-8.53,5.35-8.42,5.54,11.24-6.89,11.42-6.59-14.77,8.94-14.55,9.32,14.08-8.46,14.23-8.21c.24.42-15,9.5-14.83,9.82s11.09-6.75,11.24-6.49-7.2,5.29-7.07,5.51S262,43.66,262.22,44,246.7,54.15,246.95,54.58c.15.26,12.16-7.47,12.35-7.13s-10.23,7.5-10.08,7.76,11.23-6.91,11.42-6.59-10.56,7-10.43,7.21,7.75-4.91,7.94-4.58-9.6,6.79-9.45,7.05,10.88-6.62,11-6.36-10.46,7.38-10.33,7.6,8.73-5.4,8.88-5.13-9,5.87-8.92,6.1c.23.4,12.77-7.89,13-7.5s-18.82,10.62-18.51,11.16c.18.31,16.56-10.12,16.8-9.7"/><path class="cls-2" d="M225.2,36.81l.38-.22s-.52,2.25-.49,2.31,3.6-2.19,3.65-2.11S225,38.86,225,39s.37-.32.41-.24-3,3-2.93,3.05,6.17-3.76,6.26-3.61-6.94,5.13-6.83,5.33,9.16-5.57,9.28-5.36-8.61,6.21-8.49,6.44S234.85,37.2,235,37.48s-8.83,6.76-8.71,7,8.55-5.37,8.74-5-12.6,8-12.43,8.28,15.1-9.13,15.28-8.82c.28.48-16.64,11.08-16.43,11.43s13.22-8,13.39-7.73-9.42,6.8-9.27,7.06,10.33-6.29,10.47-6-13.64,8.52-13.41,8.91,13.57-8.23,13.74-7.93-12.6,7.64-12.43,7.94,10.7-6.58,10.87-6.28-9.75,7.36-9.61,7.61,9.67-6,9.87-5.7-12.9,8.64-12.7,9,13.79-8.32,13.94-8.05S222.88,57.71,223,58s11.75-7.11,11.89-6.87-9.22,5.45-9.11,5.64,10.5-6.42,10.65-6.15S221.37,59.51,221.63,60s13.84-8.36,14-8.08-11.9,7.66-11.74,7.94S235,53,235.14,53.33s-12,8.31-11.87,8.58,10.3-6.4,10.5-6.06-8.32,6.11-8.19,6.33,11.89-7.26,12.06-7-14.43,10-14.19,10.41c.15.26,14.19-8.5,14.32-8.27s-12.56,6.89-12.39,7.19,10.68-6.58,10.86-6.27-11.16,7.29-11,7.62,12.15-7.32,12.28-7.09-11.87,8.34-11.68,8.68,11.64-7.1,11.81-6.82-14.4,9.44-14.19,9.81,10-6.18,10.18-5.87-7.4,6.17-7.26,6.4,9-5.52,9.14-5.28-8.5,5-8.37,5.2,10.49-6.35,10.62-6.13-10.37,6.63-10.22,6.9,11.3-6.86,11.45-6.61-13.37,7.62-13.2,7.91,13.9-8.38,14.05-8.11-12.6,7.74-12.43,8,10.94-6.69,11.1-6.41-10.95,6-10.77,6.32,15.38-9.38,15.6-9-15.81,9.35-15.62,9.68,17.44-10.63,17.68-10.21-18,10.71-17.78,11.17c.49.85,34.43-21,34.92-20.16S231,73,231.38,73.67c.51.89,30.71-18.74,31.15-18s-28.34,16.93-27.85,17.77,25.19-15.59,25.64-14.8-29,16.49-28.53,17.32,29.49-18,29.93-17.28-25.05,15.44-24.63,16.18c.3.52,23.88-14.46,24.17-14S237.32,74.49,237.61,75s22.53-13.92,22.92-13.24S241.68,73.54,241.9,73.93s19.68-12.07,20-11.54-20,11.08-19.72,11.55,18.12-11.12,18.41-10.63c.2.34-17,9.55-16.78,10,.12.2,6.63-4.06,6.73-3.88S241,75,241.15,75.27c.05.1,7.77-4.58,7.81-4.51"/><path class="cls-2" d="M291.64,45.85c.1.18,7.45-4.61,7.58-4.38s-10.81,6.6-10.66,6.86,9.13-5.48,9.22-5.32-6.5,3.91-6.41,4.06,6.91-4.21,7-4-5.36,5.13-5.26,5.31,4.37-2.6,4.4-2.54-.32,1.51-.3,1.55l.21-.12"/><path class="cls-2" d="M270,37.91l.16-.09.13.14s1.86-1.1,1.87-1.08S268.67,39,268.72,39s2.29-1.35,2.3-1.33-2,2.91-2,3,4.76-2.85,4.8-2.77-5.72,3.77-5.63,3.93,8.35-5,8.41-4.86-6.92,4.19-6.83,4.36,7.2-4.35,7.28-4.21c.17.3-9.23,7.23-9.05,7.53S287.17,33,287.42,33.46s-18,11.3-17.66,11.83,21.52-13.13,21.83-12.6c.21.37-18.75,10.23-18.43,10.78s13.48-8.33,13.71-7.92S271.82,44.3,272,44.65c.32.55,19.55-12,19.87-11.47s-19.7,11.89-19.47,12.3,17.5-10.82,17.81-10.28S268.8,47.5,269.12,48,288,36.63,288.22,37s-14.73,8.74-14.54,9.08c.3.51,17.32-10.61,17.58-10.15s-19.08,11.28-18.8,11.77,18.65-11.24,18.85-10.89S273.95,47.62,274.16,48s15.6-9.48,15.8-9.12-9.57,6.56-9.4,6.85,15.25-9.42,15.51-9S275.58,49.62,275.9,50.18s19.91-12.26,20.24-11.69-18.22,11.87-18,12.31,19-11.68,19.31-11.15S279,51,279.17,51.41s15.51-9.69,15.83-9.14-17.61,11.14-17.34,11.61c.18.32,10.72-6.52,10.86-6.27s-9.51,6.86-9.39,7.06,7.8-4.84,7.95-4.59-6.56,4.51-6.46,4.68c.19.33,10.36-6.41,10.54-6.09s-14.78,9-14.54,9.47c.13.23,12.65-7.72,12.83-7.41s-12.63,8.2-12.46,8.48,10.35-6.42,10.54-6.08S276,60,276.11,60.24s12.92-7.82,13.08-7.55S278.85,59.87,279,60.1s8.93-5.59,9.12-5.26-12.18,7.55-12,7.87,10.76-6.53,10.89-6.29-10.64,7.68-10.49,7.93,13.84-8.41,14-8.1-12.24,8.56-12.07,8.86,11.63-7,11.76-6.79-13.15,7.25-12.94,7.61,14.41-8.66,14.56-8.41-13,8.39-12.81,8.72,10.95-6.67,11.1-6.41-9.59,7.36-9.42,7.65,8-5,8.19-4.73-9.71,7.09-9.59,7.3,11.86-7.15,12-6.92-12.61,8.34-12.44,8.64,10.34-6.34,10.5-6.06-11.88,7.47-11.72,7.75,15.75-9.5,15.93-9.2S282,72,282.17,72.26s11.77-7.27,12-6.91-14,8.46-13.77,8.78,11.7-7.2,11.89-6.87-10.58,7.6-10.41,7.88,14.6-8.88,14.8-8.54-15,8.82-14.8,9.15,13.43-8.17,13.61-7.86-12.67,7.4-12.48,7.72,16-9.59,16.12-9.31-9.93,7.13-9.75,7.44,8.55-5.28,8.7-5-10.5,7.39-10.33,7.68S300,69,300.14,69.23s-5.07,4.44-5,4.62,1.09-.8,1.16-.67-3.21,1.93-3.15,2,7.11-4.25,7.17-4.14-4,3.91-4,4,3.77-2.19,3.77-2.18"/><path class="cls-2" d="M279.56,27.33l.37-.22s-.48,2.23-.45,2.28,3.57-2.17,3.61-2.09-3.73,2.05-3.67,2.15.33-.29.37-.22-2.95,2.94-2.9,3,6.14-3.74,6.23-3.6-6.91,5.11-6.8,5.31,9.13-5.55,9.25-5.34-8.57,6.19-8.45,6.41,12.07-7.34,12.23-7.06-8.81,6.75-8.69,7,8.3-5.21,8.48-4.9S276.8,37.92,277,38.2s14.88-9,15.06-8.69-16.41,9.08-16.21,9.42,13.11-8,13.28-7.67"/><path class="cls-2" d="M377.53,40.46c.13.22,9.7-6,9.86-5.7s-8.62,5.9-8.5,6.1,8.94-5.56,9.11-5.26-8.59,5.13-8.44,5.39,10.87-6.57,11-6.35-15.48,8.89-15.28,9.25,13.36-8,13.5-7.79-9.73,6.85-9.59,7.1,9.07-5.65,9.25-5.34-11.4,6.7-11.24,7,13.35-8,13.48-7.78S375,46.31,375.2,46.72s13-7.89,13.2-7.62-11.09,6.48-11,6.72,12.33-7.41,12.45-7.19-10.58,6.81-10.4,7.13,7.17-4.49,7.32-4.23-8.74,5.19-8.6,5.44,10.61-6.51,10.78-6.22-9.07,5.76-8.93,6,8.42-5.2,8.57-4.95-10.87,6.44-10.74,6.67,7.71-4.75,7.84-4.53S375.43,49.69,375.6,50s13.3-8.09,13.48-7.78S376.81,50.61,377,50.94s8.6-5.37,8.77-5.07-6.83,5-6.74,5.11,9.16-5.65,9.32-5.38-13,8.26-12.78,8.61,15-9.07,15.19-8.77-15.87,10-15.59,10.47c.15.26,13.65-8.17,13.78-8s-11.64,7.52-11.47,7.82,11.16-6.75,11.29-6.52-12.47,6.85-12.28,7.18S389,48.8,389.21,49.09s-11.53,7.77-11.32,8.13,8.15-5,8.29-4.79-9.84,5.82-9.69,6.09,10.12-6.21,10.28-5.94-9.83,5.82-9.69,6.07,9.21-5.75,9.4-5.42-10.43,6.27-10.26,6.57,12.83-7.71,13-7.48-12.28,9-12.12,9.28,11.53-7,11.7-6.75S375,63,375.23,63.27s11.92-7.23,12.07-7S374.76,63.21,375,63.55s13.29-8,13.43-7.75-13,9.17-12.82,9.48,10.78-6.56,10.93-6.31-9.57,6.5-9.41,6.77,9.29-5.67,9.42-5.44-10.17,6-10,6.26,13.26-8.06,13.43-7.75-14,8.56-13.76,8.93,13.76-8.3,13.91-8c.25.43-14.83,9.49-14.6,9.88s10.51-6.41,10.66-6.15-10.78,6.48-10.6,6.8,12.7-7.62,12.82-7.4-11.72,7.63-11.57,7.88,12.41-7.6,12.6-7.28-10.46,7.31-10.29,7.6,7.73-4.88,7.91-4.57-11,7.91-10.89,8.17,9.69-6,9.87-5.7c.09.15-6.82,4-6.72,4.18S389.74,66.71,389.9,67,379,73.82,379.15,74.06s6.57-4.13,6.71-3.88-6.72,3.83-6.63,4,6.48-4,6.6-3.81-3.92,3.39-3.85,3.5,7.7-4.7,7.81-4.51-9,6-8.83,6.32,6.61-4,6.68-3.86-6.37,3.7-6.28,3.86,9.07-5.38,9.13-5.27-4.29,4.24-4.22,4.35,4.82-2.83,4.84-2.79-2.73,2.27-2.68,2.35.32-.2.33-.19-.78.49-.77.51l1.5-.87"/><path class="cls-2" d="M374.91,23.43s0,0,.05,0-4.55,3.18-4.49,3.3,4.25-2.5,4.27-2.47-2.18,1.54-2.15,1.59,3.31-2,3.35-1.93-6,5.5-5.92,5.69,8.89-5.38,9-5.2-5.73,5.35-5.64,5.52,7.5-4.66,7.64-4.41-11.25,7.72-11.09,8S387.14,23,387.4,23.41,367.59,34.49,367.91,35s19.75-12,20-11.56S368.69,36.08,369,36.58s21.26-13,21.59-12.46-19.44,11.1-19.11,11.67S388.88,25,389.2,25.54s-19.89,12.58-19.65,13c.34.58,17.59-10.9,17.92-10.34S367.41,40.1,367.68,40.56,388.75,27.81,389,28.25,369.59,39.3,369.9,39.84s16.32-10.13,16.63-9.6S364.38,44,364.65,44.47c.36.62,22.15-13.41,22.42-12.94s-21,11.63-20.74,12.16,23.77-14.56,24.14-13.93-21.61,13.12-21.35,13.56,20.56-12.56,20.86-12-26.19,14.36-25.78,15.06,25.87-15.61,26.17-15.11c.42.73-26.65,15-26.3,15.66S390.27,31,390.59,31.56s-24.77,13.93-24.43,14.52,22-13.59,22.41-12.94-25.7,14.5-25.28,15.23,26.5-16.12,26.85-15.5-22.77,13.88-22.4,14.53c.18.31,10.67-6.62,10.87-6.28S361.9,51.31,362.13,51.71s12.93-7.86,13.11-7.57-13.06,9-12.87,9.29,11.31-7,11.52-6.65-9.28,5.86-9.13,6.13,9.14-5.68,9.31-5.38-9.13,5.58-9,5.83,10-6.16,10.17-5.87c.27.47-15.1,9.88-14.86,10.3.15.26,16.63-10.09,16.84-9.73s-13.5,8.17-13.31,8.5,10.15-6.3,10.34-6-12,7.4-11.85,7.69S374.82,50.75,375,51"/><path class="cls-2" d="M344.79,40.59c.11.2,8.05-4.88,8.15-4.71s-7.9,4.52-7.79,4.71,9.42-5.74,9.55-5.51-11.19,6.29-11,6.56,9.59-5.81,9.71-5.6-9,6.76-8.92,7,9.39-5.65,9.49-5.48-10.3,6.27-10.15,6.54,11.88-7.11,12-6.92-10.44,6.12-10.3,6.36,10-6.1,10.18-5.88-11.53,8.47-11.31,8.84c.11.2,8.74-5.3,8.85-5.11s-6.78,5.26-6.66,5.47,11.21-6.78,11.34-6.55-8,4.47-7.91,4.71,3.13-2.05,3.24-1.87-4.29,2.87-4.23,3,9.28-5.69,9.42-5.44-8.85,5.91-8.74,6.1,7.28-4.53,7.42-4.28S346.37,49,346.53,49.23s8.64-5.23,8.75-5-5.09,3.46-5,3.58,8.12-5,8.25-4.76-11.31,7.06-11.14,7.35,11-6.61,11.13-6.43S347,51.5,347.12,51.74s8.1-4.93,8.21-4.74-3.71,3.4-3.63,3.52,7.47-4.63,7.61-4.39-11.95,8.23-11.76,8.56,9.23-5.66,9.37-5.41-6.64,5.54-6.54,5.71,8.3-5.11,8.44-4.87-7.2,5.13-7.11,5.29,4.82-3.1,5-2.86-6.12,4.89-6,5.07,7.94-4.83,8-4.65-6.19,5-6.11,5.17,5-3.15,5.14-3-3.44,2.81-3.38,2.9c.14.25,7.6-4.71,7.74-4.47s-11.62,7.33-11.42,7.67c.1.17,9.89-6,10-5.79s-9.42,6.44-9.29,6.65,7.6-4.72,7.74-4.47-8.56,5.22-8.46,5.4,10.16-6.14,10.28-5.94-7.08,5.39-7,5.55,6.18-3.9,6.33-3.65-9.07,5.86-8.94,6.1c.32.56,20.28-12.3,20.54-11.86S352,66,352.3,66.46s22-13.42,22.3-12.87S354.53,66.42,354.8,66.9s18.43-11.15,18.65-10.77-20.11,11-19.79,11.56S374.78,55,375,55.37s-19.57,12-19.29,12.46,16.76-10.21,17-9.81-15.22,10.41-15,10.85,12.52-7.75,12.75-7.36-14.35,9.64-14.17,9.95,15.4-9.3,15.58-9S355.36,73,355.58,73.34s12.89-7.91,13.1-7.56S353.83,74.87,354,75.22s17.39-10.51,17.6-10.16-12.5,8.28-12.34,8.55,10.33-6.38,10.51-6.07S358.14,74.75,358.3,75s7.65-4.72,7.79-4.49-4.85,4.48-4.77,4.62,5.27-3.2,5.34-3.08-5,3.35-5,3.47,3.47-2.11,3.52-2-2.1,1.65-2.06,1.71,5.47-3.23,5.5-3.17-2.05,2.2-2,2.27l.28-.16"/><path class="cls-2" d="M336.56,23.49l.37-.22s-.5,2.24-.47,2.3,3.58-2.17,3.63-2.09-3.75,2.06-3.69,2.16.34-.3.39-.22-3,3-2.92,3,6.16-3.76,6.25-3.61-6.94,5.12-6.82,5.32,9.15-5.56,9.27-5.35S334,31,334.11,31.24s12.07-7.34,12.23-7.06-8.81,6.75-8.69,7,10.87-6.79,11.09-6.4-15,9.3-14.79,9.64,18.73-11.36,19-11c.34.59-20.37,13.13-20.12,13.56s17.3-10.52,17.53-10.12-13.63,9.08-13.41,9.45,14.86-9,15.05-8.69-18.29,11-18,11.55S352.35,28,352.6,28.43s-17.53,10.34-17.3,10.75S351,29.54,351.25,30s-14.9,10.17-14.68,10.54,15.22-9.47,15.51-9S333.46,43.3,333.74,43.79s19.81-12,20.05-11.58c.33.57-19.63,12.06-19.39,12.47s18.15-11,18.37-10.61S337,43.13,337.18,43.45s17-10.38,17.24-10S332.61,46,333,46.64s20.55-12.46,20.81-12S335,46.06,335.25,46.5c.16.27,9.87-6.05,10-5.79s-10.79,7.63-10.65,7.88,9.24-5.75,9.42-5.44-7.31,5.56-7.2,5.75,11-6.73,11.17-6.45-13.7,9.6-13.47,10c.14.24,13.61-8.15,13.74-7.93s-12,6.57-11.81,6.85,10.11-6.23,10.28-5.94-10.83,7.11-10.65,7.43,11.86-7.14,12-6.92S336,54.39,336.24,54.73s11.7-7.14,11.86-6.85c.26.44-15.07,9.81-14.85,10.19s10.14-6.27,10.32-6-8.64,6.85-8.49,7.11,8.78-5.39,8.92-5.15-8.48,5-8.35,5.19,10.11-6.13,10.23-5.91-10.55,6.72-10.39,7,10.36-6.29,10.5-6.06-12.63,7.22-12.47,7.49,12.76-7.69,12.9-7.45-12.07,7.46-11.91,7.74,8.93-5.47,9.07-5.24-9,4.93-8.81,5.19S348,54,348.17,54.28s-14.09,8.4-13.91,8.7,13.36-8.12,13.54-7.82S333.2,64,333.41,64.38,347.8,55.67,348,56s-12.31,8.11-12.15,8.38,11.93-7.25,12.09-7S337,64.89,337.22,65.23s8.3-5.2,8.47-4.89-12.61,7.64-12.4,8,13.62-8.27,13.8-8S335.4,68.61,335.61,69s10.9-6.6,11-6.37-11.44,6.7-11.3,6.95,10.39-6.43,10.58-6.11-9.45,6.6-9.33,6.81,10.53-6.46,10.69-6.17-11.06,6.2-10.91,6.46S345.8,64.72,346,65s-9,5.18-8.84,5.41,10.63-6.51,10.79-6.23S332,74.34,332.26,74.82s15.6-9.33,15.74-9.09-12.42,7.81-12.23,8.13,7.79-4.9,8-4.6-7,4.82-6.88,5,6.77-4.2,6.9-4c0,.05-.67,2.58-.64,2.63s2.77-1.79,2.85-1.65-4.7,4.14-4.64,4.26,5.85-3.46,5.89-3.4S346,74.24,346,74.31s.38-.23.38-.22,2.16-1.23,2.19-1.17l.27-.16"/><path class="cls-2" d="M427.17,61.79l.23-.13s.09,1.11.1,1.13,1-.66,1-.59-1,1.06-1,1.09,4.12-2.48,4.17-2.4-9.51,5.46-9.38,5.68,7.85-4.68,7.91-4.57"/><path class="cls-2" d="M417.87,44.61c.16.28,12.19-7.53,12.4-7.16s-14.88,8.83-14.68,9.18,13.74-8.29,13.9-8-11.12,6.44-11,6.69,11.72-7.17,11.9-6.87-10.7,8-10.52,8.34,11.21-6.8,11.36-6.56-5.13,5-5,5.18,4.52-2.86,4.63-2.67-6.42,5.08-6.33,5.25,10.68-6.49,10.82-6.25S422.62,49,422.82,49.32s12.46-7.53,12.61-7.28-9.81,7.47-9.65,7.73,10.82-6.58,11-6.33-8.17,5-8,5.27,6.85-4.28,7-4-7.94,5.59-7.84,5.76,6.62-4.15,6.76-3.9"/><path class="cls-2" d="M410.8,59.77c.2.34,14.11-8.55,14.28-8.24s-13.8,7.73-13.61,8.07,15.45-9.45,15.68-9.05S410,60.07,410.26,60.49s15.63-9.5,15.84-9.14-12.54,8.68-12.38,9c.25.43,21.94-13.25,22.19-12.81s-22.17,12.72-21.84,13.29c.23.4,23.4-14.13,23.67-13.67.37.65-21.66,12.24-21.37,12.75s20.93-12.79,21.24-12.26-19.34,12.68-19,13.28c.22.38,16.28-9.9,16.5-9.52S423,59.5,423.2,59.87s16.21-9.86,16.43-9.48-13,7.14-12.78,7.52,7.93-5,8.1-4.68-8.43,5.13-8.31,5.33c.21.36,13.23-8.12,13.44-7.76s-11.34,7.28-11.2,7.52,9.53-5.91,9.71-5.6-12,7.2-11.87,7.51,9.82-5.94,9.93-5.74-5.27,3.56-5.2,3.68,8.18-5,8.3-4.79-10,6.34-9.85,6.6,9.57-5.72,9.65-5.57-8.18,5.74-8.08,5.92,4.56-2.78,4.63-2.67,2,.21,2,.26,1.59-1,1.63-.94-4,3.5-4,3.63l1.18-.68"/><path class="cls-2" d="M410,38.55c0,.06,2.42-1.47,2.45-1.42s-7.4,6-7.27,6.23,13.33-8.1,13.5-7.8-13.81,7.52-13.6,7.88,10.14-6.25,10.31-6-14.31,9.13-14.1,9.5,17.41-10.64,17.66-10.2-19.38,11.88-19.08,12.4,20.94-12.76,21.23-12.26-21.31,13.14-21,13.67S424,36,424.32,36.62s-21.51,13.73-21.24,14.2,22.18-13.74,22.58-13-26.73,15.73-26.38,16.33,30-18.3,30.45-17.58c.52.91-32.14,19.61-31.76,20.28.18.31,13.91-8.45,14.09-8.14s-10.1,7.17-9.94,7.45,10.1-6.14,10.23-5.91-13.32,8.34-13.1,8.73,14.4-8.75,14.59-8.42-13.41,8.09-13.23,8.4,12.8-7.86,13-7.51-11.59,8.36-11.41,8.65c.28.48,15-9.32,15.28-8.82s-18.07,11.45-17.8,11.92,21.65-13.11,21.91-12.65c.36.62-21.16,12.9-20.9,13.34s21.47-13,21.73-12.54S403.38,62.17,403.6,62.56c.31.54,20.72-12.65,21-12.14s-25.41,14.44-25,15.19,25.16-15.27,25.48-14.71S402,64.73,402.27,65.27c.14.24,8.83-5.41,9-5.18s-9,6.65-8.9,6.86,7.73-4.82,7.89-4.55-5.06,4.33-5,4.47,9.26-5.65,9.39-5.42-10.71,8-10.53,8.29S415.72,62.8,415.83,63s-9.9,5.44-9.77,5.67,8.13-5,8.26-4.77-8,5.61-7.91,5.85,10-6,10.06-5.81-8.78,6.67-8.63,6.92,10.13-6.18,10.27-5.93-12.3,8.3-12.12,8.61,9.32-5.77,9.49-5.48-5.86,5.34-5.76,5.53c.2.35,10-6.16,10.2-5.89s-9.45,5.49-9.31,5.74,12.8-7.75,13-7.48-12.3,7.67-12.12,8,19.38-11.76,19.63-11.33S409.52,74.73,409.79,75.2,431.6,62,431.86,62.46s-20.44,12-20.17,12.5,18.08-11,18.33-10.58-18.26,10-18,10.47,22.34-13.67,22.68-13.09S412,74.93,412.26,75.41s22.56-13.78,22.89-13.21-22.9,13.35-22.56,13.93,23.49-14.3,23.81-13.74-19.88,12.27-19.64,12.7c.34.59,20.88-12.73,21.17-12.22s-17.45,11.06-17.14,11.58,16.16-10,16.47-9.51S418,76.16,418.31,76.72s19.52-11.89,19.79-11.43S424.46,74.57,424.7,75c.14.24,11-6.67,11.16-6.44s-10.22,6-10.09,6.25,8.57-5.3,8.72-5c.07.11-3.53,2.79-3.48,2.86s1.89-1.17,1.92-1.11"/></g></g></svg>