<svg xmlns="http://www.w3.org/2000/svg" viewBox="0 0 774.82 78.75"><title>资源 9</title><g id="图层_2" data-name="图层 2"><g id="图层_1-2" data-name="图层 1"><path d="M.61,50.73C.52,45,.09,33.07,0,27.41,0,22.28.35,13.32,1.65,8.36a3.48,3.48,0,0,1,1.65-1.3c.52-.17,1.31-.17,1.39.61A100,100,0,0,0,3,24.54c0,2.35,0,7.31.09,9.57.17,5,.61,20.71.7,25.67.09,6.35.09,11.83,1.48,18.18-.17.78-1,.7-1.48.61a2.46,2.46,0,0,1-1.57-1.22C.09,70.31.7,58.74.61,50.73ZM15.4,3.23a26.75,26.75,0,0,0-5.92.35c-1.91.26-3.74.61-5.66,1a1.3,1.3,0,0,1-1.3-.78A1.82,1.82,0,0,1,3,2.27l1.13-.7A26.66,26.66,0,0,1,13.4,0a12.94,12.94,0,0,1,7.13,2.35,1.05,1.05,0,0,1-.35,1.83C18.45,4.62,17.05,3.31,15.4,3.23Z"/><path d="M103.71,34.29c-1.3-.7-2.44-1.57-3.65-2.26C93.7,27.5,88.13,22,82.56,16.63a.87.87,0,0,0-1.31.09c-6.87,10.44-13.49,21.06-21.49,31-.78.61-1.39,1.3-2.18,1.83a2.76,2.76,0,0,1-2.7.61,1.06,1.06,0,0,1-.52-1,4.6,4.6,0,0,1-.09-1.13,5.51,5.51,0,0,1,.35-1.83c.61-.35.87.35,1.13.35a1.79,1.79,0,0,0,1.83-.7c5.31-6.61,17.31-24.71,22.19-31.84a6.07,6.07,0,0,1,5.13-2.87,3.65,3.65,0,0,1,2.44.87c.44.52.7,1.31-.17,1.74-.78,0-1.57-.09-2.26-.09a2.54,2.54,0,0,0-1.39.61,46.27,46.27,0,0,1,5,4.35c1.74,1.65,3.39,3.31,5.22,4.79,2.35,1.91,4.7,4,7.13,5.83A20.21,20.21,0,0,0,108.66,33c1.57,1,.44,2-.61,2.26A9.12,9.12,0,0,1,103.71,34.29ZM96,62.65a2.94,2.94,0,0,0-1,.35A130.13,130.13,0,0,0,79,68c-.61-.09-1.57-.44-1.57-1.39a2.08,2.08,0,0,1,.44-1.22A34.42,34.42,0,0,1,72,56a16.74,16.74,0,0,1-1.22-5.48c-.17-3.48,2.09-4.87,4.61-5.92l2.61-1a8.83,8.83,0,0,0,2.35-1.39A77.25,77.25,0,0,0,89,36.46c.35-.44-.17-.7-.52-.7a5.16,5.16,0,0,0-2,0L84.3,36a57,57,0,0,0-9.92,2.44,2.25,2.25,0,0,1-2-1,1.55,1.55,0,0,1,.7-1.48l.44-.26C78.73,34.2,84,32.55,89.7,33.16A4,4,0,0,1,92,34.72a8.57,8.57,0,0,1,.17,1.48,1.59,1.59,0,0,1-.52,1.39,115.55,115.55,0,0,1-16.44,9.57c-1.48,1-1.65,2.87-1.39,4.44.26,1,.61,2,.87,2.7,3.31-2.61,7.48-3.92,11.57-4.87A21.23,21.23,0,0,1,93,48.82a8.27,8.27,0,0,1,4.52,1.74,3.38,3.38,0,0,1,.44,3c-.7,2.35-3.22,3.83-5,5.31-1.31,1-2.7,1.91-4.09,2.87l3.48-1a30.35,30.35,0,0,1,4.87-1,3,3,0,0,1,1.65,1.13,1.77,1.77,0,0,1-1.74,1.65A6.17,6.17,0,0,1,96,62.65ZM93,51.86a30.34,30.34,0,0,0-7.48.61,32.57,32.57,0,0,0-9.92,4,32.33,32.33,0,0,0,4.7,7.74,64,64,0,0,0,12.79-9c.43-.43.87-.78,1.3-1.3a2,2,0,0,0,.44-1.39.86.86,0,0,0-.61-.61A6.17,6.17,0,0,0,93,51.86Z"/><path d="M132.32,57a48.69,48.69,0,0,1-10.27,5.48c-1,.35-2.44.35-2.87-.87a1.81,1.81,0,0,1,1-1.48,40.68,40.68,0,0,0,10.61-5.39,82.17,82.17,0,0,0,11.66-9.83c.52-.26,1.31-.44,1.65.17a5.59,5.59,0,0,1-1.74,3.39A61.21,61.21,0,0,1,132.32,57ZM124,50.47a2.73,2.73,0,0,1-.44-2.78,52.92,52.92,0,0,1,8.18-12.62c.09-.09-.17-.43-.17-.43a13.92,13.92,0,0,1-4.61,1.65,7.1,7.1,0,0,1-4-.35,1.93,1.93,0,0,1-.87-1.74,17.09,17.09,0,0,1,3.92-6,62.66,62.66,0,0,1,6.7-5.92,3.21,3.21,0,0,1,2.7-.78c1.22.26,1.39,1.48.61,1.83a41,41,0,0,0-10.7,10.09c-.09.09.09.61.17.52a28.52,28.52,0,0,0,8.18-2.87,2.41,2.41,0,0,1,2.44,1.13,2,2,0,0,1-.7,2.09c-4.52,5.57-6.87,9.14-8.79,13-.09.09.17.35.35.35,4.7-2.87,8.53-6.53,13.31-10.79a3.78,3.78,0,0,1,2.18-.43c.7.35.44,1.22.17,1.57-5.74,5.57-10.44,9.66-16.53,12.79A2.89,2.89,0,0,1,124,50.47Zm29.15,24.8a12.45,12.45,0,0,1-11.22-.09c-2.52-2.09-4.09-5.22-3.13-8.44.35-.87,1.48-.7,1.83.35.26,2.61,1,5.31,3.39,6.18a9.68,9.68,0,0,0,6.44.26,16.45,16.45,0,0,0,8.18-5.83A27.09,27.09,0,0,0,164,55.52a53.61,53.61,0,0,0,.26-16.27c-.44-1.74-.7-3.83-1.83-5.31a4.39,4.39,0,0,0-2.78-1.74,10.08,10.08,0,0,0-5.57.87,10.5,10.5,0,0,0-2.44,1.57,16.91,16.91,0,0,1-2.44,1.91,1.22,1.22,0,0,1-1.83-.87c-.17-1.48,1-2.87,1.83-4,2.18-2.7,4.87-5.83,6.7-8.44a27.71,27.71,0,0,0-5,2l-5.39,3c-1.13.61-2.44-1.39-1.65-2.26,1.74-1.3,3.48-2.61,5.13-4a42.51,42.51,0,0,0,4.61-4.18,28.27,28.27,0,0,0,5.22-7.13c.17-.52.09-1.48-.44-1.57a3.65,3.65,0,0,0-2.7.35,9.21,9.21,0,0,0-2.26,1.48l-2.17,1.83c-.52.35-1.22-.35-1.13-.78.35-2.09,2.26-3.74,4-4.79,2.7-1.74,5.57-1.3,6.87.26,1.13,1.39,1.22,3.39-.35,5.74a40.87,40.87,0,0,1-8.61,8.7c-.09.09.17.43.26.35a17.46,17.46,0,0,1,4-1.57c1.22-.26,2.17-.78,3.48-.35a1.39,1.39,0,0,1,.35,1.91c-2.09,2.87-4.79,5.66-6.87,8.61a9.61,9.61,0,0,1,4.35-1.48,8.57,8.57,0,0,1,6.53,2.35,10.36,10.36,0,0,1,2.78,6.18,58.92,58.92,0,0,1,0,17.49,29.81,29.81,0,0,1-5.57,13.31A22.89,22.89,0,0,1,153.12,75.27Zm-5.66-56.9a12.41,12.41,0,0,0,.26,1.39,2,2,0,0,1-.26,1.57,1.92,1.92,0,0,1-2.35-1.3,10.26,10.26,0,0,1-.35-3.65c.09-1.22.35-2.52.44-3.65.17-1.39.52-2.78.78-4.18a14.31,14.31,0,0,0,.26-4.35,1.36,1.36,0,0,1,2.18.52c.78,1.3.44,3.22.26,4.61s-.61,3-.87,4.52A11.42,11.42,0,0,0,147.46,18.37Zm13.66,36.11c-2,2.52-3.83,5-6.79,6.7-1.48.87-2.35-1.39-2-2.61a25.79,25.79,0,0,1,1.74-4.26,15.23,15.23,0,0,0,1.57-4.18c.09-.26-.44-.26-.52-.17-2.35,2.09-5,4.61-7.83,5.74a2,2,0,0,1-2.44-1.3c-.52-2.17.87-3.92,1.74-5.66a26.88,26.88,0,0,1,2.78-4.44A30.25,30.25,0,0,0,152,40.12c-.26-.87.35-1.91,1.31-1.57a2.71,2.71,0,0,1,1,1.48c-.09,2.35-1.48,4.35-2.87,6.18-.87,1.13-1.57,2-2.17,3a13.93,13.93,0,0,0-1.31,3s.44.43.78.17c1.31-1,2.44-2.09,3.74-3a23.15,23.15,0,0,1,4.18-2.78c1.13-.61,1.91.87,2,1.57a12.31,12.31,0,0,1-1,4.26l-1.31,3.83a42.87,42.87,0,0,0,6.09-8.09c.61-.26,1.13.78,1.13,1.13a6.62,6.62,0,0,1-1,2.87C162.17,52.91,161.73,53.69,161.12,54.47Zm21.84,1a23.48,23.48,0,0,1-9.22-4.79,11,11,0,0,1-3.83-6.61,22.58,22.58,0,0,1,.52-4.87A40.42,40.42,0,0,1,173,31.94c.17-.35,0-.87.17-1.22a1.12,1.12,0,0,1,1-1,1.77,1.77,0,0,1,.78.52l.52.7a4.47,4.47,0,0,1-.26,3.39l-1.65,3.83a14.33,14.33,0,0,0-1,3.92,5.85,5.85,0,0,0,1,4.79,16.18,16.18,0,0,0,5,3.92,55,55,0,0,0,5.74,2.52,1.68,1.68,0,0,1,.78,2.09,1.39,1.39,0,0,1-1.13.26C183.75,55.6,183.31,55.52,183,55.52Z"/><path d="M238.73,68c-.78.61-1.65,1.13-2.26,1.65a54,54,0,0,1-11.75,5.13A52,52,0,0,1,211.32,77a13.07,13.07,0,0,1-7-1.65A8.57,8.57,0,0,1,200.71,71c-.09-.87.78-1.13,1.39-.7l.78,1a3.9,3.9,0,0,0,.78.87,12.7,12.7,0,0,0,7.13,2.09,33.16,33.16,0,0,0,6.53-.61c2.18-.44,4.26-1,6.09-1.39A76.1,76.1,0,0,0,233,68.31,29.36,29.36,0,0,0,240.47,63c1-1,.7-2.7.52-3.92a105.18,105.18,0,0,1-.09-24.54,102.56,102.56,0,0,0-7.74,7.4c-2.61,2.78-5.13,5.66-7.66,8.44a6.12,6.12,0,0,0-.78.52l-.61.35a2,2,0,0,1-1.74.09C221.06,50.56,221,49.43,221,48c.35-1.65,1.39-5.74,1.57-6.35a19.07,19.07,0,0,0-1.83,1.91c-.61.61-1.13,1.31-1.74,2a15.59,15.59,0,0,1-3.92,3.57,2.49,2.49,0,0,1-1.91-.52,6.49,6.49,0,0,1-1.3-2.7,18.63,18.63,0,0,0-.52-2.35,29,29,0,0,1,.35-8.27c-4.35,1.57-8.79,3.57-13.31,5.22-1.39.09-3,.09-4.09-1.3.35-.7,1.48-1,2.44-1.31s2.18-.52,2.7-.78c4.35-1.65,12.35-5,17.23-6.7C220.89,29,229,26.11,233,24.72c.61-.09,1.3-.43,2-.52a2,2,0,0,1,2.17.7,1.94,1.94,0,0,1-1.57,1.74c-7,2.44-13.92,4.7-20.79,7.4a33.42,33.42,0,0,0,0,11.4.57.57,0,0,0,.87.35c2.44-1.91,4.09-4.35,6.18-6.61a12.13,12.13,0,0,1,2.18-2c.52-.26,1.48-.43,1.83.09a2.55,2.55,0,0,1,.35,2.09A46.3,46.3,0,0,0,224,47.95S234.9,36.38,240.55,31.5a2.34,2.34,0,0,0,.61-.7c.61-.87,1.22-1.74,2.44-1.74,1.13,1.48.43,2.87.17,4.35a7.5,7.5,0,0,0-.09,1.39,121.29,121.29,0,0,0,.44,26.36,6.34,6.34,0,0,1-2.87,5A16.26,16.26,0,0,1,238.73,68Zm-3.22-45.33A49.47,49.47,0,0,1,227.68,19c-1.65-.87-3.39-1.83-5.13-2.61a23.08,23.08,0,0,0-7.4-1.83l-8,9.75a56.79,56.79,0,0,1-9.22,9l-.78.44a3.64,3.64,0,0,1-.87.35c-1,.17-1.57-.61-1.13-1.3a109.32,109.32,0,0,0,9.31-9.75c2.7-3.22,5.39-6.44,8-9.66a70.43,70.43,0,0,0-7,1.91,2.93,2.93,0,0,1-2.61-1.22c-.26-.7.44-1.13.87-1.39,3-.78,8.79-2.09,11.66-2.78,1-1.13,2-2.44,3-3.65A17.86,17.86,0,0,1,222,3.14a3.7,3.7,0,0,1,3-.44c1.65,1,4.44,2.87,6.18,3.92a1.75,1.75,0,0,1,.61,1.57,2.33,2.33,0,0,1-1.39,1.48A133,133,0,0,0,217,12.19l-.26.43a38.69,38.69,0,0,1,10.53,3.22,103.84,103.84,0,0,0,10.44,4.79,1.29,1.29,0,0,1-.09,1.57A2.08,2.08,0,0,1,235.51,22.63ZM220.2,8.71c2.52-.52,5-1,7.66-1.39A6.68,6.68,0,0,0,223.5,5.4,17,17,0,0,0,220.2,8.71Z"/><path d="M270.66,57a48.7,48.7,0,0,1-10.27,5.48c-1,.35-2.44.35-2.87-.87a1.81,1.81,0,0,1,1-1.48,40.67,40.67,0,0,0,10.62-5.39,82.17,82.17,0,0,0,11.66-9.83c.52-.26,1.31-.44,1.65.17a5.58,5.58,0,0,1-1.74,3.39A61.22,61.22,0,0,1,270.66,57Zm-8.35-6.53a2.73,2.73,0,0,1-.44-2.78A52.94,52.94,0,0,1,270,35.07c.09-.09-.17-.43-.17-.43a13.93,13.93,0,0,1-4.61,1.65,7.1,7.1,0,0,1-4-.35,1.93,1.93,0,0,1-.87-1.74,17.08,17.08,0,0,1,3.92-6,62.56,62.56,0,0,1,6.7-5.92,3.21,3.21,0,0,1,2.7-.78c1.22.26,1.39,1.48.61,1.83a41,41,0,0,0-10.7,10.09c-.09.09.09.61.17.52A28.53,28.53,0,0,0,272,31.07a2.41,2.41,0,0,1,2.44,1.13,2,2,0,0,1-.7,2.09c-4.52,5.57-6.87,9.14-8.79,13-.09.09.17.35.35.35,4.7-2.87,8.53-6.53,13.31-10.79a3.78,3.78,0,0,1,2.17-.43c.7.35.44,1.22.17,1.57-5.74,5.57-10.44,9.66-16.53,12.79A2.89,2.89,0,0,1,262.3,50.47Zm29.15,24.8a12.45,12.45,0,0,1-11.22-.09c-2.52-2.09-4.09-5.22-3.13-8.44.35-.87,1.48-.7,1.83.35.26,2.61,1,5.31,3.39,6.18a9.68,9.68,0,0,0,6.44.26,16.45,16.45,0,0,0,8.18-5.83,27.09,27.09,0,0,0,5.39-12.18,53.61,53.61,0,0,0,.26-16.27c-.44-1.74-.7-3.83-1.83-5.31A4.39,4.39,0,0,0,298,32.2a10.08,10.08,0,0,0-5.57.87A10.52,10.52,0,0,0,290,34.64a16.9,16.9,0,0,1-2.44,1.91,1.22,1.22,0,0,1-1.83-.87c-.17-1.48,1-2.87,1.83-4,2.17-2.7,4.87-5.83,6.7-8.44a27.73,27.73,0,0,0-5,2l-5.39,3c-1.13.61-2.44-1.39-1.65-2.26,1.74-1.3,3.48-2.61,5.13-4a42.42,42.42,0,0,0,4.61-4.18,28.25,28.25,0,0,0,5.22-7.13c.17-.52.09-1.48-.43-1.57a3.65,3.65,0,0,0-2.7.35,9.21,9.21,0,0,0-2.26,1.48l-2.17,1.83c-.52.35-1.22-.35-1.13-.78.35-2.09,2.26-3.74,4-4.79,2.7-1.74,5.57-1.3,6.87.26,1.13,1.39,1.22,3.39-.35,5.74a40.86,40.86,0,0,1-8.61,8.7c-.09.09.17.43.26.35a17.45,17.45,0,0,1,4-1.57c1.22-.26,2.18-.78,3.48-.35a1.39,1.39,0,0,1,.35,1.91c-2.09,2.87-4.79,5.66-6.87,8.61a9.61,9.61,0,0,1,4.35-1.48,8.57,8.57,0,0,1,6.53,2.35,10.36,10.36,0,0,1,2.78,6.18,58.91,58.91,0,0,1,0,17.49,29.81,29.81,0,0,1-5.57,13.31A22.88,22.88,0,0,1,291.45,75.27Zm-5.66-56.9a12.41,12.41,0,0,0,.26,1.39,2,2,0,0,1-.26,1.57,1.92,1.92,0,0,1-2.35-1.3,10.27,10.27,0,0,1-.35-3.65c.09-1.22.35-2.52.43-3.65.17-1.39.52-2.78.78-4.18a14.3,14.3,0,0,0,.26-4.35,1.36,1.36,0,0,1,2.17.52c.78,1.3.43,3.22.26,4.61s-.61,3-.87,4.52A11.43,11.43,0,0,0,285.79,18.37Zm13.66,36.11c-2,2.52-3.83,5-6.79,6.7-1.48.87-2.35-1.39-2-2.61a25.71,25.71,0,0,1,1.74-4.26A15.24,15.24,0,0,0,294,50.12c.09-.26-.44-.26-.52-.17-2.35,2.09-5,4.61-7.83,5.74a2,2,0,0,1-2.44-1.3c-.52-2.17.87-3.92,1.74-5.66a26.91,26.91,0,0,1,2.78-4.44,30.3,30.3,0,0,0,2.61-4.18c-.26-.87.35-1.91,1.3-1.57a2.7,2.7,0,0,1,1,1.48c-.09,2.35-1.48,4.35-2.87,6.18-.87,1.13-1.57,2-2.17,3a14,14,0,0,0-1.31,3s.44.43.78.17c1.31-1,2.44-2.09,3.74-3A23.19,23.19,0,0,1,295,46.56c1.13-.61,1.91.87,2,1.57a12.32,12.32,0,0,1-1,4.26l-1.31,3.83a42.87,42.87,0,0,0,6.09-8.09c.61-.26,1.13.78,1.13,1.13a6.61,6.61,0,0,1-1,2.87C300.5,52.91,300.06,53.69,299.45,54.47Zm21.84,1a23.48,23.48,0,0,1-9.22-4.79,11,11,0,0,1-3.83-6.61,22.55,22.55,0,0,1,.52-4.87,40.39,40.39,0,0,1,2.61-7.31c.17-.35,0-.87.17-1.22a1.12,1.12,0,0,1,1-1,1.78,1.78,0,0,1,.78.52l.52.7a4.47,4.47,0,0,1-.26,3.39L312,38.12A14.31,14.31,0,0,0,311,42a5.85,5.85,0,0,0,1,4.79,16.19,16.19,0,0,0,5,3.92,55.08,55.08,0,0,0,5.74,2.52,1.68,1.68,0,0,1,.78,2.09,1.39,1.39,0,0,1-1.13.26C322.08,55.6,321.64,55.52,321.29,55.52Z"/><path d="M368.18,51.08c1.74-3,4.87-10.27,4.44-13.66a15.82,15.82,0,0,1-2.78.26,2.23,2.23,0,0,1-2-2.09A5.77,5.77,0,0,1,369,31.85a4.07,4.07,0,0,1,2.78-1.65c2.78-.35,4.18,2.09,4.26,4.52.17,4.87-2.61,11.83-6.87,17A.68.68,0,0,1,368.18,51.08Z"/><path d="M463.45,35.94c-5.48,1-17.31,3.22-22.79,4.18C437,40.73,430,41.6,425,42.47c-1.31-.09-3-.35-3.48-1.91-.35-1,.78-1.57,1.39-1.83,2.35-1.13,5-.09,7.4-.52,9.75-.7,19-2.87,28.1-5,.78-.17,1.57-.52,2.44-.7a4.48,4.48,0,0,1,2.61-.17A3.22,3.22,0,0,1,465,33.77a1.13,1.13,0,0,1-.17,1.48A5.19,5.19,0,0,1,463.45,35.94Z"/><path d="M534.79,41.25c0,6.35.78,12.88.52,19.05a8.92,8.92,0,0,1-2.87,5.83,15,15,0,0,1-8.79,4.26,10.66,10.66,0,0,1-9.14-3.92c-1-1.65-1.83-3-1.74-5a.72.72,0,0,1,1.31-.17A11.08,11.08,0,0,0,517.39,66a7.33,7.33,0,0,0,6,1.74,13,13,0,0,0,5.92-2.61,8.31,8.31,0,0,0,3.13-4.35c.44-5.74-.43-12-.52-17.75A41.4,41.4,0,0,0,526.61,47l-5.39,4.44-.61,10.7c0,.61-.52,1.74-1.31,1.65-1,.09-1.3-1-1.3-1.57a155.11,155.11,0,0,0,.35-18c-1.13,3.13-2.26,6.35-3.57,9.31a36.91,36.91,0,0,1-6,9.31,4.21,4.21,0,0,1-3.92,1,25.7,25.7,0,0,1-5.57-3.22,21.57,21.57,0,0,0-3.83-2.35,63.46,63.46,0,0,1-12.18,7.92l-1.31.35a2.94,2.94,0,0,1-1.48-.09c-.09-.78.43-1.13,1-1.39l.35-.26c3.39-2.52,7.22-4.18,10.35-7.13a3.66,3.66,0,0,1-1.91-.26,1.23,1.23,0,0,1,.78-1.3,2.91,2.91,0,0,1,1-.44c1-.09,1.91-.26,2.61-.26a36.5,36.5,0,0,0,5.31-5.74.6.6,0,0,0-.44-.87c-2.78-.09-5.22.87-7.66,1.74a50,50,0,0,0-10.79,5.39,14.56,14.56,0,0,0-1.74,1.3,10.36,10.36,0,0,1-1.65,1.39,2.3,2.3,0,0,1-2-.35c-.61-.43-.26-1.22,0-1.65a52.89,52.89,0,0,1,11.66-7.22c.26-5.57.43-13.31.52-18.45a12.44,12.44,0,0,0-1.48,1c-1.22.78-2-1-1.57-1.65.87-.78,2.26-2,3.13-2.61.17-2.44.09-5,.43-7.4a16.43,16.43,0,0,0-4,1.74,15.94,15.94,0,0,0-3.92,2.78,5.56,5.56,0,0,1-1.22.87,1.83,1.83,0,0,1-1.74-.35,1.07,1.07,0,0,1-.17-1.39,27.24,27.24,0,0,1,5.31-4.09,62.87,62.87,0,0,1,5.92-2.61c.17-2.61.35-5.74,1.65-8.27a1.07,1.07,0,0,1,1.13-.7c.44,0,.78.17,1.22.17l1.91,1.3a3,3,0,0,1,1.3,2,1.75,1.75,0,0,1-1.74-.09c-1-.52-1.39-.61-1.65-.43s-.35.52-.52,1l-.52,4a56.11,56.11,0,0,1,7.48-2.09,10,10,0,0,1,.09-1.57,1.12,1.12,0,0,1,1.39-.26,3.72,3.72,0,0,1,1.22,1.39,9.57,9.57,0,0,0,2.18-.17c.87-.09,1.83-.26,2.7-.26a4.49,4.49,0,0,1,3.39,1.13.86.86,0,0,1-.43,1.3,22.87,22.87,0,0,0-7.4.52,108,108,0,0,1,.7,11.83,48.06,48.06,0,0,1-2.35,14.62c-.26.26-.52,1-1,1.48a1.52,1.52,0,0,1-1.57.44c.26-2.78,1.22-5.13,1.39-7.83a15.71,15.71,0,0,0-4.52,1.13,17.33,17.33,0,0,0-4.35,2.7c-.09,2.52-.09,5.13-.35,7.57a53.71,53.71,0,0,1,5.66-1.48,15.5,15.5,0,0,1,5.31,0A2.59,2.59,0,0,1,502.6,48a3.17,3.17,0,0,1-.61,3.48,31.83,31.83,0,0,1-2.35,2.61l-2.17,2.17a25,25,0,0,1,4.18,2.44A19.26,19.26,0,0,0,506,61.09a3,3,0,0,0,2.61-1.74,85.79,85.79,0,0,0,4.7-7.92,86.62,86.62,0,0,0,5-12.62v-1a4.83,4.83,0,0,0-1.65,1,6.92,6.92,0,0,1-2,1.57c-.35.26-1-.35-1-.87A8.42,8.42,0,0,1,518.34,35l.44-6.7a45.65,45.65,0,0,1,1-6.79,11.82,11.82,0,0,0,.61-1.57,3.61,3.61,0,0,1,1.22-1.39,2.83,2.83,0,0,1,2.52,1l.52.52c.44.44-.09,1.31-1,1.31-.61.09-1.22.87-1.48,1.39a63.76,63.76,0,0,0-1.13,11.31,14,14,0,0,1,4.7-.35,5,5,0,0,1,3.31,1.65,3.68,3.68,0,0,1,1,3.74,16.76,16.76,0,0,1-3.48,5.13,67.33,67.33,0,0,0,5.31-4.35c-.17-6.79-.44-13.57-.09-20a1.88,1.88,0,0,0-1.31-1.57,2,2,0,0,0-1.22.09,1.8,1.8,0,0,1-1.57-.26,5.32,5.32,0,0,1,2.44-2.7,5.33,5.33,0,0,1,4,2.52c.17.7.35,1.83.44,2.44a155.23,155.23,0,0,0,.09,18,23.87,23.87,0,0,1,4.87-2c.61,0,1.65.61,1,1.57a13,13,0,0,1-2.78,1.65C536.7,40.2,535.66,40.73,534.79,41.25Zm-44-12.09c0,1.74-.09,4.7-.17,7.13A22,22,0,0,0,494.07,32a11.65,11.65,0,0,0,1.39-3.22c.17-.52-.09-1-.61-1A11.26,11.26,0,0,0,490.76,29.15Zm.61-10.09c-.17,2.44-.43,5-.43,7.13a29.13,29.13,0,0,1,3-.78,3.75,3.75,0,0,1,2.7.35,2.81,2.81,0,0,1,1.57,2.52,15.94,15.94,0,0,1-4.09,7.4,15,15,0,0,1,5.57-1.39,83.09,83.09,0,0,0-.35-17.4A44.7,44.7,0,0,0,491.37,19.06ZM521,36.9l.26,10.35L524.17,44c.87-1,3-3.83,3.31-5a2,2,0,0,0-1.57-2.61A8.43,8.43,0,0,0,521,36.9Z"/><path d="M591.34,35.94c-5.48,1-17.31,3.22-22.79,4.18-3.65.61-10.62,1.48-15.66,2.35-1.31-.09-3-.35-3.48-1.91-.35-1,.78-1.57,1.39-1.83,2.35-1.13,5-.09,7.4-.52,9.75-.7,19-2.87,28.1-5,.78-.17,1.57-.52,2.44-.7a4.48,4.48,0,0,1,2.61-.17,3.22,3.22,0,0,1,1.57,1.48,1.13,1.13,0,0,1-.17,1.48A5.19,5.19,0,0,1,591.34,35.94Z"/><path d="M627.79,18.89a19.92,19.92,0,0,0-5.66,6.44c-1.57,2.61-2.87,5.39-4.44,8-1.57,2.78-3.39,5.39-5.13,8.09-1.48,2.35-3.13,4.7-5.66,6.18-.52.35-1.48-.26-1.13-.87,3-4.18,5.48-8.27,8-12.53,2.18-3.83,4.26-7.74,6.53-11.66l2.52-3.22A12.53,12.53,0,0,1,626,16.45a6.74,6.74,0,0,1,4.35-1.22,1.07,1.07,0,0,1,.35,1.65Zm20.36,42a34.94,34.94,0,0,0-2.44-4.35,35.18,35.18,0,0,1-6.53,6,34.66,34.66,0,0,1-10.35,5c-1.31,0-2.44.52-3.65-.17a2.71,2.71,0,0,1-.78-2.26,106.85,106.85,0,0,1,12.44-18.62c-2.52.87-4.79,1.83-7.22,2.87a104.75,104.75,0,0,0-11,6.09,3.51,3.51,0,0,1-3-.17,1.39,1.39,0,0,1,.17-1.3c3.31-2.18,6.61-4.18,10-6a51.13,51.13,0,0,1,11.66-4.44,3.28,3.28,0,0,1,3.31,1.65,5.86,5.86,0,0,1-1.57,3.39c-.61,1-1.65,1.91-2.35,2.87A113.15,113.15,0,0,0,628,64.39c-.09.35.26.52.35.43a33.17,33.17,0,0,0,10.35-5.22,46.68,46.68,0,0,0,6.87-6.87A2.32,2.32,0,0,1,648,54.3c1.57,3,3.48,7,4.7,10.18,0,.61-.61,1.57-1.57,1A18.83,18.83,0,0,1,648.15,60.91Zm-16.79-24.1a20.57,20.57,0,0,1-6.7,1.83l-1-.17a1.2,1.2,0,0,1-.7-1,1.22,1.22,0,0,1,1.31-1.57,10.31,10.31,0,0,0,3.65-1c2.09-.7,4-1.91,6.09-2.52a9.86,9.86,0,0,1,4.26-.26c1.22.78,1,2.52-.44,2.52A27.85,27.85,0,0,0,631.35,36.81Zm.7-23.67c-1.22-.87-2.7-.35-3.92.26a9.42,9.42,0,0,0-1.31.7A.91.91,0,0,1,626,12.8c.87-1.65,3-2.52,4.35-2.78,1.65-.26,2.78.52,4.18,1.31,5.92,4.35,12.09,8.18,18,12.44.44.43,1,.87.7,1.57a2,2,0,0,1-2.44.52C644.49,21.85,638.23,17.5,632.05,13.15Z"/><path d="M701.91,50.21a6.65,6.65,0,0,1-4.52-3.31c-2-5.39.26-10.53,4.44-14a12.54,12.54,0,0,1,4.61-2.52,2,2,0,0,1,1.39.52,6.42,6.42,0,0,1,4.26,3.39c2.35,4.44,1,10.18-2.61,13.49A8.89,8.89,0,0,1,701.91,50.21Zm4.61-17.05c-.52.35-1.13.61-1.48.87-4,2.7-6.18,6.87-5,11.57a2.74,2.74,0,0,0,2.35,1.74C706.09,48,709,45,710,41.42a11,11,0,0,0,.09-4.79,5.19,5.19,0,0,0-2.7-3.22A.76.76,0,0,0,706.52,33.16Z"/><path d="M759.42,75.53a26.69,26.69,0,0,0,5.92-.35c1.91-.26,3.74-.61,5.66-1a1.3,1.3,0,0,1,1.31.78,1.82,1.82,0,0,1-.52,1.57l-1.13.7a26.67,26.67,0,0,1-9.22,1.57,12.94,12.94,0,0,1-7.13-2.35,1.05,1.05,0,0,1,.35-1.83C756.37,74.14,757.76,75.44,759.42,75.53ZM774.21,28c.09,5.74.52,17.66.61,23.32,0,5.13-.35,14.09-1.65,19.05a3.49,3.49,0,0,1-1.65,1.31c-.52.17-1.3.17-1.39-.61a100,100,0,0,0,1.74-16.88c0-2.35,0-7.31-.09-9.57-.17-5-.61-20.71-.7-25.67C771,12.62,771,7.14,769.6.79c.17-.78,1-.7,1.48-.61a2.46,2.46,0,0,1,1.57,1.22C774.73,8.45,774.12,20,774.21,28Z"/></g></g></svg>