<svg xmlns="http://www.w3.org/2000/svg" viewBox="0 0 547 547"><defs><style>.cls-1{fill:#fff;}.cls-2{fill:none;}</style></defs><title>资源 8</title><g id="图层_2" data-name="图层 2"><g id="图层_1-2" data-name="图层 1"><circle class="cls-1" cx="136.03" cy="136.06" r="90.71"/><path class="cls-1" d="M416.73,320.46l-94.28,70.66A91,91,0,0,0,320.26,411c0,.59,0,1.18,0,1.78l117.88-88.34A90.4,90.4,0,0,0,416.73,320.46Z"/><path class="cls-1" d="M486.64,360.94,341.71,469.56a91.27,91.27,0,0,0,11.52,11.39L494.35,375.19A90.5,90.5,0,0,0,486.64,360.94Z"/><path class="cls-1" d="M463.07,336.71a90.58,90.58,0,0,0-15.21-8.63l-126.79,95a90.15,90.15,0,0,0,4,17Z"/><path class="cls-1" d="M501.68,411.59,386.06,498.23a90.63,90.63,0,0,0,22.16,3.42l90.58-67.88A90.84,90.84,0,0,0,501.68,411.59Z"/><path class="cls-1" d="M481.46,353.89a91.26,91.26,0,0,0-11.24-11.6L328.39,448.58a90.58,90.58,0,0,0,8,14Z"/><path class="cls-1" d="M424,500.76a90.81,90.81,0,0,0,69.51-52.09Z"/><path class="cls-1" d="M401.77,320.73a90.79,90.79,0,0,0-74.85,56.1Z"/><path class="cls-1" d="M501.14,401.05a90.24,90.24,0,0,0-3.62-17.31l-137,102.65a90.48,90.48,0,0,0,15.57,8.36Z"/><rect class="cls-2" x="45.32" y="45.34" width="455.83" height="455.83"/><rect class="cls-2" width="547" height="547"/></g></g></svg>