<svg xmlns="http://www.w3.org/2000/svg" viewBox="0 0 360.35 360.35"><defs><style>.cls-1{fill:none;}.cls-2{fill:#323539;}</style></defs><title>资源 48</title><g id="图层_2" data-name="图层 2"><g id="图层_1-2" data-name="图层 1"><rect class="cls-1" width="360.35" height="360.35"/><path class="cls-2" d="M.37,167.59H46.11a1161.87,1161.87,0,0,0,49.83-118L156.56,74c-1.49,3.38-4.46,5.26-10,5.26a27.85,27.85,0,0,1-5.58-.38c-18.59,25.17-48.34,59.37-78.09,88.68l45.37-1.13a88.18,88.18,0,0,0-9.67-24.8l3.35-1.88c29.38,9.77,45.37,22.17,52.43,33.82,41.28,10.52,55,28.56,55,43.59,0,14.28-13,26.3-26.77,26.3-7.07,0-14.5-3.38-20.45-11.65A80.43,80.43,0,0,0,164,215.31a74.91,74.91,0,0,0-5.21-27.43h-.37c.74,15.41-12.27,27.43-26,27.43-7.44,0-14.87-3.38-20.82-11.65a58.76,58.76,0,0,0,.37-8.27,90.43,90.43,0,0,0-1.49-17.28l-6.32,2.25v43.21l3-1.5c37.56,14.65,49.83,33.44,49.83,48.1a22.94,22.94,0,0,1-1.49,9c17.11-7.52,38.3-17.29,59.5-27.43V147.67H136.48l-1.49-6H255.85V90.18h-93l-1.86-6h94.83V33.07H158.79l-1.86-6h94.46L271.84,0l53.55,37.58c-2.6,3.38-8.18,6.76-17.48,8.64v89.05L325,102.2l35.33,40.21c-3,4.13-8.55,5.26-18.59,5.26H266.63c0,26.68,19,66.51,21.94,71.77,6.32-18.79,12.27-40.58,14.87-52.6l54.29,29.68c-1.49,2.63-3.72,4.13-7.81,4.13a29,29,0,0,1-5.21-.75c-10.41,8.27-29.75,21.42-48.34,32.31,17.48,26.3,39.79,42.08,62.85,52.6l-1.12,3.76c-19.71,6-35.33,25.93-40.91,51.85C287.46,305.86,274.44,266.78,267,198h-.37V306.24c0,30.81-7.07,50.73-56.52,54.11,0-30.06-2.6-41.71-25.66-44.71v-4.51h27.89c1.86,0,2.6-1.88,2.6-5.64V260.77c-8.93,15.41-22.31,36.82-41.28,63.88-.74,5.26-3.35,9.77-7.07,12l-36.07-42.08c-6.32-.38-12.27-4.13-17.11-11.27a79.32,79.32,0,0,0,.37-9.39c0-17.29-3.72-36.45-9.67-49.22V346.44c0,2.63-14.88,13.15-39.42,13.15H55.78V245.74c-11.16,36.82-27.89,67.64-50.57,86l-5.21-3c9.3-24.42,15.25-66.51,16.36-106l39.42,7.89V198c-8.93,3-18.59,6.39-29,9.77-2.6,4.88-7.07,7.89-11.16,8.27L.37,167.59M3.72,66.88a144.49,144.49,0,0,1,32.35,8.27c5.21-20.29,10.41-48.47,14.5-73.27l63.22,20.67c-1.49,4.88-5.58,7.51-15.25,7.51C83.3,49.22,65.82,67.64,48.72,81.54,61,89.43,65.45,98.82,65.45,107.47c0,13.15-11.53,24.42-24.17,24.42-6.32,0-12.64-2.63-18.22-9C21.57,104.46,12.64,82.29,1.12,69.14Z"/></g></g></svg>