<svg xmlns="http://www.w3.org/2000/svg" viewBox="0 0 271.46 271.46"><defs><style>.cls-1{fill:none;}.cls-2{fill:#323539;}</style></defs><title>资源 37</title><g id="图层_2" data-name="图层 2"><g id="图层_1-2" data-name="图层 1"><rect class="cls-1" width="271.46" height="271.46"/><path class="cls-2" d="M154.27,85.53h78.08c7.36,0,11-.53,13.14-3.68L207.11,55,185.82,81.33H154.28V25.6c7.09-1.06,9.46-3.15,9.72-6.84L114.06,14v67.3H75.68a253.09,253.09,0,0,0,18.14-38.9c7.36-.27,9.72-2.63,11-6L51.25,22.19a464.22,464.22,0,0,1-10.71,56.9Q53.67,87.86,66.43,96.3c2.36-3.47,4.66-7,6.88-10.77h40.77v42.3c13.42,8.92,26.77,17.88,40.19,27.07Z"/><path class="cls-2" d="M233.66,159.13l-36.8-25.5-20,25H159.66l6.09,4.21h55C227.88,162.82,231.55,162,233.66,159.13Z"/></g></g></svg>