<svg xmlns="http://www.w3.org/2000/svg" viewBox="0 0 545.47 137.55"><defs><style>.cls-1{fill:#393e46;}</style></defs><title>资源 19</title><g id="图层_2" data-name="图层 2"><g id="图层_1-2" data-name="图层 1"><path class="cls-1" d="M45.79,0q4.52,0,4.53,4.52V10q0,4.52-4.53,4.52H33.84V133q0,4.53-4.52,4.52H21q-4.53,0-4.53-4.52V14.48H4.52Q0,14.48,0,10V4.52Q0,0,4.52,0Z"/><path class="cls-1" d="M76,4.52Q76,0,80.54,0h8.33q4.52,0,4.52,4.52V61h18.28V4.52q0-4.52,4.53-4.52h8.33Q129,0,129,4.52V133q0,4.53-4.52,4.52h-8.33q-4.53,0-4.53-4.52V76.19H93.38V133q0,4.53-4.52,4.52H80.54Q76,137.55,76,133Z"/><path class="cls-1" d="M202.34,133q0,4.53-4.52,4.52H163.61q-4.53,0-4.52-4.52V4.52q0-4.52,4.52-4.52h33.84Q202,0,202,4.52v5.79q0,4.53-4.52,4.52h-21V60.45h17.74q4.52,0,4.53,4.52v5.79q0,4.53-4.53,4.53H176.46v47.42h21.36q4.52,0,4.52,4.52Z"/><path class="cls-1" d="M323.77,35.29q0,4.53-4.52,4.53h-8.33q-4.53,0-4.53-4.53V18.1l-3.62-3.62h-6.33l-3.62,3.62V56.83l3.62,3.62H310.2a7.67,7.67,0,0,1,5.61,2.35L322,69a7.67,7.67,0,0,1,2.35,5.61v48.87A7.66,7.66,0,0,1,322,129l-6.15,6.15a7.66,7.66,0,0,1-5.61,2.35h-21a7.65,7.65,0,0,1-5.61-2.35L277.44,129a7.66,7.66,0,0,1-2.35-5.61v-21q0-4.52,4.52-4.53h8.33q4.52,0,4.52,4.53v17l3.62,3.62h7.24l3.62-3.62V78.91l-3.62-3.62H289.57A7.65,7.65,0,0,1,284,72.94l-6.15-6.15a7.65,7.65,0,0,1-2.35-5.61V14.12a7.66,7.66,0,0,1,2.35-5.61L284,2.35A7.66,7.66,0,0,1,289.57,0h20.09a7.67,7.67,0,0,1,5.61,2.35l6.15,6.15a7.67,7.67,0,0,1,2.35,5.61Z"/><path class="cls-1" d="M396,133q0,4.53-4.52,4.52H357.25q-4.53,0-4.52-4.52V4.52q0-4.52,4.52-4.52H391.1q4.52,0,4.52,4.52v5.79q0,4.53-4.52,4.52h-21V60.45h17.74q4.52,0,4.52,4.52v5.79q0,4.53-4.52,4.53H370.1v47.42h21.36q4.52,0,4.52,4.52Z"/><path class="cls-1" d="M466.57,133q0,4.53-4.52,4.52H427.83q-4.53,0-4.52-4.52V4.52q0-4.52,4.52-4.52h33.84q4.52,0,4.52,4.52v5.79q0,4.53-4.52,4.52h-21V60.45h17.74q4.52,0,4.52,4.52v5.79q0,4.53-4.52,4.53H440.68v47.42H462q4.52,0,4.52,4.52Z"/><path class="cls-1" d="M493.89,4.52q0-4.52,4.52-4.52h32.94A7.67,7.67,0,0,1,537,2.35l6.15,6.15a7.67,7.67,0,0,1,2.35,5.61V123.43a7.67,7.67,0,0,1-2.35,5.61L537,135.19a7.66,7.66,0,0,1-5.61,2.35H498.42q-4.53,0-4.52-4.52ZM528.1,119.09V18.46l-3.62-3.62H511.27V122.71h13.21Z"/></g></g></svg>