<svg xmlns="http://www.w3.org/2000/svg" viewBox="0 0 178.88 188.08"><defs><style>.cls-1{fill:#fff;}</style></defs><title>资源 15</title><g id="图层_2" data-name="图层 2"><g id="图层_1-2" data-name="图层 1"><path class="cls-1" d="M4.18,51A59.42,59.42,0,0,1,.84,41l1.67-1.67q10.24.84,13.37,9.2Q14.83,60,14.21,76.9a42.17,42.17,0,0,0,13.37-5.85q7.52,2.72,7.52,6.69,0,2.3-5,3.34-6.9,1.25-15.88,3.34Q14,103,13.37,121.21q14-5,22.57-5.85Q38,72.93,38.45,38.45a3.22,3.22,0,0,0-2.51-1.67Q27.58,38.66,19.23,41a49.67,49.67,0,0,1-10.87-5l.84-1.67q23.2-4.18,33.44-8.36Q56,32.81,56,36.78,56,38,53.5,41,52,89.86,49.32,129.56q-1.46,9.2-5.85,9.2-4,0-9.19-14.21a75.18,75.18,0,0,0-20.9,4.18q-1,7.52-3.34,7.52-5,0-10-16.72Q4.18,79.62,4.18,51ZM61,106.16q31.35-5.85,59.35-11.7V81.92A16.59,16.59,0,0,0,117,74.4,439.49,439.49,0,0,0,66,85.26,77.72,77.72,0,0,1,53.5,79.41l.84-1.67q24.24-5,47.65-10V44.3Q93.2,46,84.43,48.48a70.62,70.62,0,0,1-11.7-4.18l.84-1.67q13.58-3.34,27.58-6.69V10.87q-5-6.47-5.85-9.19L97,0q14.42,0,21.73,8.36a209.22,209.22,0,0,0-2.51,24.24q6.47-1.67,12.54-3.34a17.39,17.39,0,0,0,5.85-5q17.55,1.88,17.55,8.36,0,3.56-5.85,4.18a242.9,242.9,0,0,0-30.09,5l-.84,23.41q16.09-3.34,33.44-6.69a16.79,16.79,0,0,0,5.85-5.85q24.24,3.76,24.24,10.87,0,2.72-5,3.34-24.24,2.09-46,5.85a25.46,25.46,0,0,1,6.69,10v9.2q5.64-1.46,12.54-3.34a8.55,8.55,0,0,0,5-4.18q19.22,3.13,19.23,9.2,0,2.72-8.36,4.18a171.73,171.73,0,0,0-28.42,3.34q0,41.38.84,68.54-5,18.39-10.87,18.39-1.67,0-6.69-8.36-8.36-8.78-22.57-18.39L97,159.66q11.7,3.34,18.39,3.34,5.85,0,5.85-7.52V102.82q-23.82,4.6-47.65,10.87a42.12,42.12,0,0,1-13.37-5.85Zm31.76,18.39q6.69,8.57,6.69,15.88,0,5-3.34,5-5.85,0-10.87-5.85T74.4,122l1.67-1.67A97.34,97.34,0,0,0,92.79,124.55Z"/></g></g></svg>