<svg xmlns="http://www.w3.org/2000/svg" viewBox="0 0 345.84 72.34">
  <defs>
    <style>
      .cls-1 {
        fill: #F0EEEA;
        stroke: #F0EEEA;
        stroke-miterlimit: 10;
      }
    </style>
  </defs>
  <title>progolue-title-part2_1</title>
  <g id="图层_2" data-name="图层 2">
    <g id="图层_1-2" data-name="图层 1">
      <g>
        <path class="cls-1" d="M23.59,35.95V33.8H44.38V53.85a27.07,27.07,0,0,1-14.65,4.07h-.81a26.9,26.9,0,0,1-14.21-4A29.36,29.36,0,0,1,4.31,43.31,27.8,27.8,0,0,1,.5,29.21,27.57,27.57,0,0,1,9,9,27.83,27.83,0,0,1,29.36.5a29.35,29.35,0,0,1,15,4.14V7.38a26.18,26.18,0,0,0-15-4.74,25.38,25.38,0,0,0-18.65,7.81A25.6,25.6,0,0,0,2.94,29.17a25.72,25.72,0,0,0,7.77,18.76,25.31,25.31,0,0,0,18.65,7.84,29.17,29.17,0,0,0,12.58-3.11V35.95Z"/>
        <path class="cls-1" d="M76.94,58h-.67A16.65,16.65,0,0,1,64,52.71a17,17,0,0,1-5.22-12.32A16.58,16.58,0,0,1,64,28.21a17.45,17.45,0,0,1,12.8-5.14,17.06,17.06,0,0,1,13.1,6.07L66.66,52.08q4.81,3.85,9.25,3.85a15.58,15.58,0,0,0,8-2,17.5,17.5,0,0,0,5.81-5.44v3.77A16.59,16.59,0,0,1,76.94,58Zm-.78-32.86a14.35,14.35,0,0,0-10.43,4.55,14.4,14.4,0,0,0-4.55,10.47A15.16,15.16,0,0,0,65.1,50.52L86.64,29.14A15.5,15.5,0,0,0,76.17,25.14Z"/>
        <path class="cls-1" d="M106.69,57.11h-2.37V23.81h2.37v6.73Q110.46,23,119.57,23A14,14,0,0,1,130,27.29a14.33,14.33,0,0,1,4.22,10.43V57.11h-2.37V37.72a12.46,12.46,0,0,0-3.59-8.88,11.56,11.56,0,0,0-8.69-3.77,12.52,12.52,0,0,0-9,3.77,12,12,0,0,0-3.88,8.88Z"/>
        <path class="cls-1" d="M157.75,25a5.1,5.1,0,0,0-3.4,1.26,3.92,3.92,0,0,0-1.48,3.11,4.6,4.6,0,0,0,1.67,3.4,20.17,20.17,0,0,0,4,2.85q2.33,1.3,4.7,2.78a14.36,14.36,0,0,1,4,3.77,8.73,8.73,0,0,1,1.67,5.25,9.8,9.8,0,0,1-3.29,7.44,11.25,11.25,0,0,1-8,3.07,12,12,0,0,1-5.51-1.29,8.47,8.47,0,0,1-3.74-3.44V49.64q2.81,6.22,9,6.22a9.31,9.31,0,0,0,6.48-2.37,7,7,0,0,0,2.63-5.29,7.43,7.43,0,0,0-1.67-4.92,15.52,15.52,0,0,0-4-3.4l-4.7-2.77a15.46,15.46,0,0,1-4-3.33,6.87,6.87,0,0,1-1.67-4.59,5.64,5.64,0,0,1,2.11-4.44A8.05,8.05,0,0,1,158,22.92a7.45,7.45,0,0,1,5.7,2.59v3A7,7,0,0,0,157.75,25Z"/>
        <path class="cls-1" d="M186.61,52.63a17.19,17.19,0,0,1-5.11-12.32,16.58,16.58,0,0,1,5.18-12.17,17.64,17.64,0,0,1,24.9,0,16.69,16.69,0,0,1,5.14,12.21,17.24,17.24,0,0,1-5,12.32,16.28,16.28,0,0,1-12.21,5.25h-.67A16.38,16.38,0,0,1,186.61,52.63ZM214.36,40.5a15,15,0,0,0-4.48-10.84,14.43,14.43,0,0,0-10.69-4.59,14.61,14.61,0,0,0-10.77,4.63,15,15,0,0,0-4.55,10.84,14.72,14.72,0,0,0,4.55,10.77,14.76,14.76,0,0,0,10.8,4.55,14.4,14.4,0,0,0,10.69-4.55A14.94,14.94,0,0,0,214.36,40.5Z"/>
        <path class="cls-1" d="M231.16,1.76h2.37v33.6L246.7,23.81h3L234.49,37.13l19.09,20H250.4L233.52,39.57V57.11h-2.37Z"/>
        <path class="cls-1" d="M294.05,23.81h2.37V56.07a15.67,15.67,0,0,1-15.84,15.76,15,15,0,0,1-12.65-6.14l.15-3.7a16.15,16.15,0,0,0,5.44,5.66,13.14,13.14,0,0,0,16.54-1.85,12.91,12.91,0,0,0,4-9.51V50.67q-3.63,7.25-12.65,7.25a14.38,14.38,0,0,1-10.51-4.33,14.11,14.11,0,0,1-4.37-10.4V23.81h2.37V43.2a12.21,12.21,0,0,0,3.74,8.88,12.25,12.25,0,0,0,17.69,0,12.21,12.21,0,0,0,3.74-8.88Z"/>
        <path class="cls-1" d="M315.22,52.63a17.19,17.19,0,0,1-5.11-12.32,16.58,16.58,0,0,1,5.18-12.17,17.64,17.64,0,0,1,24.9,0,16.68,16.68,0,0,1,5.14,12.21,17.24,17.24,0,0,1-5,12.32,16.28,16.28,0,0,1-12.21,5.25h-.67A16.38,16.38,0,0,1,315.22,52.63ZM343,40.5a15,15,0,0,0-4.48-10.84,14.43,14.43,0,0,0-10.69-4.59A14.61,14.61,0,0,0,317,29.69a15,15,0,0,0-4.55,10.84A14.72,14.72,0,0,0,317,51.3a14.76,14.76,0,0,0,10.8,4.55,14.4,14.4,0,0,0,10.69-4.55A14.94,14.94,0,0,0,343,40.5Z"/>
      </g>
    </g>
  </g>
</svg>
