<svg xmlns="http://www.w3.org/2000/svg" viewBox="0 0 360.35 360.35"><defs><style>.cls-1{fill:#323539;}.cls-2{fill:none;}</style></defs><title>资源 52</title><g id="图层_2" data-name="图层 2"><g id="图层_1-2" data-name="图层 1"><path class="cls-1" d="M299.33,297.87,353.87,337c-2.93,4-7.69,5.13-18.3,5.13H8.3L6.47,336.3H149.61V225.38H54.79L53,219.53h96.64V117.76H92.86c-20.13,33.68-44.29,60-73.21,80.17l-4-2.56c20.5-37,38.8-103.23,46.49-165.83L136.79,49.3c-1.83,4.76-5.12,8.05-15.37,8.42A352.46,352.46,0,0,1,96.16,111.9h53.45V18.18l69.55,6.59c-.37,5.13-3.66,8.05-13.54,9.52V111.9h43.93L279.2,75.29l53.45,37.34c-2.93,4.39-8.05,5.13-18.3,5.13H205.61V219.53H237.1l27.82-34.78,51.25,35.51c-2.93,4-8.05,5.13-17.94,5.13H205.61V336.3h63.33Z"/><rect class="cls-2" width="360.35" height="360.35"/></g></g></svg>