<svg xmlns="http://www.w3.org/2000/svg" viewBox="0 0 1451.7 396.76"><defs><style>.cls-1{fill:none;}.cls-2{fill:#b86268;stroke:#b86268;}.cls-2,.cls-3{stroke-miterlimit:10;stroke-width:4px;}.cls-3{fill:#323539;stroke:#323539;}</style></defs><title>资源 28</title><g id="图层_2" data-name="图层 2"><g id="图层_1-2" data-name="图层 1"><rect class="cls-1" width="1451.7" height="396.76"/><path class="cls-2" d="M106.41,92.91V297.06h65.32v8.21H97.12V92.91Z"/><path class="cls-2" d="M219.18,275.82q-32-33.13-32-77.44t32.38-76.73Q252,89.23,297.32,89.23t77.43,32.28q32.1,32.28,32.1,76.88T375,276q-31.82,33-76,33h-4.22Q251.13,309,219.18,275.82Zm178.37-76.88q0-41.76-29.42-71.64t-71-29.87q-41.53,0-71.09,29.87t-29.56,71.64q0,41.77,29.56,71.78t71,30q41.39,0,71-30T397.55,198.95Z"/><path class="cls-2" d="M540,87.81,645.61,305.27h-9.86l-40-81H482.87l-39.42,81h-8.73Zm-.84,19.54L486.53,216.08H592.4Z"/><path class="cls-2" d="M703.33,92.91h9q47.3,0,76.3,31.29t29,75q0,43.75-28.86,74.89t-76.44,31.15h-9Zm11.26,8.49h-2.25V296.49h2.25q41.11,0,67.44-28.6t26.33-68.66q0-40.06-26.33-68.95T714.59,101.4Z"/><path class="cls-3" d="M881,92.91h9.29V305.27H881Z"/><path class="cls-3" d="M1117.5,92.91h8.17V308.39L970.25,116.13V305.27h-8.17V89.79l155.42,192Z"/><path class="cls-3" d="M1275.46,224.29v-8.21h79.12v76.73q-24.78,15.58-55.75,15.57h-3.1a101.94,101.94,0,0,1-54.06-15.29,112.08,112.08,0,0,1-39.56-40.63,106.86,106.86,0,0,1-14.5-53.94q0-45,32.38-77.44t77.43-32.42a111.23,111.23,0,0,1,57.16,15.86V115q-26.47-18.12-57.16-18.12-41.39,0-71,29.87t-29.56,71.64q0,41.77,29.56,71.78t71,30q23.08,0,47.87-11.89v-64Z"/></g></g></svg>