<svg xmlns="http://www.w3.org/2000/svg" viewBox="0 0 354.73 801.7"><defs><style>.cls-1{fill:#d1999d;}</style></defs><title>资源 23</title><g id="图层_2" data-name="图层 2"><g id="图层_1-2" data-name="图层 1"><path class="cls-1" d="M262.47,143.87c0,26,18.67,64.79,21.6,69.92,6.22-18.3,12.08-39.54,14.64-51.25l53.45,28.92c-1.46,2.56-3.66,4-7.69,4a28.74,28.74,0,0,1-5.12-.73c-10.25,8.05-29.29,20.87-47.59,31.48,17.21,25.63,39.17,41,61.87,51.25l-1.1,3.66c-19.4,5.86-34.78,25.26-40.27,50.52C283,298,270.16,259.91,262.84,192.92h-.37V298.35c0,30-7,49.42-55.64,52.71,0-29.29-2.56-40.63-25.26-43.56v-4.39H209c1.83,0,2.56-1.83,2.56-5.49V254.05c-8.79,15-22,35.88-40.63,62.23-.73,5.13-3.29,9.52-7,11.71l-35.51-41c-6.22-.37-12.08-4-16.84-11a76.49,76.49,0,0,0,.37-9.15c0-16.84-3.66-35.51-9.52-48V337.52c0,2.56-14.64,12.81-38.8,12.81H54.91V239.41c-11,35.88-27.46,65.89-49.79,83.83L0,320.31c9.15-23.79,15-64.79,16.11-103.23l38.8,7.69V192.92c-8.79,2.93-18.3,6.22-28.55,9.52-2.56,4.76-7,7.69-11,8.05l-15-47.22h45A1125.55,1125.55,0,0,0,94.45,48.32l59.67,23.79c-1.46,3.29-4.39,5.13-9.88,5.13a27.69,27.69,0,0,1-5.49-.37c-18.3,24.53-47.59,57.84-76.88,86.39l44.66-1.1A85.37,85.37,0,0,0,97,138l3.29-1.83c28.92,9.52,44.66,21.6,51.62,32.95,40.63,10.25,54.18,27.82,54.18,42.46,0,13.91-12.81,25.63-26.36,25.63-7,0-14.28-3.29-20.13-11.35a77.59,77.59,0,0,0,1.83-16.11A72.32,72.32,0,0,0,156.31,183h-.37c.73,15-12.08,26.72-25.62,26.72-7.32,0-14.64-3.29-20.5-11.35a56.66,56.66,0,0,0,.37-8.05,87.22,87.22,0,0,0-1.46-16.84l-6.22,2.2v42.1l2.93-1.46c37,14.28,49.05,32.58,49.05,46.86A22.14,22.14,0,0,1,153,272c16.84-7.32,37.71-16.84,58.57-26.72V143.87H134.35L132.88,138h119V87.86H160.34L158.51,82h93.35V32.21H156.31l-1.83-5.86h93L267.6,0l52.71,36.61c-2.56,3.29-8.05,6.59-17.21,8.42v86.76l16.84-32.21,34.78,39.17c-2.93,4-8.42,5.13-18.3,5.13ZM3.66,65.16a143.4,143.4,0,0,1,31.85,8.05C40.63,53.45,45.76,26,49.79,1.83L112,22c-1.46,4.76-5.49,7.32-15,7.32C82,48,64.79,65.89,48,79.44,60,87.13,64.43,96.28,64.43,104.7c0,12.81-11.35,23.79-23.79,23.79-6.22,0-12.45-2.56-17.94-8.79C21.23,101.77,12.45,80.17,1.1,67.36Z"/><path class="cls-1" d="M294.32,757.41l54.54,39.17c-2.93,4-7.69,5.13-18.3,5.13H3.29l-1.83-5.86H144.6V684.92H49.79L48,679.07H144.6V577.3H87.86c-20.13,33.68-44.29,60-73.21,80.17l-4-2.56c20.5-37,38.8-103.23,46.49-165.83l74.68,19.77c-1.83,4.76-5.12,8.05-15.37,8.42a352.46,352.46,0,0,1-25.26,54.18H144.6V477.72l69.55,6.59c-.37,5.13-3.66,8.05-13.54,9.52v77.61h43.93l29.65-36.61,53.45,37.34c-2.93,4.39-8.05,5.13-18.3,5.13H200.61V679.07h31.48l27.82-34.78,51.25,35.51c-2.93,4-8.05,5.13-17.94,5.13H200.61V795.84h63.33Z"/></g></g></svg>