<svg xmlns="http://www.w3.org/2000/svg" viewBox="0 0 148.9 13.68"><defs><style>.cls-1{fill:#59606d;stroke:#59606d;stroke-miterlimit:10;stroke-width:0.5px;}</style></defs><title>资源 35</title><g id="图层_2" data-name="图层 2"><g id="图层_1-2" data-name="图层 1"><path class="cls-1" d="M7.69,10.15A.76.76,0,0,1,7,9.67c-.16-.38-.49-1.41-.89-2.62C6,7,6,6.94,5.92,6.94s-.74,0-1.32,0c-.78,0-1.64,0-1.92,0a.16.16,0,0,0-.16.12L1.71,9.64a.74.74,0,0,1-.72.53.7.7,0,0,1-.74-.65c0-.23,0-.34,2.87-8.31A1.2,1.2,0,0,1,4.26.34a1.29,1.29,0,0,1,1.2.89C6.3,3.56,8,8.07,8.41,9.08a1,1,0,0,1,.08.38A.73.73,0,0,1,7.69,10.15ZM5.53,5.45l-1-3c-.08-.23-.14-.36-.22-.36s-.14.12-.23.38C3.89,3,3,5.38,3,5.49s0,.08.1.08H5.44c.08,0,.1,0,.1-.05A.14.14,0,0,0,5.53,5.45Z"/><path class="cls-1" d="M11.14,9.45c0-.91,0-2.74,0-4.48s0-3.38,0-3.9a.68.68,0,0,1,.71-.72.67.67,0,0,1,.7.69v0c0,.63,0,2.63,0,4.65,0,1.37,0,2.76,0,3.74v0a.66.66,0,0,1-.7.67.67.67,0,0,1-.71-.69Z"/><path class="cls-1" d="M21.39,10.15c-.43,0-.84-.28-1-.95s-.65-2.82-.79-4c0-.09-.05-.17-.08-.17s-.05,0-.06.16a37.2,37.2,0,0,1-.79,4,1.18,1.18,0,0,1-1.11,1,1.15,1.15,0,0,1-1.09-1c-.27-1.15-.91-3.64-1.16-4.75a.48.48,0,0,1,0-.13A.62.62,0,0,1,16,3.77a.61.61,0,0,1,.63.43c.25,1,.74,3.48.91,4.56,0,.17.06.25.09.25s.09-.09.12-.23c.18-1,.69-3.33.88-4.26a.89.89,0,0,1,.91-.74,1,1,0,0,1,1,.71c.17.8.71,3.07.87,4.22,0,.17.05.22.08.22s.08-.12.1-.21c.27-1.13.87-3.55,1.06-4.51a.59.59,0,0,1,.62-.45.6.6,0,0,1,.66.54,44.2,44.2,0,0,1-1.35,4.93A1.24,1.24,0,0,1,21.39,10.15Z"/><path class="cls-1" d="M30.88,9.92a1.54,1.54,0,0,1-.35-.43.07.07,0,0,0-.05,0,.11.11,0,0,0-.08,0,2.76,2.76,0,0,1-2,.78,2.13,2.13,0,0,1-2.27-2,1.7,1.7,0,0,1,1.26-1.62A14,14,0,0,1,29.59,6c.13,0,.23-.17.23-.44s0-.82-.92-.82a1.71,1.71,0,0,0-1.27.54.63.63,0,0,1-.48.23.61.61,0,0,1-.62-.6c0-.62,1.14-1.31,2.45-1.31a1.94,1.94,0,0,1,2.2,2.19c0,.17,0,.32,0,.51a10.1,10.1,0,0,0-.06,1.07,2,2,0,0,0,0,.3c.12,1,.6,1.07.7,1.15a.54.54,0,0,1,.21.45.67.67,0,0,1-1.13.58ZM29.69,7.14c-2.19.27-2.32.82-2.32,1.13s.35.8,1,.8a1.3,1.3,0,0,0,1.5-1.45c0-.19,0-.48-.18-.48Z"/><path class="cls-1" d="M34.22,13.43a.61.61,0,0,1-.58-.69.6.6,0,0,1,.58-.66c.85,0,1.26-.63,1.8-1.89a.88.88,0,0,0,0-.54c-.39-1-1.7-4.08-2-4.93a.78.78,0,0,1-.05-.29.68.68,0,0,1,.69-.66.61.61,0,0,1,.58.41,27.66,27.66,0,0,0,1.62,4.1,35.26,35.26,0,0,0,1.61-4.08.64.64,0,0,1,.63-.44.66.66,0,0,1,.7.63.75.75,0,0,1-.06.31c-.62,1.51-1.73,4.16-2.5,6S35.72,13.42,34.22,13.43Z"/><path class="cls-1" d="M44,10.26c-1.58,0-2.24-.89-2.24-1.32a.66.66,0,0,1,.66-.62.63.63,0,0,1,.52.27A1.27,1.27,0,0,0,44,9c.69,0,1-.36,1-.66s-.28-.66-1.8-1.35A1.76,1.76,0,0,1,42,5.42a1.81,1.81,0,0,1,2-1.73c1.19,0,2,.58,2,1.09a.66.66,0,0,1-.65.65.74.74,0,0,1-.53-.26A1.07,1.07,0,0,0,44,4.85c-.44,0-.69.25-.69.53a.67.67,0,0,0,.43.57c.34.17.92.43,1.31.63A2.06,2.06,0,0,1,46.3,8.35,2.11,2.11,0,0,1,44,10.26Z"/><path class="cls-1" d="M54.25,1.12A.72.72,0,0,1,55,.35a.73.73,0,0,1,.74.79V1.2c0,.83-.08,3.56-.08,5.36,0,.74,0,1.32,0,1.54.05.62.34.62,2.1.62.75,0,1.58,0,1.83,0h.06a.68.68,0,0,1,.7.69.76.76,0,0,1-.82.74c-.17,0-.93,0-1.7,0s-1.51,0-1.68,0C55,10,54.25,9.6,54.21,8.46c0-.27,0-.69,0-1.16,0-1.77.05-4.61.05-5.89V1.13Z"/><path class="cls-1" d="M62.56,7a3.26,3.26,0,1,1,6.51,0,3.26,3.26,0,1,1-6.51,0Zm5.2,0a2,2,0,1,0-3.9,0,2,2,0,1,0,3.9,0Z"/><path class="cls-1" d="M71.51,7A3.26,3.26,0,1,1,78,7a3.26,3.26,0,1,1-6.51,0Zm5.2,0a2,2,0,1,0-3.9,0,2,2,0,1,0,3.9,0Z"/><path class="cls-1" d="M85.79,10.19a.73.73,0,0,1-.5-.23c-.38-.39-1.92-2.06-2.47-2.71a.32.32,0,0,0-.26-.09c-.3,0-.3.08-.3.95,0,.28,0,.7,0,1.42a.61.61,0,0,1-.66.66.64.64,0,0,1-.69-.63v0c0-1.35.06-3.29.06-5C81,3,81,1.71,81,.94c0-.35.27-.6.71-.6a.6.6,0,0,1,.67.58v0c0,1.42-.05,4.76-.05,4.76a.2.2,0,0,0,.21.18c.19,0,.25,0,2.69-2a.72.72,0,0,1,.41-.16.77.77,0,0,1,.71.76.6.6,0,0,1-.26.5c-.76.54-1.33.95-2,1.4-.09.05-.13.1-.13.14s0,.1.1.17c.66.66,2,1.83,2.3,2.2a.76.76,0,0,1,.22.52A.78.78,0,0,1,85.79,10.19Z"/><path class="cls-1" d="M94.27,9.47c0-1.54,0-6.2.05-7.56A1.61,1.61,0,0,1,96.07.28c.23,0,1,0,1.66,0s1.41,0,1.61,0a.69.69,0,0,1,.72.69.71.71,0,0,1-.76.7h-2c-1.24,0-1.54,0-1.58.58,0,.31,0,1,0,1.72,0,.26,0,.26,1.53.26.56,0,1.13,0,1.36,0a.65.65,0,0,1,.72.69.69.69,0,0,1-.69.74h-.06c-.32,0-.78,0-1.24,0-1.44,0-1.63,0-1.63.28,0,.78,0,2.34,0,3.17v.47a.71.71,0,0,1-.75.65.65.65,0,0,1-.69-.67Z"/><path class="cls-1" d="M101.74,7a3.26,3.26,0,1,1,6.51,0,3.26,3.26,0,1,1-6.51,0Zm5.2,0A2,2,0,1,0,103,7a2,2,0,1,0,3.9,0Z"/><path class="cls-1" d="M111.19,9.56v0c0-1.23.05-2.08.05-2.85s0-1.45,0-2.32v0a.64.64,0,0,1,.7-.58.61.61,0,0,1,.66.61c0,.05,0,.09,0,.13v.05s0,0,0,0a.16.16,0,0,0,.05-.05,2.39,2.39,0,0,1,1.66-.79.61.61,0,0,1,.63.62.74.74,0,0,1-.74.71,1.83,1.83,0,0,0-1.66,1.53c0,.23,0,.5,0,.85,0,.5,0,1.15,0,2.07a.61.61,0,0,1-.66.66A.64.64,0,0,1,111.19,9.56Z"/><path class="cls-1" d="M122.85,10.15c-.43,0-.84-.28-1-.95s-.65-2.82-.79-4c0-.09-.05-.17-.08-.17s-.05,0-.06.16a37.2,37.2,0,0,1-.79,4,1.18,1.18,0,0,1-1.11,1,1.15,1.15,0,0,1-1.09-1c-.27-1.15-.91-3.64-1.17-4.75a.48.48,0,0,1,0-.13.62.62,0,0,1,.69-.56.61.61,0,0,1,.63.43c.25,1,.74,3.48.91,4.56,0,.17.06.25.09.25s.09-.09.12-.23c.18-1,.69-3.33.88-4.26a.89.89,0,0,1,.91-.74,1,1,0,0,1,1,.71c.17.8.71,3.07.87,4.22,0,.17.05.22.08.22s.08-.12.1-.21c.27-1.13.87-3.55,1.06-4.51a.59.59,0,0,1,.62-.45.6.6,0,0,1,.66.54A44.2,44.2,0,0,1,124,9.23,1.24,1.24,0,0,1,122.85,10.15Z"/><path class="cls-1" d="M132.34,9.92a1.54,1.54,0,0,1-.35-.43.07.07,0,0,0-.05,0,.11.11,0,0,0-.08,0,2.76,2.76,0,0,1-2,.78,2.13,2.13,0,0,1-2.27-2,1.7,1.7,0,0,1,1.26-1.62A14,14,0,0,1,131,6c.13,0,.23-.17.23-.44s0-.82-.92-.82a1.71,1.71,0,0,0-1.27.54.63.63,0,0,1-.48.23A.61.61,0,0,1,128,5c0-.62,1.14-1.31,2.45-1.31a1.94,1.94,0,0,1,2.2,2.19c0,.17,0,.32,0,.51a10.3,10.3,0,0,0-.06,1.07,2,2,0,0,0,0,.3c.12,1,.6,1.07.7,1.15a.54.54,0,0,1,.21.45.67.67,0,0,1-1.13.58Zm-1.19-2.78c-2.19.27-2.32.82-2.32,1.13s.35.8,1,.8a1.3,1.3,0,0,0,1.5-1.45c0-.19,0-.48-.18-.48Z"/><path class="cls-1" d="M136.07,9.56v0c0-1.23.05-2.08.05-2.85s0-1.45,0-2.32v0a.64.64,0,0,1,.7-.58.61.61,0,0,1,.66.61c0,.05,0,.09,0,.13v.05s0,0,0,0a.16.16,0,0,0,.05-.05,2.39,2.39,0,0,1,1.66-.79.61.61,0,0,1,.63.62.74.74,0,0,1-.74.71,1.83,1.83,0,0,0-1.66,1.53c0,.23,0,.5,0,.85,0,.5,0,1.15,0,2.07a.61.61,0,0,1-.66.66A.64.64,0,0,1,136.07,9.56Z"/><path class="cls-1" d="M147.9,10.15c-.3,0-.54-.1-.72-.82,0-.05,0-.08-.05-.08s0,0-.06.05a2.75,2.75,0,0,1-2,.91A3.07,3.07,0,0,1,141.87,7,3.11,3.11,0,0,1,145,3.72a2.67,2.67,0,0,1,1.81.7h.05s0,0,0-.05c0-1.5,0-2.82,0-3.37a.64.64,0,0,1,.66-.67.64.64,0,0,1,.67.67v.06c0,.44,0,1.36,0,2.45,0,4.8,0,4.84.39,5.57a.7.7,0,0,1,.09.35A.74.74,0,0,1,147.9,10.15Zm-1-3.18a1.87,1.87,0,1,0-3.73,0,1.87,1.87,0,1,0,3.73,0Z"/></g></g></svg>