<svg xmlns="http://www.w3.org/2000/svg" viewBox="0 0 95.83 95.83"><defs><style>.cls-1{fill:#59606d;}.cls-2{fill:none;}</style></defs><title>资源 28</title><g id="图层_2" data-name="图层 2"><g id="图层_1-2" data-name="图层 1"><path class="cls-1" d="M40.5,23.94C39.35,10.72,42.78,0,48.15,0s8.69,10.73,7.41,24-4.71,24-7.65,23.94S41.66,37.17,40.5,23.94Z"/><path class="cls-1" d="M23.45,42.34c-12-5.61-19.6-13.94-16.91-18.59S20.18,21.59,31,29.32,49.4,45.37,47.91,47.91,35.48,48,23.45,42.34Z"/><path class="cls-1" d="M30.86,66.32C20,73.92,9,76.32,6.3,71.66s4.95-12.89,17.05-18.4,23.1-7.9,24.56-5.35S41.73,58.71,30.86,66.32Z"/><path class="cls-1" d="M55.32,71.88C56.47,85.11,53,95.83,47.67,95.83s-8.69-10.73-7.41-24,4.71-24,7.65-23.94S54.17,58.66,55.32,71.88Z"/><path class="cls-1" d="M72.38,53.48C84.4,59.1,92,67.42,89.29,72.08s-13.64,2.16-24.46-5.57S46.43,50.45,47.91,47.91,60.35,47.87,72.38,53.48Z"/><path class="cls-1" d="M65,29.51c10.88-7.61,21.87-10,24.56-5.35s-4.95,12.89-17.05,18.4-23.1,7.9-24.56,5.35S54.09,37.12,65,29.51Z"/><rect class="cls-2" width="95.83" height="95.83"/></g></g></svg>