<?xml version="1.0" encoding="utf-8"?>
<!-- Generator: Adobe Illustrator 21.1.0, SVG Export Plug-In . SVG Version: 6.00 Build 0)  -->
<svg version="1.1" id="图层_1" xmlns="http://www.w3.org/2000/svg" xmlns:xlink="http://www.w3.org/1999/xlink" x="0px" y="0px"
	 viewBox="0 0 1462.2 157.1" style="enable-background:new 0 0 1462.2 157.1;" xml:space="preserve">
<style type="text/css">
	.st0{stroke:#000000;stroke-width:8;stroke-miterlimit:10;}
</style>
<title>资源 16</title>
<g>
	<path class="st0" d="M135.3,50.7h-7.5V36.3c0-5.2-2.6-7.8-7.8-7.8H19.4c-5.2,0-7.8,2.6-7.8,7.8v79.9c0,5.2,2.6,7.8,7.8,7.8H120
		c5.2,0,7.8-2.6,7.8-7.8v-14.4h7.5v16c0,8.9-4.4,13.3-13.3,13.3H17c-8.9,0-13.3-4.4-13.3-13.3V34.7c0-8.9,4.4-13.3,13.3-13.3h105
		c8.9,0,13.3,4.4,13.3,13.3V50.7z"/>
	<path class="st0" d="M317.3,131.1h-7.8V75.6H189.2v55.5h-7.8V21.4h7.8v47.2h120.2V21.4h7.8V131.1z"/>
	<path class="st0" d="M509.4,131.1H500l-18-27.9h-95.6l-17.9,27.9h-8.6l70.7-109.7h8.1L509.4,131.1z M390.9,96.1h86.8l-43.3-67.5
		L390.9,96.1z"/>
	<path class="st0" d="M684.5,67.1c0,12.3-6.1,18.5-18.3,18.5H559.9v45.4H552V21.4h114.1c12.2,0,18.3,6.2,18.3,18.5V67.1z
		 M559.9,28.4v50.2h104.2c8.4,0,12.5-4.2,12.5-12.5V41c0-8.4-4.2-12.5-12.5-12.5H559.9z"/>
	<path class="st0" d="M860,28.4h-63.6v102.7h-7.8V28.4h-64.3v-7.1H860V28.4z"/>
	<path class="st0" d="M1019.4,28.4H910v40.1h108.4v7.1H910V124h109.7v7.1H902.1V21.4h117.2V28.4z"/>
	<path class="st0" d="M1197.6,59.5c0,11.5-6,17.6-17.9,18.2l19.9,53.4h-8.1L1171.9,78h-98.7v53.1h-7.8V21.4h113.9
		c12.2,0,18.3,6.2,18.3,18.5V59.5z M1073.1,28.4v42.5h104.1c8.4,0,12.5-4.2,12.5-12.5V41c0-8.4-4.2-12.5-12.5-12.5H1073.1z"/>
	<path class="st0" d="M1382.8,142.8h-147.9v-6.3h147.9V142.8z"/>
	<path class="st0" d="M1458.5,131.1h-7.8V33.6l-24,24.4h-8.9l29.1-32h11.6V131.1z"/>
</g>
</svg>
