<svg xmlns="http://www.w3.org/2000/svg" viewBox="0 0 1663.5 221.84"><title>资源 16</title><g id="图层_2" data-name="图层 2"><g id="图层_1-2" data-name="图层 1"><path d="M22.77,221.84a12.34,12.34,0,0,1-9-3.79l-9.92-9.92a12.34,12.34,0,0,1-3.79-9V22.77a12.35,12.35,0,0,1,3.79-9l9.92-9.92a12.36,12.36,0,0,1,9-3.79H55.46a12.37,12.37,0,0,1,9,3.79l9.92,9.92a12.37,12.37,0,0,1,3.79,9V60.13q0,7.3-7.3,7.3H57.5q-7.3,0-7.3-7.3V29.19l-5.84-5.84H33.86L28,29.19V192.07l5.84,5.84H44.37l5.84-5.84V161.42q0-7.29,7.3-7.3H70.93q7.29,0,7.3,7.3v37.65a12.36,12.36,0,0,1-3.79,9L64.51,218a12.35,12.35,0,0,1-9,3.79Z"/><path d="M123.47,7.3q0-7.29,7.3-7.3H144.2q7.29,0,7.3,7.3V98.37H181V7.3Q181,0,188.27,0H201.7Q209,0,209,7.3V214.54q0,7.3-7.3,7.3H188.27q-7.3,0-7.3-7.3V122.89H151.49v91.66q0,7.3-7.3,7.3H130.77q-7.3,0-7.3-7.3Z"/><path d="M343.56,214.25q.88,7.6-7,7.59h-14.3q-7.3,0-7.59-7L310,164.63H283.72l-4.67,50.21q-.59,7-7.59,7H258.33q-7.88,0-7-7.59L276.13,6.71Q277,0,284,0h26.27q7,0,7.88,6.71ZM296.86,28.9l-10.8,111.8h21.6Z"/><path d="M413.91,214.54q0,7.3-7.3,7.3H393.18q-7.3,0-7.3-7.3V7.3q0-7.29,7.3-7.3H444a12.37,12.37,0,0,1,9,3.79l9.92,9.92a12.37,12.37,0,0,1,3.79,9v87.57a12.36,12.36,0,0,1-3.79,9L453,129.31a12.35,12.35,0,0,1-9,3.79H413.91Zm24.81-110.63V29.19l-5.84-5.84h-19v86.4h19Z"/><path d="M576.49,0q7.29,0,7.3,7.3v8.76q0,7.3-7.3,7.3H557.23V214.54q0,7.3-7.3,7.3H536.5q-7.3,0-7.3-7.3V23.35H509.94q-7.3,0-7.3-7.3V7.3q0-7.29,7.3-7.3Z"/><path d="M695,214.54q0,7.3-7.3,7.3H632.53q-7.3,0-7.3-7.3V7.3q0-7.29,7.3-7.3h54.59q7.29,0,7.3,7.3v9.34q0,7.3-7.3,7.3H653.26V97.49h28.61q7.29,0,7.3,7.3v9.34q0,7.3-7.3,7.3H653.26v76.48H687.7q7.29,0,7.3,7.3Z"/><path d="M767.1,214.54q0,7.3-7.3,7.3H746.37q-7.3,0-7.3-7.3V7.3q0-7.29,7.3-7.3h52.25a12.37,12.37,0,0,1,9,3.79l9.92,9.92a12.37,12.37,0,0,1,3.79,9V104.5a12.36,12.36,0,0,1-3.79,9l-11.68,11.68L822,214q1.46,7.88-6.71,7.88H803q-6.72,0-7.88-6.71l-16.05-87.86h-12ZM793.37,98.66V29.19l-5.84-5.84H767.1V104.5h20.43Z"/><path d="M987.77,214.54q0,7.3-7.3,7.3H967q-7.3,0-7.3-7.3V23.94H947.48q-7.3,0-7.3-7.3V7.3q0-7.29,7.3-7.3h33q7.29,0,7.3,7.3Z"/><path d="M1058.11,99.25q7.29,0,7.3,7.3v23.35q0,7.3-7.3,7.3h-14.6q-7.3,0-7.3-7.3V106.54q0-7.29,7.3-7.3Zm0,84.65q7.29,0,7.3,7.3v23.35q0,7.3-7.3,7.3h-14.6q-7.3,0-7.3-7.3V191.19q0-7.29,7.3-7.3Z"/><path d="M1265.64,215.13q-.88,6.72-7.88,6.71H1244q-7,0-7.88-6.71l-21-167.26V214.54q0,7.3-7.3,7.3H1197q-7.3,0-7.3-7.3V7.3q0-7.29,7.3-7.3h26.27q7,0,7.88,6.71L1251,179.23,1270.9,6.71q.88-6.71,7.88-6.71h27.15q7.29,0,7.3,7.3V214.54q0,7.3-7.3,7.3h-12q-7.3,0-7.3-7.3V47.87Z"/><path d="M1431.44,214.54q0,7.3-7.3,7.3H1369q-7.3,0-7.3-7.3V7.3q0-7.29,7.3-7.3h54.59q7.29,0,7.3,7.3v9.34q0,7.3-7.3,7.3H1389.7V97.49h28.61q7.29,0,7.3,7.3v9.34q0,7.3-7.3,7.3H1389.7v76.48h34.44q7.29,0,7.3,7.3Z"/><path d="M1545.28,214.54q0,7.3-7.3,7.3h-55.17q-7.3,0-7.3-7.3V7.3q0-7.29,7.3-7.3h54.59q7.29,0,7.3,7.3v9.34q0,7.3-7.3,7.3h-33.86V97.49h28.61q7.29,0,7.3,7.3v9.34q0,7.3-7.3,7.3h-28.61v76.48H1538q7.29,0,7.3,7.3Z"/><path d="M1656.2,0q7.29,0,7.3,7.3v8.76q0,7.3-7.3,7.3h-19.27V214.54q0,7.3-7.3,7.3h-13.43q-7.3,0-7.3-7.3V23.35h-19.26q-7.3,0-7.3-7.3V7.3q0-7.29,7.3-7.3Z"/></g></g></svg>