<?xml version="1.0" encoding="utf-8"?>
<!-- Generator: Adobe Illustrator 21.1.0, SVG Export Plug-In . SVG Version: 6.00 Build 0)  -->
<svg version="1.1" id="图层_1" xmlns="http://www.w3.org/2000/svg" xmlns:xlink="http://www.w3.org/1999/xlink" x="0px" y="0px"
	 viewBox="0 0 291.8 292.6" style="enable-background:new 0 0 291.8 292.6;" xml:space="preserve">
<style type="text/css">
	.st0{fill:none;stroke:#59606D;stroke-width:12;stroke-linecap:round;stroke-miterlimit:3;}
	.st1{enable-background:new    ;}
	.st2{fill:#59606D;}
	.st3{fill:none;stroke:#59606D;stroke-miterlimit:3;}
	.st4{fill:none;}
</style>
<title>资源 38</title>
<g>
	<polyline class="st0" points="46.4,206.2 109.1,73.9 140.9,102 179.8,17 245.4,206.2 	"/>
	<polygon class="st0" points="145.9,147.5 245.4,64.1 245.4,206.2 145.9,206.2 46.4,206.2 46.4,64.1 	"/>
	<g class="st1">
		<path class="st2" d="M76.6,243.8v-2.2c0-0.8-0.5-1.5-1.5-2c-1-0.5-2.2-0.8-3.7-0.8H61.3v37.1h10.2c1.5,0,2.8-0.4,3.8-1.2
			c0.9-0.7,1.3-1.5,1.3-2.3v-2.9h1.3v2.9c0,1.2-0.6,2.3-1.8,3.3c-1.3,1-2.8,1.5-4.6,1.5H51.7c-0.9,0-1.6-0.3-2.2-0.9
			c-0.6-0.6-0.9-1.4-0.9-2.2v-33.2c0-0.9,0.3-1.7,0.9-2.3c0.6-0.6,1.4-0.9,2.2-0.9h19.8c1.9,0,3.4,0.4,4.6,1.2
			c1.2,0.8,1.8,1.8,1.8,3v2.2H76.6z"/>
		<path class="st2" d="M121.4,238.5c0.5,0.7,0.7,1.4,0.6,2.3l-7.8,44.2c-0.3,1.8-1.2,3.4-2.6,4.7s-2.9,2-4.6,2h-9.5
			c-1.9,0-3.5-0.4-4.8-1.3c-1.3-0.9-2-2-2-3.3v-4h1.2v4c0,0.9,0.5,1.7,1.6,2.4c1.1,0.7,2.4,1,3.9,1h3.4l2.4-13.5l-14.1-39.3h1.3
			l13.2,36.8l6.5-36.8h9.1C120.2,237.6,120.9,237.9,121.4,238.5z"/>
		<path class="st2" d="M159.4,237.4c1.9,0,3.4,0.4,4.6,1.2c1.2,0.8,1.8,1.8,1.8,3v2.2h-1.3v-2.2c0-0.8-0.5-1.5-1.4-2
			c-1-0.5-2.2-0.8-3.7-0.8h-11.5V277h-9.1c-0.9,0-1.7-0.3-2.5-0.9c-0.8-0.7-1.2-1.4-1.2-2.3v-33.2c0-0.9,0.4-1.7,1.2-2.3
			c0.8-0.6,1.6-0.9,2.5-0.9H159.4z"/>
		<path class="st2" d="M189.4,221.9v10h-8.9c-1,0-1.8-0.2-2.4-0.6c-0.8-0.4-1.1-1-1.1-1.7v-5.1c0-0.7,0.4-1.4,1.2-1.9
			c0.7-0.5,1.5-0.8,2.4-0.8H189.4z M176.8,241.3c0-0.9,0.4-1.6,1.2-2.2c0.7-0.6,1.5-0.9,2.4-0.9h8.9V277h-8.9
			c-0.9,0-1.7-0.3-2.4-0.9c-0.8-0.6-1.2-1.4-1.2-2.2V241.3z"/>
		<path class="st2" d="M234,244.8v-3.4c0-0.7-0.5-1.3-1.5-1.9c-1.1-0.6-2.4-0.9-4-0.9h-13v17.3h13c1.9,0,3.5,0.7,4.8,2
			c1.3,1.3,2,2.9,2,4.9v7.4c0,1.9-0.7,3.5-2,4.8c-1.3,1.3-2.9,2-4.8,2h-18.6c-1.9,0-3.5-0.5-4.8-1.5c-1.3-1-2-2.3-2-3.7v-2.3h1.2
			v2.3c0,1.1,0.5,2.1,1.6,2.9c1.1,0.8,2.4,1.2,4,1.2h13v-18.6h-13c-1.9,0-3.5-0.7-4.8-2c-1.3-1.3-2-2.9-2-4.8v-6.2
			c0-1.9,0.7-3.5,2-4.8c1.3-1.3,2.9-2,4.8-2h18.6c1.9,0,3.5,0.4,4.9,1.1c1.3,0.8,2,1.7,2,2.9v3.4H234z"/>
	</g>
	<g class="st1">
		<path class="st3" d="M76.6,243.8v-2.2c0-0.8-0.5-1.5-1.5-2c-1-0.5-2.2-0.8-3.7-0.8H61.3v37.1h10.2c1.5,0,2.8-0.4,3.8-1.2
			c0.9-0.7,1.3-1.5,1.3-2.3v-2.9h1.3v2.9c0,1.2-0.6,2.3-1.8,3.3c-1.3,1-2.8,1.5-4.6,1.5H51.7c-0.9,0-1.6-0.3-2.2-0.9
			c-0.6-0.6-0.9-1.4-0.9-2.2v-33.2c0-0.9,0.3-1.7,0.9-2.3c0.6-0.6,1.4-0.9,2.2-0.9h19.8c1.9,0,3.4,0.4,4.6,1.2
			c1.2,0.8,1.8,1.8,1.8,3v2.2H76.6z"/>
		<path class="st3" d="M121.4,238.5c0.5,0.7,0.7,1.4,0.6,2.3l-7.8,44.2c-0.3,1.8-1.2,3.4-2.6,4.7s-2.9,2-4.6,2h-9.5
			c-1.9,0-3.5-0.4-4.8-1.3c-1.3-0.9-2-2-2-3.3v-4h1.2v4c0,0.9,0.5,1.7,1.6,2.4c1.1,0.7,2.4,1,3.9,1h3.4l2.4-13.5l-14.1-39.3h1.3
			l13.2,36.8l6.5-36.8h9.1C120.2,237.6,120.9,237.9,121.4,238.5z"/>
		<path class="st3" d="M159.4,237.4c1.9,0,3.4,0.4,4.6,1.2c1.2,0.8,1.8,1.8,1.8,3v2.2h-1.3v-2.2c0-0.8-0.5-1.5-1.4-2
			c-1-0.5-2.2-0.8-3.7-0.8h-11.5V277h-9.1c-0.9,0-1.7-0.3-2.5-0.9c-0.8-0.7-1.2-1.4-1.2-2.3v-33.2c0-0.9,0.4-1.7,1.2-2.3
			c0.8-0.6,1.6-0.9,2.5-0.9H159.4z"/>
		<path class="st3" d="M189.4,221.9v10h-8.9c-1,0-1.8-0.2-2.4-0.6c-0.8-0.4-1.1-1-1.1-1.7v-5.1c0-0.7,0.4-1.4,1.2-1.9
			c0.7-0.5,1.5-0.8,2.4-0.8H189.4z M176.8,241.3c0-0.9,0.4-1.6,1.2-2.2c0.7-0.6,1.5-0.9,2.4-0.9h8.9V277h-8.9
			c-0.9,0-1.7-0.3-2.4-0.9c-0.8-0.6-1.2-1.4-1.2-2.2V241.3z"/>
		<path class="st3" d="M234,244.8v-3.4c0-0.7-0.5-1.3-1.5-1.9c-1.1-0.6-2.4-0.9-4-0.9h-13v17.3h13c1.9,0,3.5,0.7,4.8,2
			c1.3,1.3,2,2.9,2,4.9v7.4c0,1.9-0.7,3.5-2,4.8c-1.3,1.3-2.9,2-4.8,2h-18.6c-1.9,0-3.5-0.5-4.8-1.5c-1.3-1-2-2.3-2-3.7v-2.3h1.2
			v2.3c0,1.1,0.5,2.1,1.6,2.9c1.1,0.8,2.4,1.2,4,1.2h13v-18.6h-13c-1.9,0-3.5-0.7-4.8-2c-1.3-1.3-2-2.9-2-4.8v-6.2
			c0-1.9,0.7-3.5,2-4.8c1.3-1.3,2.9-2,4.8-2h18.6c1.9,0,3.5,0.4,4.9,1.1c1.3,0.8,2,1.7,2,2.9v3.4H234z"/>
	</g>
	<rect y="0" class="st4" width="291.8" height="291.8"/>
</g>
</svg>
