<svg xmlns="http://www.w3.org/2000/svg" viewBox="0 0 1738.3 676.08"><defs><style>.cls-1,.cls-4{fill:#ead996;}.cls-1{opacity:0.6;}.cls-2,.cls-5{fill:#fefefe;}.cls-2{opacity:0.3;}.cls-3{opacity:0.8;}.cls-5{stroke:#fefefe;stroke-miterlimit:10;stroke-width:1.5px;}.cls-6{fill:#fff;}</style></defs><title>资源 2</title><g id="图层_2" data-name="图层 2"><g id="图层_1-2" data-name="图层 1"><path class="cls-1" d="M1523.55,98.54a252,252,0,0,1,81.68,186c0,139.57-113.14,252.71-252.71,252.71a254.69,254.69,0,0,1-38-2.84,251.79,251.79,0,0,0,171,66.69c139.57,0,252.71-113.14,252.71-252.71C1738.3,221.75,1645.11,116.85,1523.55,98.54Z"/><path class="cls-2" d="M833.94,0c-186.7,0-338,151.35-338,338s151.35,338,338,338,338-151.35,338-338S1020.63,0,833.94,0Zm0,654.18c-179.82,0-325.59-145.77-325.59-325.59S654.12,3,833.94,3s325.59,145.77,325.59,325.59S1013.76,654.18,833.94,654.18Z"/><g class="cls-3"><path class="cls-4" d="M858.22,359.69c-2.4,2-4.46,1.07-4.58-2l-.44-11.78a12.11,12.11,0,0,0-5-8.7l-10-6.31c-2.63-1.67-2.39-3.91.53-5l11.06-4.06a12.11,12.11,0,0,0,6.73-7.45l2.93-11.42c.77-3,3-3.49,4.91-1l7.28,9.27a12.11,12.11,0,0,0,9.16,4.1l11.76-.74c3.11-.2,4.24,1.76,2.5,4.35l-6.56,9.79a12.11,12.11,0,0,0-1.07,10l4.34,11c1.15,2.9-.37,4.57-3.36,3.72l-11.34-3.22a12.11,12.11,0,0,0-9.82,2.07Z"/></g><path class="cls-5" d="M316.52,376c-2.05-1.8-4.11-3.85-4.11-6.42s3.08-6.16,4.62-7.7c10.78-12.07,26.45-35.69,34.66-51.35,5.65-10.78,8-13.35,11.55-14.38,3.34-.77,4.88-1.28,4.88-2.82,0-3.85-16.18-13.86-18.23-13.86-1.8,0-6.68,4.36-8.73,5.39-2.31,1.28-5.14,1.54-9.24,1.54H301.12c-1.54,0-4.37,0-4.37-2.82,0-1.54,2.82-6.93,4.88-9,2.31-2.05,5.14-4.62,5.14-6.16,0-2.31-20-11.81-21.57-11.81s-1.54.51-1.8,5.65c-1,13.35-18.49,51.87-39.8,78.57-2.82,3.34-18,21.05-18,21.31,0,1.28,20.54-10,34.41-25.16,1.8-1.8,10.27-12.58,11.81-12.58s1.8.51,3.85,7.45a193,193,0,0,0,10.78,27.22c2.31,4.37,2.82,5.91,2.82,7.7,0,4.11-.77,5.39-10.27,15.15-21.05,22.34-26.19,27.22-43.65,42.62a11.2,11.2,0,0,0-2.05,2.57c0,.77,21.05-3.85,58.8-39.28,3.08-2.83,5.14-4.11,7.19-4.11s3.85,1,6.16,3.85c.66.73,1.32,1.45,2,2.16L319,378.18C318.19,377.48,317.35,376.77,316.52,376Zm-18-20.8c-6.42,0-20.8-31.84-20.8-39,0-3.34,6.68-13.86,9.24-17.72,2.82-4.62,4.62-5.39,11-5.39H329.1c3.85,0,6.42,0,6.42,3.08,0,2.83-6.68,16.43-15.66,31.58C314,337.53,302.91,355.24,298.55,355.24Z"/><path class="cls-5" d="M289.82,301.84c-.77,0-1.54,0-1.8.51a8,8,0,0,0,1,1.54c4.62,6.42,6.68,14.12,7.45,22.08.77,6.93,1.28,12.07,6.93,12.07,5.91,0,10.53-5.91,10.53-11.81C314,313.39,297.78,301.84,289.82,301.84Z"/><path class="cls-5" d="M158.87,252.54c1,1,1.54,1.8,2.31,1.8a38.94,38.94,0,0,0,5.39-.77c9-.51,26.7-.51,32.61-.51h169.2c9,0,13.86-.26,13.86-3.08s-22.85-19.26-25.68-19.26c-2.57,0-11.81,11.55-14.12,13.61-2.05,1.8-3.34,1.8-13.86,1.8H287c-5.14,0-8.22-.77-8.22-8.47,0-2.31.51-12.32.51-14.64,0-3.34,0-4.62,3.59-7.45,2.57-1.8,4.62-3.34,4.62-6.16,0-6.93-26.45-10.27-27.47-10.27-1.28,0-3.59.26-3.59,1.8,0,1.8,3.08,9,3.34,10.78.26,1.54.77,21.57.77,25.42,0,5.65-.77,9-8,9H200.21c-11.81,0-23.37-.26-35.18-.77-1.54-.26-9.5-1-11.3-1a.68.68,0,0,0-.77.77,3.9,3.9,0,0,0,1,1.54Z"/><path class="cls-5" d="M382.77,405.05A165.51,165.51,0,0,1,346,394.38L330.5,409.85c16.19,11.58,29.93,17,30.95,17,1.8,0,5.39-5.91,8-8.47,3.08-3.08,7.19-5.65,16.18-9.5,1.54-.77,2.82-1.54,2.82-2.05C388.41,406.08,387.9,405.83,382.77,405.05Z"/><path class="cls-5" d="M240.52,270c3.85-1.8,4.62-2.05,4.37-3.34-.77-2.82-17.46-13.35-19.77-13.35-2.05,0-2.31,2.57-3.34,6.42-6.42,24.65-46.47,72.66-48.78,75.75-1.28,1.28-13.1,15.41-13.1,15.92,0,3.85,29.27-20.54,31.07-22.08,2.31-1.8,5.13-4.36,6.93-4.36,3.34,0,3.34,4.62,3.34,5.65,0,23.37-.51,45.7-1.54,68.81-.26,3.59-1.54,19.51-1.54,21.57,0,6.42,3.85,9,8,9,5.65,0,11.81-4.88,11.81-13.09,0-2.05-.77-11.55-.77-13.35-.26-6.93-.26-17.72-.26-24.91,0-18.49,0-52.89.77-54.69.51-1,5.39-4.62,5.39-5.91,0-2.05-2.82-2.82-6.42-3.85-3.34-1-4.62-1.54-4.62-2.05,0-.77,1-3.08,4.11-6.93C220,299.78,236.16,272.05,240.52,270Z"/><path class="cls-5" d="M1295.51,366c-1.28.77-10,1.8-10,3.59,0,1.28,6.68,4.88,7.7,5.91,9.5,10.78,9.5,18.74,9.5,34.41,0,0,0,0,0,.07l17-17c-3.11-9.22-3.68-13-3.68-21.55,0-8.22.77-10.27,8.22-29,3.08-8.22,28-75.74,28-78.05a1.48,1.48,0,0,0-1.54-1.54c-1.54,0-1.54.51-3.34,4.37-2.31,5.39-6.68,13.61-9,19C1317.34,333.16,1304.5,361.41,1295.51,366Z"/><path class="cls-5" d="M1341.47,315.7c0,.51,0,.51,1,1.8l4.88,5.91c1,1,1.54,1.54,2.31,1.54s4.62-.51,5.39-.51c9-.77,26.7-.77,32.61-.77H1389l6.68-6.68H1389c-12.07,0-23.62-.51-35.18-1-1.8,0-9.76-.77-11.55-.77C1341.73,315.19,1341.47,315.19,1341.47,315.7Z"/><path class="cls-5" d="M1486.54,263.07c8.73,0,13.87,0,13.87-3.59,0-1.49-7.38-7.8-13.24-12.08l-15.67,15.67Z"/><path class="cls-5" d="M1362,262.81c.77,1,1.28,1.54,2.05,1.54s4.62-.51,5.65-.51c9-.77,26.45-.77,32.35-.77h7.19c5.91,0,7.19,3.85,7.19,7.7,0,3.43,0,15.43-.1,25.59l17.31-17.31c0-4.44,0-7.89,0-9.05,0-6.93,5.39-6.93,8.22-6.93h7.78l6.68-6.68h-14.45c-2.57,0-8.22,0-8-7.19,0,0,.77-19.26.77-23.11,0-4.11,0-5.65,1-8.47.26-1.28,4.88-5.91,4.88-7.19,0-4.11-23.88-8.22-25.42-8.22-1.28,0-1.28.77-1.28,1.8,0,.51,1.54,10.53,1.8,12.58.77,8.47.77,23.36.77,32.35,0,7.45-5.13,7.45-7.45,7.45h-5.65c-12.07,0-23.62-.51-35.18-1-1.8,0-9.76-.77-11.55-.77-.51,0-.77,0-.77.51s0,.51,1,1.8Z"/><path class="cls-5" d="M1296.8,293.36c3.59,7.45,5.39,10.53,9,10.53,5.39,0,10-5.39,10-11.81,0-14.12-18.49-25.42-35.95-25.42-1.28,0-3.85.26-4.11,1.28.26.26,3.85,3.34,4.37,3.59A68.1,68.1,0,0,1,1296.8,293.36Z"/><path class="cls-5" d="M1491.16,303.64c-2.31,0-8.73,9.76-10.78,11.3-2.05,2.05-3.34,2.05-14.12,2.05h-24.14c-4.11,0-7.19-.51-8.22-4.88-.09-.53-.15-5.2-.18-11.27L1408.55,326a4.28,4.28,0,0,1,.45,2c0,3.59-10.53,26.7-21.05,46.47-10.27,19.77-11.55,22.08-17.72,22.08a140.79,140.79,0,0,1-17.46-1c-1.71-.24-9.47-1.65-12-1.78l-1.28,1.28c.84,3.83,7.35,26.44,10.95,26.44,1,0,4.88-2.82,5.91-3.34,3.34-2.05,10.27-4.11,12.84-4.88,9-2.31,53.92-8.47,64.19-10.27,6.42-1,38.77-8,41.34-8,5.39,0,6.68,4.11,8.22,10.53,4.37,19.51,4.88,21.83,10.27,21.83,4.88,0,12.58-3.85,12.58-14.89,0-26.7-39-62.14-43.65-62.14l-.26.51c.51,3.08,14.64,32.09,14.64,37.23,0,3.08-2.31,3.85-8.73,4.11-11.55.51-74.2,4.11-81.14,4.11-.51,0-1.54-.26-1.54-1.28,0-.77.26-1,3.85-5.39,7.7-9,19.26-23.62,27-35.95,6.42-10.27,7.19-11.3,9.76-12.07,5.14-1,6.93-1.54,6.93-3.59,0-2.57-9.76-13.09-9.76-13.61,0-.77,1-.77,1.28-.77h72.66c8.73,0,13.86,0,13.86-3.59C1510.68,317,1493.22,303.64,1491.16,303.64Z"/><path class="cls-5" d="M1319.39,236.11c3.59,6.42,5.13,8.73,9.24,8.73,5.65,0,8.47-5.91,8.47-11.55,0-8.47-6.42-16.43-16.95-20.8-4.36-1.8-18-4.11-20.8-4.11-.77,0-2.05,0-2.05,1,0,.26.51.77.77,1A86.49,86.49,0,0,1,1319.39,236.11Z"/><path class="cls-5" d="M1308.93,425.63a10.64,10.64,0,0,0,6.09,1.77c5.65,0,11.3-5.91,11.3-12.33a23.69,23.69,0,0,0-1-5.87Z"/><path class="cls-5" d="M466.56,231.89c-.21-.29-.41-.59-.62-.92-3.85-5.65-7.45-11-9-11-1.28,0-1.54,3.34-1.54,4.37-.26,6.93-2.05,17.46-5.14,23.36-.14.28-.38.69-.66,1.17Z"/><path class="cls-5" d="M540.66,203.5c.77,2.82,1.28,9.76,1.28,14.89,0,12.32,0,17.2-6.93,17.2H506l-6.68,6.68h6.93c5.91,0,7.45,1.28,7.45,5.13,0,18.23-30.55,57.51-66.76,72.92-.77.51-3.85,1.8-3.85,2.31,0,1,1,1,1.28,1,3.59,0,12.58-2.31,24.91-7.7,16.95-7.19,31.32-15.92,46.73-34.41,2.82-3.34,14.64-20.28,16.69-21.31,5.65-2.57,7.7-3.59,7.7-6.16,0-1.28,0-2.05-5.65-5.65-2.31-1.28-6.42-3.85-6.42-4.62,0-1.54,1.8-1.54,5.91-1.54h24.14c4.11,0,6.42,2.57,6.68,6.16.51,8.47.51,29,.51,38.51,0,23.37,5.65,23.37,45.19,23.37,17.72,0,28.24,0,37-2.57,8.47-2.31,15.41-9.24,15.41-14.64,0-1.8-.26-2.05-3.85-4.88-4.36-3.34-4.36-7.45-4.36-12.58.26-6.68.26-7.7-1.28-7.7-1.28,0-7.7,12.32-9,14.64-6.93,10.78-9.5,10.78-34.41,10.78-22.34,0-26.19-.77-28-7.45-1.54-6.42-1.8-28.24-1.8-35.69,0-2.57,0-8,6.68-8h33.12c3.08,0,4.88,0,4.88,1.8,0,2.82-8.22,14.12-8.22,15.15,0,.51.26,1.28,1,1.28s8.73-5.13,10-5.91c2.57-1.54,8.73-5.39,15.15-5.39,21.31-.51,23.37-.26,23.37-5.39,0-1.28,0-3.34-6.42-7.7-3.85-2.57-20.8-14.12-22.85-14.12-1.54,0-3.08,3.08-4.62,6.16-2.05,4.62-4.11,7.45-10.53,7.45H566.34c-6.42,0-6.42-5.14-6.42-7.45,0-2.82,0-11.55,2.05-15.66.51-1.28,5.39-6.42,5.39-7.7,0-3.55-15.32-6.9-22.8-7.75l-4.79,4.79A14.43,14.43,0,0,1,540.66,203.5Z"/><path class="cls-5" d="M644.14,392.22c-2.31,0-3.08,1-9.76,11.3-3.08,5.13-4.88,7.7-10.53,7.7H568.39c-.26,0-5.91,0-6.42-5.13-.26-2.57-.26-40.31-.26-44.68,0-10.53,0-15.92,6.68-15.92h71.38c4.37,0,6.68-1,6.68-3.59,0-3.85-20-18.23-23.88-18.23-2.05,0-3.85.51-10.53,8.73-5.39,6.42-8.47,6.42-11,6.42H503.18c-13.61,0-24.14-.26-35.18-.77-1.8,0-9.5-1-11.3-1-.77,0-1,.26-1,.77,0,.26,0,.51,1,1.54l5.14,6.16c.26.26,1.54,1.54,2.05,1.54.77,0,4.62-.77,5.65-.77,9-.51,25.93-.77,32.35-.77h34.92c6.68,0,6.68,5.14,6.68,12.58,0,6.42-.51,37.74-.77,44.93,0,2.57,0,8.22-6.68,8.22H478.53c-9.5,0-29.53-.51-37.23-1-1.28,0-8-.77-9.24-.77-.77,0-1,.26-1,.77,0,.26.26.51,1,1.54l5.14,5.91c.77,1,1.28,1.54,2.31,1.54.77,0,4.37-.51,5.39-.51,9-.77,26.19-.77,34.15-.77h182c3.85,0,6.42-.26,6.42-3.08C667.5,411,647.22,392.22,644.14,392.22Z"/><path class="cls-5" d="M1002.81,425.85c2.57,0,10.78-14.12,12.07-16.69,6.16-12.07,18.23-36.72,18.23-90.12,0-5.65.26-8,4.62-11,13.87-10.53,14.64-11.3,25.42-22.85,5.39-5.91,6.16-6.68,6.93-6.68,1.54,0,1.54,1.28,1.54,2.57,0,2.82-.51,15.92-.51,19,0,4.62,1.28,8.22,5.65,8.22,5.91,0,8.73-4.62,8.73-10.27,0-3.08-.77-18.49-.77-22.08,0-.77,0-2.83,1-2.83.51,0,1,0,2.31,1.28,12.58,13.87,13.87,15.41,16.95,15.41,3.34,0,4.11-4.36,4.11-6.68,0-11.81-12.07-13.61-20-14.63-2.31-.26-4.62-1-4.62-4.11,0-3.34,2.57-3.34,5.39-3.34h14.89c9,0,13.87,0,13.87-3.85,0-3.08-9-11-11.55-11-1.54,0-3.34,1.54-7.7,6.16-1.8,1.8-2.57,1.8-10.53,1.8-1.54,0-4.37,0-4.37-3.34a6.24,6.24,0,0,1,.77-2.82c.51-1,3.85-4.88,3.85-5.91,0-4.11-16.43-6.68-17.2-6.68a2.84,2.84,0,0,0-3.08,2.82c0,1.8,2.05,9.5,2.05,11.55,0,1.54,0,4.11-4.36,4.11-4.62,0-26.7-1.54-29.27-1.54a.68.68,0,0,0-.77.77c0,.26,0,.51,1,1.54l4.88,5.91c1,1,1.54,1.8,2.31,1.8,1.8,0,14.38-1,16.95-1,2.31,0,3.08,1,3.08,1.8,0,5.14-24.91,41.6-30,41.6-1.54,0-1.54-1-1.54-4.37,0-8.22-.51-48.53-.51-57.51,0-11.3,1.28-12.58,10.53-12.58h171c12.07,0,13.35,0,13.35-3.59,0-4.36-22.08-18-24.65-18S1192,219.16,1190,221c-2.57,2.57-5.91,2.57-13.87,2.57H1133c-5.91,0-8-.77-8-6.16a13.81,13.81,0,0,1,1-5.65c.51-1.28,5.91-5.91,5.91-7.45,0-1.8-1.8-3.08-4.62-3.85-2.57-.51-18.74-3.08-19.51-3.08-1.28,0-3.08.26-3.08,2.05,0,.77,1.54,4.62,1.54,5.39.77,2.05,1.28,9.24,1.28,11.81,0,6.93-4.11,6.93-7.19,6.93h-57a35,35,0,0,1-10.53-1.28c-2.57-.77-15.41-5.91-18.49-5.91-1.54,0-1.8,1-1.8,2.31s1.54,10.27,1.8,11.55c1.8,19.51,2.05,74.2,2.05,75.74,0,64.19-4.37,84-8.22,99.88-.77,3.08-5.91,19.26-5.91,19.51A.55.55,0,0,0,1002.81,425.85Z"/><path class="cls-5" d="M1220,382.46c-.51-2.57-1.54-3.85-2.31-3.85-1.54,0-2.31,2.83-2.82,5.91-1.54,7.19-5.14,18.23-11.3,21.82-4.11,2.31-5.91,3.34-33.89,3.34-30.81,0-31.32-4.37-31.32-12.58,0-2.82,0-19,.26-20.54a10.21,10.21,0,0,1,1.46-3.77l-15.85,15.85c0,.74,0,1.5,0,2.3,0,2.57-.26,13.61-.26,15.92.26,14.12,6.68,17.72,60.85,17.72,21.05,0,30.3-3.08,36.72-7.7,4.62-3.59,9-9.5,9-12.07,0-1.8-5.91-8.73-6.93-10.27C1222.86,393,1221.57,390.68,1220,382.46Z"/><path class="cls-5" d="M1017.45,426.37c-2.05.51-3.85.77-3.85,1.54s2.57.77,3.85.77a144.15,144.15,0,0,0,27-3.34l16.21-16.21C1043.19,418.91,1024.42,425.06,1017.45,426.37Z"/><path class="cls-5" d="M1131.45,331.11c0-4.37,0-7.7,6.16-7.7h8.73l6.93-6.93h-33.63c-1.8,0-3.08,0-3.08-1.28,0-2.82,13.87-9.24,13.87-11s-3.85-3.59-4.88-4.11c-3.34-1.54-4.37-2.05-4.37-3.59,0-1,.77-1.8,3.59-3.59,4.11-2.57,24.14-18.74,24.65-18.74,1,0,1,1.54,1,2.05,0,3.59-.51,18.49-.51,21.57,0,5.65,0,10.53,5.39,10.53.26,0,9.5-.51,9.5-9.5,0-4.88-1-25.16-1-29.27,0-.51,0-2.05.77-2.05,1,0,9.76,13.61,11.55,16.18,1.38,1.85,2.92,3.71,4.51,5.5l9.61-9.61c-12.51-7.1-21.31-14.83-21.31-17,0-1.54,1.28-1.54,2.31-1.54h23.62c8.73,0,13.35,0,13.35-3.59,0-2.05-9-12.07-13.35-12.07-3.08,0-6.16,3.59-7.19,4.36-3.85,4.37-5.14,4.37-15.92,4.37-6.16,0-8.22,0-8.22-4.37a7.94,7.94,0,0,1,2.05-5.39c.26-.51,3.08-4.11,3.08-4.62,0-4.11-16.18-5.91-17.2-5.91-1.28,0-3.34.26-3.34,2.31,0,1.28,1.54,11,1.54,13.35,0,2.05-.77,4.11-4.36,4.11-3.34,0-18-1.28-20.8-1.28-.51,0-1,0-1,.77,0,.26,0,.26,1,1.54l5.13,5.91c.77,1,1.28,1.8,2.31,1.8.26,0,6.42-.77,7.7-.77,1,0,2.57,0,2.57,1.28,0,3.08-23.11,29-28,31.07-3.59,1.28-3.59,1.8-3.59,5.91,0,5.65-1,9.24-2.05,13.35-1,3.34-3.08,3.34-5.65,3.34h-17.72c-3.59,0-4.62,0-10.53-2.57a47,47,0,0,0-13.09-4.11c-1.28,0-1.28,2.57-1.28,3.08,0,1.54.77,8.47.77,9.76.51,9.76.77,18.49.77,22.6,0,4.62-1.28,24.65-1.28,28.76,0,2.31,0,5.13,6.16,5.13,6.93,0,9.24-3.08,12.58-7.7,1.54-1.8,3.08-1.8,5.91-1.8h14.89l6.93-6.93h-22.85c-5.65,0-5.91-1-5.91-12.07,0-4.62,3.34-4.62,5.91-4.62h26.7c4.62,0,5.91,1.28,5.91,6.16,0,.27,0,.51,0,.77l15.63-15.63C1131.46,335.81,1131.45,333.61,1131.45,331.11Zm-20.54,8.22h-27.47c-5.14,0-6.16-1.28-6.16-8.73,0-5.39.51-7.19,5.91-7.19h27.73c5.91,0,5.91,2.31,5.91,8C1116.82,336.76,1116.82,339.32,1110.91,339.32Z"/><path class="cls-5" d="M1193.32,319.56l-5.12,5.12C1192.54,321.55,1193.25,320.91,1193.32,319.56Z"/><path class="cls-5" d="M1148.4,406.08c1,0,28.76-12.32,33.38-12.32a3.57,3.57,0,0,1,3.08,2.57c2.31,4.11,4.36,6.16,7.19,6.16,3.34,0,6.42-3.85,6.42-8.47s-1.54-6.93-4.11-8.47a33.47,33.47,0,0,0-15.41-5.39c-.51,0-1.28,0-1.28.51,0,1.28,2.82,6.68,2.82,8,0,3.08-17.46,3.59-18,3.34a.82.82,0,0,1-.77-.77c0-2.57,12.32-9.24,12.32-11.81,0-3.34-11.3-7.19-11.55-7.19-2.31,0-2.31,1.28-2.31,5.65,0,3.08-2.82,8.22-4.62,11.3-1,2.05-2.31,3.08-6.16,3.08-1,0-5.13-1-6.16-1a1.62,1.62,0,0,0-1.8,1.8C1141.46,394,1145.06,406.08,1148.4,406.08Z"/><path class="cls-5" d="M1164.57,369.62c1.54,0,3.34,0,4.37.77,3.34,2.57,4.36,3.59,7.7,3.59,2.57,0,10-1.28,10-12.58,0-3.59-1-26.19-1-28.5,0-3.2.2-5.51,1.59-7.23l-20.68,20.68c2.91.93,2.92,3.64,2.92,7.35,0,6.16,0,9-5.65,9H1150.2l-8.07,8.07a7.61,7.61,0,0,1,4.22-1.14Z"/><path class="cls-5" d="M730,281.44l27.67-27.67c-1.21-.11-2.35-.48-2.35-1.74,0-2.31,11.81-20,26.19-34.15,1.28-1,7.19-4.62,7.19-5.91,0-3.34-23.11-12.07-24.65-12.32a59.74,59.74,0,0,1-.77,8.22c-1.8,11-5.91,22.08-13.35,39.8-.77,1.54-1.54,3.85-3.59,3.85-1.28,0-12.58-5.39-14.89-5.39-2.57,0-2.57,2.05-2.57,2.83,0,1,.26,4.88.26,5.65C729.56,263.66,729.84,272.29,730,281.44Z"/><path class="cls-5" d="M925,242c-1.8,0-5.39,6.42-6.42,7.45a10.66,10.66,0,0,1-6.16,2.31H862.89c-3.08,0-5.65,0-5.65-3.08,0-1,10-27.47,14.63-32.61,1.28-1.28,8.73-5.91,8.73-7.7,0-4-21-8.67-25-9.4l-2,2c-.19.87-.41,2.1-.74,3.83-6.16,33.64-17.46,60.6-24.91,78.06-.77,2.05-5.39,12.32-5.39,13.09,0,.26.26.51.77.51,3.08,0,8.73-7.7,20-25.16,7.45-11.55,8.22-12.84,14.38-12.84h53.92c2.83,0,8,0,8,6.93,0,7.7.77,41.85.77,48.78,0,29.78-5.91,73.69-15.92,86.53-4.37,5.39-9,5.91-12.84,5.91-3.34,0-18-2.31-21.05-2.57-1.54-.26-8-1.8-9.24-1.8a1.38,1.38,0,0,0-1.28,1.28c0,1.8,12.84,6.68,15.15,8.22,6.68,3.85,6.93,5.14,9.76,14.38.77,2.82,3.08,3.59,5.65,3.59,10.27,0,22.85-8.22,27.73-16.95,6.16-10.78,18.74-34.15,18.74-119.39,0-22.08,0-24.65,1-27.22,1-1.8,7.7-7.7,7.7-9.5C945.82,252.28,926.31,242,925,242Z"/><path class="cls-5" d="M807.64,246.93l-15,15a5.79,5.79,0,0,1,1.94,3.46c.26,1,.26,36.46.26,41.59,0,6.93-5.14,6.93-8.22,6.93H755.82c-2.82,0-6.93,0-8-4.62,0-.15-.07-1.06-.1-2.48l-17.95,18c-.58,28.82-1.72,73.11-1.72,84.41,0,2.57,0,7.19,7.19,7.19,12.58,0,12.58-14.89,12.58-21.05,0-4.88.77-8.47,8-8.47h29c7.45,0,9.5,1.28,9.5,10,0,4.62,0,9,7.45,9,3.34,0,12.58-2.31,12.32-9.24,0,0,0-7.7-.26-10.78-.77-11.55-.77-52.38-.77-69.84,0-18.23,0-46.73,1-48.78.77-1.8,7.45-7.45,7.45-9.24C821.55,255.5,813.35,250.15,807.64,246.93Zm-21,133.22H755.31c-2.31,0-5.65-.51-6.93-3.59-1-2.31-1-21.82-1-26.19,0-29,0-29.53,8-29.53h31.32c2.31,0,5.91.26,6.93,3.34,1,2.57,1,22.08,1,26.19C794.59,379.38,794.59,380.15,786.63,380.15Z"/><g class="cls-3"><rect class="cls-4" x="848.04" y="279.23" width="748.13" height="8.88" transform="translate(2286.84 -379.9) rotate(135)"/><path class="cls-4" d="M912.85,597.88c-4.13,1.4-6.37-.83-5-5L913.29,577a17,17,0,0,0-2.2-13.88L901,549.6c-2.61-3.5-1.18-6.32,3.19-6.26l16.84.22a17,17,0,0,0,12.52-6.38l9.72-13.75c2.52-3.56,5.64-3.07,6.94,1.1l5,16.08a17,17,0,0,0,9.94,9.94l16.08,5c4.17,1.3,4.66,4.42,1.1,6.94L968.6,572.2a17,17,0,0,0-6.38,12.52l.22,16.84c.06,4.36-2.76,5.8-6.26,3.19l-13.49-10.07a17,17,0,0,0-13.88-2.2Z"/></g><polygon class="cls-6" points="114.16 168.05 106.25 213.97 98.34 168.05 106.25 122.13 114.16 168.05"/><polygon class="cls-6" points="106.25 161.29 152.17 169.19 106.25 177.1 60.34 169.19 106.25 161.29"/><polygon class="cls-6" points="53.83 258.75 45.92 304.67 38.01 258.75 45.92 212.84 53.83 258.75"/><polygon class="cls-6" points="45.92 251.99 91.83 259.9 45.92 267.81 0 259.9 45.92 251.99"/><polygon class="cls-6" points="131.09 308.35 127.14 331.31 123.18 308.35 127.14 285.39 131.09 308.35"/><polygon class="cls-6" points="127.14 304.97 150.1 308.93 127.14 312.88 104.18 308.93 127.14 304.97"/></g></g></svg>