<svg xmlns="http://www.w3.org/2000/svg" viewBox="0 0 153.93 160.15"><defs><style>.cls-1{fill:#fff;}</style></defs><title>资源 13</title><g id="图层_2" data-name="图层 2"><g id="图层_1-2" data-name="图层 1"><path class="cls-1" d="M77,29.54V56q20.21-3.11,43.54-7a61.43,61.43,0,0,0,11.66-3.89q21.76,9.14,21.77,13.22,0,.78-3.89,10.88-8.94,56.75-15.55,72.3-7.78,18.66-13.21,18.66Q115.45,149.26,98,136V134.5a149,149,0,0,0,17.1,1.55q5.05,0,7.78-10.88,10.3-40,12.44-64.53-1.17-3.88-7-3.89-19,1.95-51.31,7l-.78,65.3q-1.36,10.89-4.66,10.88-6,0-7-14l-.78-59.86q-35.38,4.66-50.53,7A8.1,8.1,0,0,1,17.1,77Q23.32,106.51,28,136q-.2,7.78-4.67,7.77-5.64,0-13.22-18.66A252.84,252.84,0,0,0,4.66,74.63Q.77,69.78,0,67.64l.78-1.55a18.47,18.47,0,0,1,5.44.78Q35,62.78,63.75,58.31V34.21q-.39-8.94-4.66-14-14.77,2.72-28.76,6.22a75.33,75.33,0,0,1-11.66-4.67l.78-1.55Q59.08,11.66,95.62,3.89,98.92,0,101.07,0q21.77,3.31,21.77,10.88,0,3.11-7,3.11a269.56,269.56,0,0,0-45.09,3.89Q77,25.07,77,29.54Zm-35,77q10.88,3.89,10.88,11.66,0,3.89-5.44,3.89-7.39,0-20.21-14.77v-1.56Q33.43,105.73,42,106.51Zm.78-26.43q10.88,7,10.88,12.44,0,3.11-3.11,3.11Q37.9,95.62,28,82.41V80.85Q33.82,80.85,42.76,80.08Zm66.08,26.43q6.22,2.72,6.22,10.11,0,2.33-3.89,2.33-11.66,0-24.88-12.44V105A153.7,153.7,0,0,0,108.84,106.51ZM98.73,77.74a57.62,57.62,0,0,0,8.55-.78q9.33,4.67,9.33,11.66,0,3.89-3.11,3.89-4.08,0-10.11-3.11Q91.15,83,87.85,78.52V77Q95.23,77.74,98.73,77.74Z"/></g></g></svg>