<svg xmlns="http://www.w3.org/2000/svg" viewBox="0 0 177.25 170.26"><defs><style>.cls-1{fill:#fff;}</style></defs><title>资源 14</title><g id="图层_2" data-name="图层 2"><g id="图层_1-2" data-name="图层 1"><path class="cls-1" d="M176.48,83.18l.78,2.33A380.25,380.25,0,0,1,136,87.85Q107.28,54,78.52,25.66,45.87,70.75.78,98L0,96.4Q45.67,51.31,67.64,10.11a16,16,0,0,0-.78-4.66A17.38,17.38,0,0,1,66.08.78L68.41,0Q84.74,5.83,84.74,17.1l-2.33,3.11Q133.32,67.25,176.48,83.18ZM101.84,91a16.33,16.33,0,0,0,8.55-5.44q17.1,4.28,17.1,9.33,0,3.5-5.44,3.89-18.27,1.17-41.2,4.67v49l36.54-4.67a32.34,32.34,0,0,0,6.22-4.66q21.77,5.44,21.77,13.22,0,3.89-8.55,3.89-21.38-.77-35.76-.78-34.21,0-80.85,10.88Q12.82,167.53,9.33,164l.78-1.55q26.82-4.27,58.31-8.55v-48.2a359.3,359.3,0,0,0-38.09,7q-8.94-2.33-11.66-5.44l.78-1.55q23.32-3.11,49-8.55l-.78-10.88A15.11,15.11,0,0,0,61.42,77L49.76,79.3a14.51,14.51,0,0,1-8.55-3.89L42,73.86q29.74-6,38.09-9.33a30.91,30.91,0,0,0,7.77-4.66q19.43.19,19.44,7.77,0,2.92-4.67,3.11A157.26,157.26,0,0,0,77,73.86a41.2,41.2,0,0,1,4.66,7v14Q92.51,92.91,101.84,91ZM51.31,129.05q5.44,8.75,5.44,13.22,0,5.44-3.89,5.44-9.52,0-22.55-23.32l1.56-1.55A140.43,140.43,0,0,0,51.31,129.05Zm70-7.77Q107.67,130.8,84,143l-.78-1.55a340.15,340.15,0,0,0,23.32-28,28.75,28.75,0,0,1-1.55-7l1.55-.78Q121.27,109.23,121.28,121.28Z"/></g></g></svg>