<svg xmlns="http://www.w3.org/2000/svg" viewBox="0 0 89.2 59.96">
  <defs>
    <style>
      .cls-1 {
        fill: #f0eeea;
      }
    </style>
  </defs>
  <title>actress</title>
  <g id="图层_2" data-name="图层 2">
    <g id="图层_1-2" data-name="图层 1">
      <g>
        <path class="cls-1" d="M1.08,10.83c5,1.06,9.91,2.24,14.81,3.58q3.67,1,7.32,2.12c1.22.37,7.43,1.62,7.83,2.81.29.85-10.44,8.94-11.6,9.92L7.85,39.19c-1.47,1.26.66,3.37,2.12,2.12L25.91,27.67c2.18-1.87,9.53-5.77,8.2-9.42-1.24-3.4-9.15-4.33-11.93-5.16-6.7-2-13.47-3.69-20.31-5.15-1.88-.4-2.69,2.49-.8,2.89Z"/>
        <path class="cls-1" d="M80.24.06c-5.37-.48-9.61,2.2-13.63,5.51A169.4,169.4,0,0,0,51.46,19.93a1.51,1.51,0,0,0,.66,2.51l35.2,7.72c1.88.41,2.69-2.48.8-2.89l-35.2-7.72.66,2.51c3.56-3.75,7.23-7.38,11.08-10.83,4.4-4,9.21-8.73,15.57-8.17,1.92.17,1.91-2.83,0-3Z"/>
        <path class="cls-1" d="M30.54,52.22c.58,3.29,1.87,7.38,5.85,7.72,3.61.31,5.2-3.37,6.77-6,1-1.58.93-2.83,2.95-2.09.86.32,1.93,2.33,2.49,3,.88,1.06,2,2.88,3.48,3.2,3.57.74,6.56-5.7,8.11-7.8,1.14-1.56-1.46-3.05-2.59-1.51a30.69,30.69,0,0,1-3.14,4.28c-2.67,2.5-2.64,1-4.23-.88-1.35-1.63-2.94-4.41-5.48-4.15a3.33,3.33,0,0,0-2.39,1.55c-1.09,1.31-1.56,3.44-2.81,4.58-3,2.75-5.56.31-6.1-2.75-.33-1.9-3.23-1.09-2.89.8Z"/>
      </g>
    </g>
  </g>
</svg>
