<?xml version="1.0" encoding="utf-8"?>
<!-- Generator: Adobe Illustrator 21.1.0, SVG Export Plug-In . SVG Version: 6.00 Build 0)  -->
<svg version="1.1" id="图层_1" xmlns="http://www.w3.org/2000/svg" xmlns:xlink="http://www.w3.org/1999/xlink" x="0px" y="0px"
	 viewBox="0 0 512 447.5" style="enable-background:new 0 0 512 447.5;" xml:space="preserve">
<style type="text/css">
	.st0{fill:#FFFFFF;}
</style>
<title>claw-right</title>
<g>
	<path class="st0" d="M342.4,239.4c-37.2-58-114.3-74.8-172.2-37.7c-15.1,9.7-28,22.6-37.7,37.7L76.9,326
		c-23.5,36.7-12.8,85.5,23.9,109c22.2,14.3,50.1,16.4,74.3,5.8l1-0.5c39.5-17,84.2-16.8,123.5,0.5c10,4.4,20.8,6.7,31.7,6.7
		c5.9,0,11.9-0.7,17.7-2c42.5-9.7,69.1-52,59.4-94.5c-2-8.9-5.6-17.4-10.5-25L342.4,239.4z"/>
	<path class="st0" d="M91.9,239.2c16.5-6.3,29.1-19.6,35.3-37.5c6-17,5.5-36.1-1.4-53.9s-19.3-32.3-35.1-40.9
		c-16.6-9-34.8-10.5-51.3-4.1C6.2,115.5-9,156.5,5.5,194.2c11.6,30,38.5,48.9,65.8,48.9C78.3,243.1,85.3,241.8,91.9,239.2z"/>
	<path class="st0" d="M199.6,171.4c41.5,0,75.2-38.4,75.2-85.7S241.1,0,199.6,0s-75.2,38.4-75.2,85.7S158.1,171.4,199.6,171.4z"/>
	<path class="st0" d="M329.5,192.4L329.5,192.4c6.2,2.1,12.8,3.1,19.4,3.1c30.2,0,59.7-22,71-55.8c6.5-19.5,6-40.1-1.2-58
		C411,63,397,49.4,379,43.4s-37.4-3.5-54.7,7c-16.5,10-29.2,26.2-35.7,45.7C275.1,137.2,293.4,180.4,329.5,192.4z"/>
	<path class="st0" d="M487.9,182.4L487.9,182.4c-28.6-21.1-71.4-12-95.4,20.4s-20.2,76,8.3,97.1c10.2,7.5,22.6,11.5,35.3,11.4
		c22,0,44.8-11.2,60-31.8C520.2,247.1,516.4,203.6,487.9,182.4z"/>
</g>
</svg>
