<svg xmlns="http://www.w3.org/2000/svg" viewBox="0 0 459.76 573.22"><defs><style>.cls-1{isolation:isolate;}.cls-2,.cls-3,.cls-4,.cls-5{fill:#2e343f;}.cls-3{opacity:0.23;}.cls-3,.cls-4,.cls-5{mix-blend-mode:multiply;}.cls-4{opacity:0.17;}.cls-5{opacity:0.15;}</style></defs><title>资源 1</title><g class="cls-1"><g id="图层_2" data-name="图层 2"><g id="图层_1-2" data-name="图层 1"><path class="cls-2" d="M281.37,548.3l-1.37-4c-.86-2.62-2.16-6.47-3.59-11.42-2.93-9.89-6.75-24.15-10.27-41.51-1.77-8.68-3.51-18.13-5-28.18s-2.85-20.7-3.75-31.76-1.65-22.53-1.72-34.22.18-23.57,1.07-35.43a352.31,352.31,0,0,1,4.6-35.23,260.46,260.46,0,0,1,8.54-33.42,202.05,202.05,0,0,1,12.33-29.86,172.71,172.71,0,0,1,15.16-24.64,152.86,152.86,0,0,1,16-18.4A141.42,141.42,0,0,1,327.53,208c4.15-3.1,7.53-5.36,9.9-6.79l3.59-2.24-3.3,2.65c-2.19,1.67-5.2,4.38-9,7.79A170.39,170.39,0,0,0,316,222.63a178.55,178.55,0,0,0-14.21,19,199.51,199.51,0,0,0-13.31,24.61,232.81,232.81,0,0,0-10.78,29.29,301.67,301.67,0,0,0-7.52,32.58c-2,11.23-3.31,22.78-4.18,34.36s-1.37,23.22-1.36,34.68.24,22.76.91,33.69,1.44,21.49,2.48,31.48,2.18,19.44,3.36,28.15c2.43,17.4,4.92,31.87,6.84,42l2.3,11.72Z"/><path class="cls-2" d="M114,565.23s1-8.72,3.2-23.93,5.64-36.89,10.46-62.79c2.43-12.95,5.08-27,8.23-41.74s6.45-30.35,10.22-46.39,7.73-32.61,12.19-49.34c2.22-8.37,4.44-16.81,6.81-25.24s4.71-16.92,7.17-25.37c5-16.89,10.24-33.68,15.58-50.18,2.67-8.25,5.5-16.37,8.26-24.41l8.53-23.67c3-7.72,5.74-15.35,8.68-22.74l8.81-21.59,8.74-20.28,8.66-18.75c5.76-11.93,11.13-22.81,16.29-32.26,4.91-9.57,9.82-17.59,13.64-24.3s7.3-11.72,9.46-15.24l3.39-5.36-2.94,5.61c-1.89,3.67-4.8,9-8.25,15.86s-7.64,15.22-12,25c-4.59,9.67-9.33,20.77-14.57,32.84l-7.79,19-8,20.43-8.08,21.72-8.13,22.79-8,23.69-7.9,24.38c-5.22,16.44-10.36,33.19-15.2,50-2.5,8.4-5,16.81-7.29,25.21s-4.68,16.78-6.94,25.1L160.45,368l-6.29,24.22c-4,15.94-7.92,31.33-11.43,46l-9.8,41.32c-5.9,25.64-10.65,47-13.91,62.05Z"/><path class="cls-2" d="M197,234.42a8.09,8.09,0,0,1-7.79-10.24c.1-.37,10.45-37.52,32.35-95.63a8.08,8.08,0,1,1,15.12,5.7c-21.65,57.44-31.8,93.89-31.9,94.25A8.08,8.08,0,0,1,197,234.42Z"/><path class="cls-3" d="M231.94,123.83a8.07,8.07,0,0,0-6.2.21,8.08,8.08,0,0,1,4.23,10.2c-21.65,57.44-31.8,93.89-31.9,94.25a8.06,8.06,0,0,1-4.44,5.19,8.05,8.05,0,0,0,11.12-5.19c.1-.36,10.26-36.81,31.9-94.25A8.08,8.08,0,0,0,231.94,123.83Z"/><path class="cls-2" d="M153.52,573.22l-1.36-17.36c-.88-11-2.18-26.8-3.87-45.68l-2.95-30.45c-1.1-10.79-2.43-22.15-3.8-33.89s-3.13-23.82-4.93-36.08-4-24.64-6.55-36.92a358.86,358.86,0,0,0-9-36.15c-3.73-11.6-7.9-23-14-32.39A39.82,39.82,0,0,0,96.4,292.76l-1.56-.91c-.22-.13-.6-.36-.7-.4l-1-.44-3.84-1.73c-2.43-.88-4.79-1.84-7.32-2.49a64.9,64.9,0,0,0-29-1.56,71.7,71.7,0,0,0-12.71,3.4,82.55,82.55,0,0,0-11,4.82,110.72,110.72,0,0,0-16.53,10.71,122.05,122.05,0,0,0-9.67,8.38C1,314.61,0,315.81,0,315.81s.91-1.3,2.79-3.6a99.86,99.86,0,0,1,8.84-9.43,100.73,100.73,0,0,1,16-12.39A79.87,79.87,0,0,1,52,280a72.75,72.75,0,0,1,15.29-1.87,68.56,68.56,0,0,1,16.46,2,84.54,84.54,0,0,1,8.43,2.5l3.91,1.57,1,.4c.56.22.78.38,1.19.58.72.38,1.47.74,2.18,1.15a45.38,45.38,0,0,1,13.38,13.47,105.44,105.44,0,0,1,9,16.5A170,170,0,0,1,129.53,334a363,363,0,0,1,9.59,37c2.51,12.52,4.56,25.09,6.32,37.49s3,24.65,4.18,36.49,1.93,23.33,2.58,34.21,1.08,21.18,1.37,30.68c.61,19,.58,34.86.43,45.94-.05,5.54-.23,9.9-.31,12.87Z"/><path class="cls-2" d="M98.91,534.45l.22-5.82c.17-3.79.37-9.37.79-16.44.79-14.16,2.14-34.38,4.39-58.59,1.09-12.11,2.4-25.22,4-39.06s3.28-28.44,5.36-43.5,4.21-30.63,6.84-46.38q1.89-11.83,4-23.78c1.34-8,2.84-15.95,4.31-23.93,3-15.94,6.4-31.83,9.83-47.44q2.65-11.69,5.44-23.13c2-7.59,3.8-15.11,5.79-22.46,3.93-14.72,8.1-28.85,12.4-42.14s8.69-25.76,13.12-37.12l3.3-8.32c1.06-2.72,2.11-5.36,3.29-7.89,2.28-5.08,4.35-9.92,6.46-14.4l6.16-12.44c1.92-3.83,4-7.2,5.67-10.32,3.33-6.28,6.58-10.85,8.6-14.06L212,32.32l-2.74,5.14c-1.76,3.36-4.5,8.2-7.41,14.65-1.47,3.22-3.26,6.69-4.89,10.63l-5.33,12.7c-3.56,9.17-7.47,19.54-11.3,31-2.05,5.68-3.77,11.76-5.75,18s-3.79,12.71-5.76,19.35c-3.82,13.32-7.44,27.49-11.12,42.16-1.83,7.34-3.5,14.85-5.3,22.42l-5.1,23.06c-3.31,15.54-6.52,31.37-9.47,47.25-1.52,7.93-3.06,15.86-4.45,23.79s-2.83,15.81-4.14,23.66c-2.65,15.68-5.26,31.12-7.6,46.1l-6.57,43.21-5.54,38.78c-3.32,24-6,44.1-7.82,58.16Z"/><path class="cls-2" d="M297.53,504.89l.53-5.76,1.31-16.3,1.74-25.33c.64-9.78,1.18-20.82,1.81-32.86s1-25.09,1.43-38.88c.18-6.9.37-14,.43-21.23s.2-14.64.23-22.17-.06-15.17-.08-22.91L304.49,296c-.45-15.78-1-31.81-2.16-47.8l-.73-12-1-12c-.57-8-1.44-15.86-2.25-23.7-.38-3.92-.82-7.83-1.34-11.7l-1.4-11.57c-.93-7.67-2.19-15.19-3.24-22.63s-2.6-14.65-3.77-21.78l-4.2-20.74-4.65-19.49-4.93-18.07c-3.54-11.46-6.77-22-10.3-31.12-3.2-9.24-6.77-17-9.45-23.49-1.29-3.28-2.8-6-4-8.51l-3-6.25L245.59,0l3,5,3.56,6c1.38,2.37,3.11,5,4.63,8.21,3.14,6.32,7.34,13.85,11.07,23,4.12,9,8,19.39,12.08,30.84l5.83,18,5.4,19.54,4.95,20.83c1.47,7.15,3,14.47,4.33,21.93,2.58,14.95,5.1,30.43,6.83,46.26.87,7.91,1.8,15.89,2.43,23.91l1.06,12.05.81,12.09c1,16.13,1.51,32.29,1.86,48.19s.09,31.55-.27,46.68-1.06,29.74-1.91,43.58c-.38,6.92-.9,13.65-1.38,20.15L308.19,425c-2.26,24.09-4.91,44.08-7,58S297.53,504.89,297.53,504.89Z"/><path class="cls-2" d="M153.24,556.38s.27-1.65.9-4.74,1.59-7.6,3.19-13.27A209.68,209.68,0,0,1,164,518.22a117.88,117.88,0,0,1,12.79-24.64,64.43,64.43,0,0,1,10.75-12.1,36.37,36.37,0,0,1,15.81-8.12l1.15-.26.29-.07.41-.06.54-.06,2.17-.26a30.09,30.09,0,0,1,5,.13,25.65,25.65,0,0,1,9.51,3c6,3.28,10.31,8.73,13.63,14.4a84.05,84.05,0,0,1,7.56,18.33,137,137,0,0,1,4.17,19.6c.23,1.67.45,3.34.63,5l.13,1.26.06.63c-.08-.58,0,0,0-.24a2.84,2.84,0,0,0-.32-.84,2.74,2.74,0,0,0-.91-.94,2.65,2.65,0,0,0-2.32-.25,2.75,2.75,0,0,0-1.69,1.79l.33-1.18,2.65-9.6q2.62-9.64,5.1-19.37c3.39-12.93,6.62-25.91,9.61-38.72s5.87-25.44,8.36-37.72c5-24.54,9-47.59,11.26-67.48,1.08-9.95,1.82-19.09,2.14-27.21a177.15,177.15,0,0,0-.52-21c-.33-2.89-.67-5.48-1-7.72s-.78-4.13-1.2-5.64l-1.4-4.61,1.76,4.5c.54,1.48,1,3.37,1.65,5.57s1.06,4.81,1.55,7.72a179.06,179.06,0,0,1,1.76,21.19c.17,8.21,0,17.48-.76,27.56s-1.83,21-3.42,32.41-3.47,23.49-5.81,35.88-4.86,25.16-7.83,38-6.08,26-9.42,39q-2.56,9.74-5.24,19.43l-2.72,9.64-.35,1.21a4,4,0,0,1-6,2.29,4,4,0,0,1-1.34-1.39,4,4,0,0,1-.44-1.12,3.88,3.88,0,0,1-.09-.55l-.06-.6-.12-1.21c-.16-1.61-.37-3.22-.58-4.82-1.82-12.73-4.68-25.38-10.41-35.85-2.87-5.17-6.55-9.76-11.16-12.47a20.08,20.08,0,0,0-7.37-2.61,26.38,26.38,0,0,0-3.78-.25l-2.17.19-.54,0h-.13l-.24,0-1,.2a32.14,32.14,0,0,0-13.93,6.66A60.22,60.22,0,0,0,180,495.92a127.91,127.91,0,0,0-13.63,23.31,207.74,207.74,0,0,0-7.78,19.55C154.82,549.85,153.24,556.38,153.24,556.38Z"/><path class="cls-2" d="M196.34,532.91s-.53-5.21-.91-14.37c-.17-4.58-.37-10.14-.38-16.53s0-13.59.3-21.45.68-16.37,1.4-25.36,1.58-18.46,2.86-28.22c.63-4.88,1.28-9.84,2.07-14.85s1.58-10.07,2.52-15.16,2-10.19,3-15.33,2.26-10.25,3.46-15.36c2.58-10.19,5.33-20.35,8.48-30.22l2.34-7.37c.81-2.43,1.72-4.83,2.56-7.22l2.56-7.12,2.75-6.94Q232,300.52,235,294c1-2.16,1.89-4.33,2.89-6.42l3-6.17,2.95-6,3.1-5.7c2-3.73,4-7.34,6.11-10.68s3.93-6.65,5.95-9.62l5.75-8.43c3.65-5.25,7.2-9.57,9.95-13.24,3-3.51,5.35-6.2,7-8.06l2.46-2.84-8.31,11.72c-2.43,3.87-5.55,8.44-8.84,13.87l-5.11,8.71c-1.79,3.07-3.47,6.41-5.34,9.83s-3.63,7.07-5.45,10.86l-2.81,5.75-2.68,6-2.75,6.19c-.9,2.1-1.72,4.27-2.61,6.44l-2.66,6.58c-.88,2.22-1.68,4.5-2.53,6.78l-2.55,6.9-2.36,7.08c-1.62,4.73-3.11,9.58-4.61,14.46-3,9.76-5.66,19.81-8.14,29.88q-1.83,7.57-3.53,15.15c-1,5.07-2.19,10.09-3.09,15.13-1.91,10-3.7,20-5.13,29.61s-2.73,19-3.76,27.88S200,473,199.3,480.81c-1.38,15.58-2.09,28.61-2.51,37.74l-.39,10.61Z"/><path class="cls-2" d="M275.24,504.89q4.24-13.19,8.7-26.3t9-26.18c3-8.72,6.14-17.41,9.26-26.09s6.26-17.36,9.45-26,6.33-17.33,9.6-26L331,348.44,341,322.6l5-12.91,2.53-6.44.63-1.61.18-.41.1-.21a5.55,5.55,0,0,1,.69-1,5.45,5.45,0,0,1,1.6-1.29,5.53,5.53,0,0,1,3.93-.47,5.47,5.47,0,0,1,3.23,2.32l-1-1c2.15,1.36,4.05,2.7,6,4.15s3.75,2.92,5.59,4.43,3.56,3.13,5.32,4.72l5,5,4.81,5.22,4.52,5.46c1.48,1.84,2.82,3.79,4.22,5.69s2.63,3.92,3.9,5.91,2.55,4,3.61,6.08l3.32,6.24,2.81,6.48a61.1,61.1,0,0,1,2.47,6.59c.72,2.23,1.59,4.41,2.15,6.69l1.63,6.83a48.57,48.57,0,0,1,1.21,6.89l.93,6.92-1.62-6.78a58.93,58.93,0,0,0-1.82-6.69l-2.16-6.58c-.74-2.18-1.76-4.26-2.6-6.4a59.11,59.11,0,0,0-2.85-6.27L401.07,354l-3.56-5.88c-1.13-2-2.49-3.84-3.81-5.7s-2.59-3.77-4.08-5.5-2.83-3.59-4.32-5.31l-4.57-5.1-4.83-4.84-5-4.61c-1.76-1.45-3.47-2.94-5.25-4.36s-3.57-2.8-5.42-4.1-3.75-2.59-5.55-3.68l-1-1a.82.82,0,0,0,1.05.31.88.88,0,0,0,.27-.2,1.2,1.2,0,0,0,.2-.33l-.08.18,0,.1.07-.16,0,.05-.6,1.62-2.38,6.5-4.85,13-9.74,25.91-9.94,25.83c-3.28,8.62-6.69,17.2-10.07,25.78s-6.75,17.17-10.23,25.72-6.88,17.13-10.41,25.65-7,17.06-10.64,25.57S279,496.44,275.24,504.89Z"/><path class="cls-2" d="M342,503.75l.18-5.57.68-15.74L344.19,458c.58-9.42,1.29-20,2.17-31.62s2-24.1,3.22-37.34,2.83-27.16,4.58-41.54,3.89-29.2,6.11-44.24c1.09-7.52,2.45-15.06,3.67-22.65,1.38-7.56,2.75-15.16,4.24-22.73,3-15.14,6.13-30.24,9.85-45l2.75-11,2.93-10.82c1-3.58,1.91-7.17,3-10.68L389.86,170c2-6.95,4.45-13.6,6.62-20.2s4.7-12.91,7-19.12c4.83-12.31,9.78-23.81,14.86-34.18,2.36-5.29,5.15-10.06,7.6-14.72L429.54,75l3.78-6.2L436.88,63c1.14-1.88,2.22-3.7,3.43-5.34l6.39-9.19c1.87-2.83,3.78-5.16,5.43-7.21L456.29,36l3.48-4.36-3.85,4-4.64,4.85-2.94,3.09c-1,1.1-2,2.4-3.09,3.71l-7.12,8.77a60.28,60.28,0,0,0-3.82,5.15l-3.95,5.65-4.21,6-4.08,6.63c-2.76,4.56-5.79,9.31-8.45,14.52a374.32,374.32,0,0,0-16.53,34c-5.28,12.34-10.43,25.54-15,39.45L378.66,178c-1.14,3.54-2.13,7.14-3.22,10.74l-3.19,10.9-2.86,11.1c-3.86,14.86-7.17,30.09-10.27,45.36-1.45,7.65-2.78,15.33-4.12,23-1.18,7.66-2.5,15.28-3.54,22.87s-2.15,15.11-3,22.57l-1.29,11.11-1.11,11c-1.54,14.5-2.48,28.57-3.36,41.9s-1.35,26-1.64,37.6-.42,22.33-.41,31.79.18,17.71.37,24.51.46,12.12.65,15.76Z"/><path class="cls-2" d="M372.33,230a8.08,8.08,0,0,0,7.88-6.35c8.06-36.66,17.73-63.13,30-96.65,1.54-4.22,3.12-8.53,4.73-13a8.08,8.08,0,1,0-15.19-5.51c-1.61,4.43-3.18,8.73-4.72,12.93-12,32.74-22.29,61-30.58,98.72a8.09,8.09,0,0,0,7.9,9.82Z"/><path class="cls-4" d="M410.33,103.79a8,8,0,0,1,.11,5.76c-1.61,4.44-3.19,8.75-4.73,13-12.25,33.52-21.92,60-30,96.65a8,8,0,0,1-10.91,5.75,8.08,8.08,0,0,0,15.39-1.27c8.06-36.66,17.73-63.13,30-96.65,1.54-4.22,3.12-8.53,4.73-13A8.07,8.07,0,0,0,410.33,103.79Z"/><path class="cls-2" d="M33.5,569.08s.86-1.81,2.34-5.27,3.58-8.55,6.21-15,5.65-14.45,8.89-23.64,6.73-19.63,10.28-31.08l2.69-8.77,2.61-9.16c1.83-6.2,3.47-12.67,5.25-19.3,3.35-13.31,6.64-27.4,9.48-42.09,3-14.65,5.22-30,7.37-45.49.53-3.89.88-7.81,1.33-11.73s.94-7.86,1.2-11.82L92,333.81c.14-2,.32-4,.42-6l.23-6L93.23,310c.14-4,.08-7.95.13-11.91s.12-7.92,0-11.87L93,274.39c-.6-15.66-2-31-3.89-45.83-.36-3.72-1.1-7.35-1.67-11L85.6,206.86c-.49-3.56-1.4-7-2.1-10.44l-2.2-10.17c-.65-3.37-1.59-6.61-2.47-9.81L76.27,167c-1.51-6.28-3.69-12.11-5.5-17.81L68,140.8c-.93-2.71-2.05-5.27-3-7.83l-5.6-14.46c-4.09-8.82-7.5-16.62-10.62-22.89L41.2,81.24l-2.68-5.1,3,4.91L50,95c3.43,6.13,7.22,13.77,11.78,22.46l6.34,14.27c1.1,2.52,2.3,5.08,3.34,7.78l3.06,8.32A366.51,366.51,0,0,1,86.33,185l2.48,10.24c.79,3.47,1.8,6.93,2.39,10.53l2,10.85c.64,3.66,1.44,7.33,1.87,11.09a452,452,0,0,1,4.54,46.4L100.1,286c.14,4,0,8,.06,12s.05,8-.07,12.07l-.48,12.08-.27,6c-.11,2-.31,4-.46,6l-1,12c-.28,4-.86,8-1.27,11.95s-.85,7.93-1.41,11.86c-1.2,7.84-2.14,15.66-3.65,23.28l-2.07,11.39L87.21,416c-3,14.79-6.76,28.9-10.47,42.21S69,483.94,65,495.3c-1.92,5.71-4,11.11-5.89,16.26s-3.88,10-5.76,14.49c-3.7,9.06-7.15,16.87-10.06,23.26s-5.4,11.32-7.1,14.67S33.5,569.08,33.5,569.08Z"/><path class="cls-2" d="M98.22,277.8A9.24,9.24,0,0,1,89,269.47c-2.94-29.85-7-64.26-17.59-94.82a9.23,9.23,0,1,1,17.45-6.06c11.28,32.47,15.48,68.16,18.52,99.07a9.23,9.23,0,0,1-8.28,10.1C98.83,277.78,98.53,277.8,98.22,277.8Z"/><path class="cls-4" d="M95.15,269.47c-2.94-29.85-7-64.26-17.59-94.82a9.23,9.23,0,0,1,5.66-11.74,9.23,9.23,0,0,0-11.77,11.74c10.62,30.56,14.65,65,17.59,94.82a9.24,9.24,0,0,0,9.18,8.33c.3,0,.61,0,.92,0a9.21,9.21,0,0,0,2.14-.48A9.23,9.23,0,0,1,95.15,269.47Z"/><path class="cls-2" d="M323.53,524.37s-1.12-9.42-2.19-23.52c-.28-3.52-.59-7.34-.85-11.37l-.86-12.69-1.74-27.54c-.26-4.69-.54-9.37-.86-14l-.94-13.51-1-12.61c-.38-4-.73-7.79-1.13-11.27-.19-1.74-.41-3.41-.63-5s-.39-3.09-.63-4.49c-.44-2.82-.9-5.26-1.33-7.26s-.82-3.58-1.18-4.62l-.49-1.63.84,1.48a37.88,37.88,0,0,1,2.15,4.34,74.46,74.46,0,0,1,2.6,7.07c.9,2.77,1.8,5.93,2.6,9.4s1.65,7.25,2.34,11.28,1.42,8.27,2,12.68,1.16,9,1.54,13.61.78,9.36,1.11,14.08l.64,14.09c.21,4.65.2,9.23.27,13.66s0,8.71-.07,12.77-.19,7.9-.34,11.44C324.73,514.95,323.53,524.37,323.53,524.37Z"/><path class="cls-2" d="M70.52,565.23S74,550,76.71,526.7c.69-5.82,1.38-12.13,1.91-18.83S79.7,494.1,80,486.77s.55-14.91.47-22.63-.28-15.55-.72-23.39-1.29-15.66-2.32-23.35A221.36,221.36,0,0,0,73.2,395a145.18,145.18,0,0,0-6.47-20.42,89,89,0,0,0-8.89-17.11A57.33,57.33,0,0,0,47,345.24a43.1,43.1,0,0,0-10.67-6.59,40.27,40.27,0,0,0-7.67-2.28l-2.77-.46,2.68.82a46.6,46.6,0,0,1,7.16,3.15,45.47,45.47,0,0,1,9.49,7.31,60.56,60.56,0,0,1,9.25,12.38c5.67,9.89,9.84,22.71,12.79,36.77,1.49,7,2.54,14.41,3.51,21.93s1.61,15.21,2,22.92.82,15.43,1,23,.23,15.12.13,22.39-.21,14.3-.42,21l-.71,18.8c-.54,11.64-1.11,21.36-1.54,28.16Z"/><path class="cls-2" d="M140.75,250.08a9.24,9.24,0,0,1-9.11-10.83c9.4-53.6,30-106.17,30.89-108.38a9.23,9.23,0,0,1,17.18,6.78c-.21.53-20.8,53.09-29.88,104.79A9.24,9.24,0,0,1,140.75,250.08Z"/><path class="cls-5" d="M174.51,125.67a9.2,9.2,0,0,0-7.27.22A9.23,9.23,0,0,1,172,137.65c-.21.53-20.8,53.09-29.88,104.79a9.22,9.22,0,0,1-5.21,6.78,9.21,9.21,0,0,0,13-6.78c9.07-51.71,29.67-104.27,29.88-104.79A9.23,9.23,0,0,0,174.51,125.67Z"/><path class="cls-2" d="M114,267.69l1.92,2.82c1.23,1.86,3.05,4.58,5.21,8.14s4.76,7.9,7.57,13,5.92,10.85,9,17.28,6.44,13.43,9.68,21,6.52,15.54,9.48,24,6,17.21,8.59,26.25,5,18.3,7,27.66c1,4.67,1.91,9.38,2.73,14.07s1.52,9.39,2.23,14c1.36,9.33,2.09,18.58,2.68,27.54.24,4.48.36,8.9.47,13.21s-.08,8.55-.11,12.66c-.28,8.22-.74,16-1.61,23.1-.59,7.14-1.91,13.6-2.77,19.35-1.18,5.7-2.23,10.65-3.2,14.7l-3.52,12.6,2.17-12.87c.6-4.1,1.16-9.11,1.93-14.81l.77-9.14c.11-1.61.32-3.25.41-4.94l.24-5.19c.43-7.06.43-14.73.4-22.82-.14-4-.19-8.2-.42-12.44s-.48-8.57-.85-13-.79-8.86-1.37-13.37l-.9-6.79c-.27-2.28-.56-4.57-.95-6.85-.74-4.57-1.37-9.2-2.31-13.8l-1.31-6.92-1.49-6.9c-1.88-9.23-4.24-18.35-6.67-27.3l-3.84-13.24c-1.37-4.34-2.63-8.65-4.08-12.83-2.76-8.4-5.67-16.45-8.5-24.06s-5.73-14.72-8.51-21.25c-5.51-13.08-10.54-23.8-14.21-31.25-1.85-3.71-3.29-6.64-4.33-8.61Z"/><path class="cls-2" d="M309.23,530.41s-.2-2-.38-5.46-.4-8.45-.42-14.43c0-3,0-6.23.13-9.65s.16-7,.47-10.76.54-7.58.92-11.49.88-7.87,1.35-11.83,1.32-7.88,2-11.75c.8-3.85,1.6-7.63,2.43-11.29s1.9-7.12,2.91-10.4l3.15-9.15c1.16-2.77,2.27-5.28,3.25-7.5a57.46,57.46,0,0,1,2.87-5.6l2.67-4.78-2.27,5a56.86,56.86,0,0,0-2.48,5.74c-.82,2.27-1.76,4.83-2.82,7.6l-2.76,9.18-2.57,10.38c-.77,3.63-1.52,7.39-2.26,11.22-.58,3.86-1.29,7.75-1.79,11.68s-1.14,7.84-1.49,11.73-.81,7.7-1.07,11.41l-.78,10.7c-.25,3.4-.35,6.63-.51,9.6-.19,6-.42,10.92-.43,14.4S309.23,530.41,309.23,530.41Z"/></g></g></g></svg>